<svg width="169" height="44" viewBox="0 0 169 44" fill="none" xmlns="http://www.w3.org/2000/svg">
<g clip-path="url(#clip0_8985_57880)">
<circle cx="19.9961" cy="22" r="20" fill="#E8E8E8"/>
<path d="M22.4114 20.0837L29.6761 10.0835L29.9153 9.75429L29.5856 9.51578L28.7504 8.91142L28.422 8.67387L28.1838 9.00169L20.9194 18.997V7.01465V6.60854H20.5132H19.4765H19.0704V7.01465V18.997L11.806 9.00169L11.5684 8.67478L11.2403 8.91076L10.4001 9.51512L10.0689 9.75337L10.3087 10.0835L17.5733 20.0835L6.17853 16.3816L5.79234 16.2561L5.66683 16.6423L5.34746 17.625L5.22197 18.0111L5.60806 18.1367L17.0035 21.8433L5.24948 25.6631L4.86325 25.7886L4.98878 26.1749L5.30815 27.1576L5.43367 27.5438L5.81989 27.4183L18.7007 23.2322H19.0303L19.0701 23.4678L18.9674 36.0318L18.9641 36.4412H19.3735H20.4103H20.8131L20.8164 36.0384L20.9187 23.5168L21.0351 23.2322H21.2842L34.1699 27.4183L34.5561 27.5437L34.6816 27.1576L35.001 26.1749L35.1265 25.7886L34.7402 25.6631L22.9818 21.8433L34.3817 18.1367L34.7678 18.0112L34.6423 17.625L34.3229 16.6423L34.1974 16.2562L33.8113 16.3816L22.4114 20.0837Z" fill="#A5A9AE" stroke="#A5A9AE" stroke-width="0.812216"/>
<path d="M37.6094 38.1798L38.0155 38.1798L38.0155 37.7737L38.0155 36.7369L38.0155 36.3308L37.6094 36.3308L24.3775 36.3308L21.1886 36.3308L2.44859 36.3308L2.04248 36.3308L2.04248 36.7369L2.04248 37.7737L2.04248 38.1798L2.44859 38.1798L24.3775 38.1798L37.6094 38.1798Z" fill="#A5A9AE" stroke="#A5A9AE" stroke-width="0.812216"/>
</g>
<mask id="path-5-outside-1_8985_57880" maskUnits="userSpaceOnUse" x="52.5273" y="11.5" width="114" height="21" fill="black">
<rect fill="white" x="52.5273" y="11.5" width="114" height="21"/>
<path d="M52.8574 31.5V11.9002H55.393V20.5351H66.9747V11.9002H69.5103V31.5H66.9747V22.591H55.393V31.5H52.8574ZM81.2483 17.1086C85.3419 17.1086 87.3886 19.1325 87.3886 23.1804C87.3886 23.756 87.3475 24.3728 87.2653 25.0307H77.1639C77.1639 27.973 78.8817 29.4441 82.3174 29.4441C83.953 29.4441 85.4058 29.2613 86.6759 28.8958V30.9518C85.4058 31.3173 83.8616 31.5 82.0432 31.5C77.0999 31.5 74.6282 29.0466 74.6282 24.1398C74.6282 19.4523 76.8349 17.1086 81.2483 17.1086ZM77.1639 22.92H84.9489C84.8941 20.398 83.6606 19.1371 81.2483 19.1371C78.6898 19.1371 77.3283 20.398 77.1639 22.92ZM92.205 31.5V17.1086H93.9182L94.3705 18.9452C95.6315 17.7208 97.1483 17.1086 98.921 17.1086V19.2193C97.2031 19.2193 95.8097 19.8269 94.7406 21.0422V31.5H92.205ZM105.409 28.9918C106.241 29.2568 107.251 29.3893 108.439 29.3893C111.637 29.3893 113.236 27.5663 113.236 23.9205C113.236 20.8412 111.787 19.3015 108.891 19.3015C107.575 19.3015 106.415 19.5482 105.409 20.0417V28.9918ZM102.874 11.9002H105.409V17.7939C106.497 17.337 107.662 17.1086 108.905 17.1086C113.455 17.1086 115.73 19.4112 115.73 24.0164C115.73 29.0055 113.341 31.5 108.562 31.5C106.497 31.5 104.601 31.3035 102.874 30.9106V11.9002ZM120.149 17.1086H131.388V19.1645L122.794 29.5811H131.114V31.5H119.875V29.5811L128.578 19.1645H120.149V17.1086ZM142.153 17.1086C146.246 17.1086 148.293 19.1325 148.293 23.1804C148.293 23.756 148.252 24.3728 148.17 25.0307H138.068C138.068 27.973 139.786 29.4441 143.222 29.4441C144.858 29.4441 146.31 29.2613 147.581 28.8958V30.9518C146.31 31.3173 144.766 31.5 142.948 31.5C138.004 31.5 135.533 29.0466 135.533 24.1398C135.533 19.4523 137.74 17.1086 142.153 17.1086ZM138.068 22.92H145.854C145.799 20.398 144.565 19.1371 142.153 19.1371C139.594 19.1371 138.233 20.398 138.068 22.92ZM153.11 31.5V17.1086H154.823L155.275 18.9452C156.746 17.7208 158.364 17.1086 160.127 17.1086C163.718 17.1086 165.514 18.8949 165.514 22.4677V31.5H162.978V22.4265C162.978 20.2884 161.913 19.2193 159.784 19.2193C158.332 19.2193 156.952 19.8269 155.645 21.0422V31.5H153.11Z"/>
</mask>
<path d="M52.8574 31.5V11.9002H55.393V20.5351H66.9747V11.9002H69.5103V31.5H66.9747V22.591H55.393V31.5H52.8574ZM81.2483 17.1086C85.3419 17.1086 87.3886 19.1325 87.3886 23.1804C87.3886 23.756 87.3475 24.3728 87.2653 25.0307H77.1639C77.1639 27.973 78.8817 29.4441 82.3174 29.4441C83.953 29.4441 85.4058 29.2613 86.6759 28.8958V30.9518C85.4058 31.3173 83.8616 31.5 82.0432 31.5C77.0999 31.5 74.6282 29.0466 74.6282 24.1398C74.6282 19.4523 76.8349 17.1086 81.2483 17.1086ZM77.1639 22.92H84.9489C84.8941 20.398 83.6606 19.1371 81.2483 19.1371C78.6898 19.1371 77.3283 20.398 77.1639 22.92ZM92.205 31.5V17.1086H93.9182L94.3705 18.9452C95.6315 17.7208 97.1483 17.1086 98.921 17.1086V19.2193C97.2031 19.2193 95.8097 19.8269 94.7406 21.0422V31.5H92.205ZM105.409 28.9918C106.241 29.2568 107.251 29.3893 108.439 29.3893C111.637 29.3893 113.236 27.5663 113.236 23.9205C113.236 20.8412 111.787 19.3015 108.891 19.3015C107.575 19.3015 106.415 19.5482 105.409 20.0417V28.9918ZM102.874 11.9002H105.409V17.7939C106.497 17.337 107.662 17.1086 108.905 17.1086C113.455 17.1086 115.73 19.4112 115.73 24.0164C115.73 29.0055 113.341 31.5 108.562 31.5C106.497 31.5 104.601 31.3035 102.874 30.9106V11.9002ZM120.149 17.1086H131.388V19.1645L122.794 29.5811H131.114V31.5H119.875V29.5811L128.578 19.1645H120.149V17.1086ZM142.153 17.1086C146.246 17.1086 148.293 19.1325 148.293 23.1804C148.293 23.756 148.252 24.3728 148.17 25.0307H138.068C138.068 27.973 139.786 29.4441 143.222 29.4441C144.858 29.4441 146.31 29.2613 147.581 28.8958V30.9518C146.31 31.3173 144.766 31.5 142.948 31.5C138.004 31.5 135.533 29.0466 135.533 24.1398C135.533 19.4523 137.74 17.1086 142.153 17.1086ZM138.068 22.92H145.854C145.799 20.398 144.565 19.1371 142.153 19.1371C139.594 19.1371 138.233 20.398 138.068 22.92ZM153.11 31.5V17.1086H154.823L155.275 18.9452C156.746 17.7208 158.364 17.1086 160.127 17.1086C163.718 17.1086 165.514 18.8949 165.514 22.4677V31.5H162.978V22.4265C162.978 20.2884 161.913 19.2193 159.784 19.2193C158.332 19.2193 156.952 19.8269 155.645 21.0422V31.5H153.11Z" fill="#C2C7CC"/>
<path d="M52.8574 31.5H52.6074V31.75H52.8574V31.5ZM52.8574 11.9002V11.6502H52.6074V11.9002H52.8574ZM55.393 11.9002H55.643V11.6502H55.393V11.9002ZM55.393 20.5351H55.143V20.7851H55.393V20.5351ZM66.9747 20.5351V20.7851H67.2247V20.5351H66.9747ZM66.9747 11.9002V11.6502H66.7247V11.9002H66.9747ZM69.5103 11.9002H69.7603V11.6502H69.5103V11.9002ZM69.5103 31.5V31.75H69.7603V31.5H69.5103ZM66.9747 31.5H66.7247V31.75H66.9747V31.5ZM66.9747 22.591H67.2247V22.341H66.9747V22.591ZM55.393 22.591V22.341H55.143V22.591H55.393ZM55.393 31.5V31.75H55.643V31.5H55.393ZM53.1074 31.5V11.9002H52.6074V31.5H53.1074ZM52.8574 12.1502H55.393V11.6502H52.8574V12.1502ZM55.143 11.9002V20.5351H55.643V11.9002H55.143ZM55.393 20.7851H66.9747V20.2851H55.393V20.7851ZM67.2247 20.5351V11.9002H66.7247V20.5351H67.2247ZM66.9747 12.1502H69.5103V11.6502H66.9747V12.1502ZM69.2603 11.9002V31.5H69.7603V11.9002H69.2603ZM69.5103 31.25H66.9747V31.75H69.5103V31.25ZM67.2247 31.5V22.591H66.7247V31.5H67.2247ZM66.9747 22.341H55.393V22.841H66.9747V22.341ZM55.143 22.591V31.5H55.643V22.591H55.143ZM55.393 31.25H52.8574V31.75H55.393V31.25ZM87.2653 25.0307V25.2807H87.486L87.5134 25.0617L87.2653 25.0307ZM77.1639 25.0307V24.7807H76.9139V25.0307H77.1639ZM86.6759 28.8958H86.9259V28.5637L86.6068 28.6556L86.6759 28.8958ZM86.6759 30.9518L86.7451 31.192L86.9259 31.14V30.9518H86.6759ZM77.1639 22.92L76.9144 22.9037L76.897 23.17H77.1639V22.92ZM84.9489 22.92V23.17H85.2044L85.1989 22.9145L84.9489 22.92ZM81.2483 17.3586C83.2572 17.3586 84.7179 17.8551 85.6778 18.8043C86.6371 19.7529 87.1386 21.1957 87.1386 23.1804H87.6386C87.6386 21.1172 87.1168 19.524 86.0293 18.4487C84.9424 17.374 83.3329 16.8586 81.2483 16.8586V17.3586ZM87.1386 23.1804C87.1386 23.7442 87.0984 24.3506 87.0172 24.9997L87.5134 25.0617C87.5967 24.395 87.6386 23.7678 87.6386 23.1804H87.1386ZM87.2653 24.7807H77.1639V25.2807H87.2653V24.7807ZM76.9139 25.0307C76.9139 26.5514 77.3596 27.7342 78.2896 28.5306C79.2122 29.3207 80.5697 29.6941 82.3174 29.6941V29.1941C80.6294 29.1941 79.4101 28.8319 78.6148 28.1508C77.827 27.4762 77.4139 26.4523 77.4139 25.0307H76.9139ZM82.3174 29.6941C83.971 29.6941 85.4479 29.5094 86.7451 29.1361L86.6068 28.6556C85.3637 29.0133 83.9349 29.1941 82.3174 29.1941V29.6941ZM86.4259 28.8958V30.9518H86.9259V28.8958H86.4259ZM86.6068 30.7115C85.3658 31.0686 83.8463 31.25 82.0432 31.25V31.75C83.8769 31.75 85.4458 31.5659 86.7451 31.192L86.6068 30.7115ZM82.0432 31.25C79.6096 31.25 77.8305 30.6462 76.6581 29.4825C75.4861 28.3192 74.8782 26.5542 74.8782 24.1398H74.3782C74.3782 26.6322 75.0062 28.5473 76.3059 29.8374C77.6052 31.1271 79.5335 31.75 82.0432 31.75V31.25ZM74.8782 24.1398C74.8782 21.831 75.422 20.1458 76.4653 19.0377C77.5059 17.9325 79.0841 17.3586 81.2483 17.3586V16.8586C78.9991 16.8586 77.2673 17.4565 76.1012 18.695C74.9378 19.9306 74.3782 21.7611 74.3782 24.1398H74.8782ZM77.1639 23.17H84.9489V22.67H77.1639V23.17ZM85.1989 22.9145C85.1707 21.6173 84.8385 20.6001 84.1614 19.908C83.4824 19.2139 82.4963 18.8871 81.2483 18.8871V19.3871C82.4126 19.3871 83.2494 19.6907 83.804 20.2576C84.3604 20.8264 84.6724 21.7007 84.699 22.9254L85.1989 22.9145ZM81.2483 18.8871C79.9301 18.8871 78.8805 19.2121 78.1384 19.8994C77.3959 20.5871 76.9993 21.6024 76.9144 22.9037L77.4133 22.9362C77.4929 21.7156 77.8592 20.8395 78.4782 20.2662C79.0977 19.6925 80.008 19.3871 81.2483 19.3871V18.8871ZM92.205 31.5H91.955V31.75H92.205V31.5ZM92.205 17.1086V16.8586H91.955V17.1086H92.205ZM93.9182 17.1086L94.161 17.0488L94.1141 16.8586H93.9182V17.1086ZM94.3705 18.9452L94.1278 19.005L94.232 19.4282L94.5447 19.1245L94.3705 18.9452ZM98.921 17.1086H99.171V16.8586H98.921V17.1086ZM98.921 19.2193V19.4693H99.171V19.2193H98.921ZM94.7406 21.0422L94.5529 20.8771L94.4906 20.9479V21.0422H94.7406ZM94.7406 31.5V31.75H94.9906V31.5H94.7406ZM92.455 31.5V17.1086H91.955V31.5H92.455ZM92.205 17.3586H93.9182V16.8586H92.205V17.3586ZM93.6755 17.1683L94.1278 19.005L94.6133 18.8854L94.161 17.0488L93.6755 17.1683ZM94.5447 19.1245C95.7586 17.9459 97.2127 17.3586 98.921 17.3586V16.8586C97.0839 16.8586 95.5045 17.4957 94.1964 18.7658L94.5447 19.1245ZM98.671 17.1086V19.2193H99.171V17.1086H98.671ZM98.921 18.9693C97.1363 18.9693 95.6726 19.6042 94.5529 20.8771L94.9283 21.2073C95.9467 20.0497 97.27 19.4693 98.921 19.4693V18.9693ZM94.4906 21.0422V31.5H94.9906V21.0422H94.4906ZM94.7406 31.25H92.205V31.75H94.7406V31.25ZM105.409 28.9918H105.159V29.1745L105.334 29.23L105.409 28.9918ZM105.409 20.0417L105.299 19.8173L105.159 19.8859V20.0417H105.409ZM102.874 11.9002V11.6502H102.624V11.9002H102.874ZM105.409 11.9002H105.659V11.6502H105.409V11.9002ZM105.409 17.7939H105.159V18.1701L105.506 18.0243L105.409 17.7939ZM102.874 30.9106H102.624V31.1101L102.818 31.1544L102.874 30.9106ZM105.334 29.23C106.197 29.505 107.234 29.6393 108.439 29.6393V29.1393C107.268 29.1393 106.285 29.0085 105.485 28.7536L105.334 29.23ZM108.439 29.6393C110.085 29.6393 111.363 29.1684 112.224 28.1869C113.08 27.2117 113.486 25.7745 113.486 23.9205H112.986C112.986 25.7123 112.592 27.0095 111.848 27.8572C111.11 28.6986 109.99 29.1393 108.439 29.1393V29.6393ZM113.486 23.9205C113.486 22.346 113.116 21.1186 112.332 20.285C111.545 19.4485 110.382 19.0515 108.891 19.0515V19.5515C110.297 19.5515 111.306 19.9244 111.967 20.6276C112.632 21.3336 112.986 22.4157 112.986 23.9205H113.486ZM108.891 19.0515C107.543 19.0515 106.344 19.3043 105.299 19.8173L105.52 20.2661C106.485 19.7922 107.607 19.5515 108.891 19.5515V19.0515ZM105.159 20.0417V28.9918H105.659V20.0417H105.159ZM102.874 12.1502H105.409V11.6502H102.874V12.1502ZM105.159 11.9002V17.7939H105.659V11.9002H105.159ZM105.506 18.0243C106.561 17.581 107.693 17.3586 108.905 17.3586V16.8586C107.63 16.8586 106.432 17.0929 105.313 17.5634L105.506 18.0243ZM108.905 17.3586C111.14 17.3586 112.772 17.924 113.846 19.0112C114.921 20.099 115.48 21.7516 115.48 24.0164H115.98C115.98 21.676 115.402 19.8746 114.202 18.6598C113.001 17.4444 111.219 16.8586 108.905 16.8586V17.3586ZM115.48 24.0164C115.48 26.4751 114.891 28.2726 113.758 29.4562C112.626 30.6377 110.91 31.25 108.562 31.25V31.75C110.993 31.75 112.861 31.115 114.119 29.802C115.374 28.4911 115.98 26.5469 115.98 24.0164H115.48ZM108.562 31.25C106.512 31.25 104.635 31.055 102.929 30.6669L102.818 31.1544C104.566 31.5521 106.481 31.75 108.562 31.75V31.25ZM103.124 30.9106V11.9002H102.624V30.9106H103.124ZM120.149 17.1086V16.8586H119.899V17.1086H120.149ZM131.388 17.1086H131.638V16.8586H131.388V17.1086ZM131.388 19.1645L131.581 19.3236L131.638 19.2543V19.1645H131.388ZM122.794 29.5811L122.601 29.422L122.264 29.8311H122.794V29.5811ZM131.114 29.5811H131.364V29.3311H131.114V29.5811ZM131.114 31.5V31.75H131.364V31.5H131.114ZM119.875 31.5H119.625V31.75H119.875V31.5ZM119.875 29.5811L119.683 29.4208L119.625 29.4904V29.5811H119.875ZM128.578 19.1645L128.77 19.3248L129.113 18.9145H128.578V19.1645ZM120.149 19.1645H119.899V19.4145H120.149V19.1645ZM120.149 17.3586H131.388V16.8586H120.149V17.3586ZM131.138 17.1086V19.1645H131.638V17.1086H131.138ZM131.195 19.0054L122.601 29.422L122.987 29.7402L131.581 19.3236L131.195 19.0054ZM122.794 29.8311H131.114V29.3311H122.794V29.8311ZM130.864 29.5811V31.5H131.364V29.5811H130.864ZM131.114 31.25H119.875V31.75H131.114V31.25ZM120.125 31.5V29.5811H119.625V31.5H120.125ZM120.067 29.7414L128.77 19.3248L128.386 19.0042L119.683 29.4208L120.067 29.7414ZM128.578 18.9145H120.149V19.4145H128.578V18.9145ZM120.399 19.1645V17.1086H119.899V19.1645H120.399ZM148.17 25.0307V25.2807H148.391L148.418 25.0617L148.17 25.0307ZM138.068 25.0307V24.7807H137.818V25.0307H138.068ZM147.581 28.8958H147.831V28.5637L147.511 28.6556L147.581 28.8958ZM147.581 30.9518L147.65 31.192L147.831 31.14V30.9518H147.581ZM138.068 22.92L137.819 22.9037L137.802 23.17H138.068V22.92ZM145.854 22.92V23.17H146.109L146.103 22.9145L145.854 22.92ZM142.153 17.3586C144.162 17.3586 145.622 17.8551 146.582 18.8043C147.542 19.7529 148.043 21.1957 148.043 23.1804H148.543C148.543 21.1172 148.021 19.524 146.934 18.4487C145.847 17.374 144.238 16.8586 142.153 16.8586V17.3586ZM148.043 23.1804C148.043 23.7442 148.003 24.3506 147.922 24.9997L148.418 25.0617C148.501 24.395 148.543 23.7678 148.543 23.1804H148.043ZM148.17 24.7807H138.068V25.2807H148.17V24.7807ZM137.818 25.0307C137.818 26.5514 138.264 27.7342 139.194 28.5306C140.117 29.3207 141.474 29.6941 143.222 29.6941V29.1941C141.534 29.1941 140.315 28.8319 139.519 28.1508C138.732 27.4762 138.318 26.4523 138.318 25.0307H137.818ZM143.222 29.6941C144.876 29.6941 146.352 29.5094 147.65 29.1361L147.511 28.6556C146.268 29.0133 144.839 29.1941 143.222 29.1941V29.6941ZM147.331 28.8958V30.9518H147.831V28.8958H147.331ZM147.511 30.7115C146.27 31.0686 144.751 31.25 142.948 31.25V31.75C144.781 31.75 146.35 31.5659 147.65 31.192L147.511 30.7115ZM142.948 31.25C140.514 31.25 138.735 30.6462 137.563 29.4825C136.391 28.3192 135.783 26.5542 135.783 24.1398H135.283C135.283 26.6322 135.911 28.5473 137.21 29.8374C138.51 31.1271 140.438 31.75 142.948 31.75V31.25ZM135.783 24.1398C135.783 21.831 136.327 20.1458 137.37 19.0377C138.41 17.9325 139.989 17.3586 142.153 17.3586V16.8586C139.904 16.8586 138.172 17.4565 137.006 18.695C135.842 19.9306 135.283 21.7611 135.283 24.1398H135.783ZM138.068 23.17H145.854V22.67H138.068V23.17ZM146.103 22.9145C146.075 21.6173 145.743 20.6001 145.066 19.908C144.387 19.2139 143.401 18.8871 142.153 18.8871V19.3871C143.317 19.3871 144.154 19.6907 144.709 20.2576C145.265 20.8264 145.577 21.7007 145.604 22.9254L146.103 22.9145ZM142.153 18.8871C140.835 18.8871 139.785 19.2121 139.043 19.8994C138.301 20.5871 137.904 21.6024 137.819 22.9037L138.318 22.9362C138.398 21.7156 138.764 20.8395 139.383 20.2662C140.002 19.6925 140.913 19.3871 142.153 19.3871V18.8871ZM153.11 31.5H152.86V31.75H153.11V31.5ZM153.11 17.1086V16.8586H152.86V17.1086H153.11ZM154.823 17.1086L155.066 17.0488L155.019 16.8586H154.823V17.1086ZM155.275 18.9452L155.032 19.005L155.128 19.3929L155.435 19.1373L155.275 18.9452ZM165.514 31.5V31.75H165.764V31.5H165.514ZM162.978 31.5H162.728V31.75H162.978V31.5ZM155.645 21.0422L155.475 20.8592L155.395 20.9333V21.0422H155.645ZM155.645 31.5V31.75H155.895V31.5H155.645ZM153.36 31.5V17.1086H152.86V31.5H153.36ZM153.11 17.3586H154.823V16.8586H153.11V17.3586ZM154.58 17.1683L155.032 19.005L155.518 18.8854L155.066 17.0488L154.58 17.1683ZM155.435 19.1373C156.865 17.9469 158.427 17.3586 160.127 17.3586V16.8586C158.3 16.8586 156.627 17.4947 155.115 18.753L155.435 19.1373ZM160.127 17.3586C161.884 17.3586 163.156 17.7955 163.991 18.6256C164.825 19.4554 165.264 20.7201 165.264 22.4677H165.764C165.764 20.6424 165.305 19.2277 164.343 18.2711C163.382 17.3148 161.961 16.8586 160.127 16.8586V17.3586ZM165.264 22.4677V31.5H165.764V22.4677H165.264ZM165.514 31.25H162.978V31.75H165.514V31.25ZM163.228 31.5V22.4265H162.728V31.5H163.228ZM163.228 22.4265C163.228 21.3192 162.952 20.4427 162.357 19.8447C161.761 19.2465 160.888 18.9693 159.784 18.9693V19.4693C160.81 19.4693 161.534 19.7266 162.002 20.1975C162.472 20.6686 162.728 21.3957 162.728 22.4265H163.228ZM159.784 18.9693C158.255 18.9693 156.817 19.6112 155.475 20.8592L155.815 21.2253C157.087 20.0427 158.408 19.4693 159.784 19.4693V18.9693ZM155.395 21.0422V31.5H155.895V21.0422H155.395ZM155.645 31.25H153.11V31.75H155.645V31.25Z" fill="#C2C7CC" mask="url(#path-5-outside-1_8985_57880)"/>
<defs>
<clipPath id="clip0_8985_57880">
<rect y="2" width="40" height="40" rx="20" fill="white"/>
</clipPath>
</defs>
</svg>
