<svg width="142" height="44" viewBox="0 0 142 44" fill="none" xmlns="http://www.w3.org/2000/svg">
<path d="M2.16182 12.6155H6.86951V30.2832H18.7772V32.0001H2.16182V12.6155ZM36.4317 27.0986H26.5732L24.1917 32.0001H20.924L31.004 12.3386H34.0225L43.5209 32.0001H38.7302L36.4317 27.0986ZM35.6286 25.3817L31.5855 16.714L27.404 25.3817H35.6286ZM70.6538 12.6155V32.0001H65.9184V18.3478L60.0753 32.0001H57.1676L49.8568 17.9047V32.0001H47.2538V12.6155H52.0445L59.5492 27.1817L65.8353 12.6155H70.6538ZM76.0332 12.6155H93.9501V14.3324H80.7409V20.757H92.4271V22.474H80.7409V30.2832H93.9501V32.0001H76.0332V12.6155ZM98.0518 12.6155H102.76V30.2832H114.667V32.0001H98.0518V12.6155ZM128.299 32.277C125.991 32.277 123.997 31.8801 122.317 31.0863C120.637 30.2924 119.345 29.1478 118.44 27.6524C117.554 26.1386 117.111 24.3294 117.111 22.2247C117.111 20.157 117.554 18.3847 118.44 16.9078C119.345 15.4309 120.637 14.3047 122.317 13.5293C123.997 12.7355 125.991 12.3386 128.299 12.3386C130.588 12.3386 132.573 12.7355 134.253 13.5293C135.933 14.3047 137.216 15.4309 138.102 16.9078C139.006 18.3847 139.459 20.157 139.459 22.2247C139.459 24.3294 139.006 26.1386 138.102 27.6524C137.216 29.1478 135.933 30.2924 134.253 31.0863C132.591 31.8801 130.606 32.277 128.299 32.277ZM128.299 30.5601C130.385 30.5601 131.973 29.8494 133.062 28.4278C134.151 27.0063 134.696 24.9386 134.696 22.2247C134.696 19.5663 134.151 17.5447 133.062 16.1601C131.973 14.757 130.385 14.0555 128.299 14.0555C126.213 14.0555 124.616 14.757 123.508 16.1601C122.419 17.5447 121.874 19.5663 121.874 22.2247C121.874 24.9386 122.419 27.0063 123.508 28.4278C124.597 29.8494 126.194 30.5601 128.299 30.5601Z" fill="#C2C7CC"/>
<line x1="121.685" y1="28.366" x2="133.685" y2="16.366" stroke="#C2C7CC" stroke-width="0.923077"/>
</svg>
