<svg width="128" height="44" viewBox="0 0 128 44" fill="none" xmlns="http://www.w3.org/2000/svg">
<g clip-path="url(#clip0_8986_57905)">
<path d="M29.4784 36.6632C21.4638 36.655 14.9692 30.1604 14.9609 22.1458C14.9692 14.1313 21.4638 7.63663 29.4784 7.62842C37.493 7.63663 43.9877 14.1313 44 22.1458C43.9918 30.1604 37.493 36.655 29.4784 36.6632ZM29.4784 8.85669C22.1416 8.8649 16.1974 14.8091 16.1892 22.1458C16.1974 29.4785 22.1416 35.4227 29.4784 35.4309C36.8152 35.4227 42.7594 29.4785 42.7676 22.1417C42.7594 14.805 36.8152 8.8608 29.4784 8.85258V8.85669Z" fill="#C2C7CC"/>
<path d="M21.9979 29.0348C13.9833 29.0266 7.48868 22.532 7.48047 14.5174C7.48868 6.50285 13.9833 0.00821586 21.9979 0C30.0126 0.00821586 36.5072 6.50285 36.5154 14.5174C36.5072 22.532 30.0126 29.0266 21.9979 29.0348ZM21.9979 1.22827C14.6612 1.23649 8.71696 7.18066 8.70875 14.5174C8.71696 21.8542 14.6612 27.7983 21.9979 27.8066C29.3347 27.7983 35.2789 21.8542 35.2872 14.5174C35.2789 7.18066 29.3347 1.23649 21.9979 1.22827Z" fill="#C2C7CC"/>
<path d="M14.5175 36.6632C6.50288 36.655 0.00821589 30.1604 0 22.1458C0.00821589 14.1312 6.50288 7.63659 14.5175 7.62427C22.5321 7.63248 29.0267 14.1271 29.035 22.1417C29.0267 30.1563 22.5321 36.6509 14.5175 36.6591V36.6632ZM14.5175 8.85665C7.18069 8.86486 1.23649 14.809 1.22827 22.1417C1.23649 29.4784 7.18069 35.4226 14.5175 35.4308C21.8502 35.4226 27.7944 29.4784 27.8026 22.1458C27.7944 14.8131 21.8502 8.86897 14.5175 8.85665Z" fill="#C2C7CC"/>
<path d="M21.9979 43.9999C13.9833 43.9917 7.48868 37.4971 7.48047 29.4825C7.48868 21.4679 13.9833 14.9733 21.9979 14.9651C30.0126 14.9733 36.5072 21.4679 36.5154 29.4825C36.5072 37.4971 30.0126 43.9917 21.9979 43.9999ZM21.9979 16.1934C14.6612 16.2016 8.71696 22.1457 8.70875 29.4825C8.71696 36.8193 14.6612 42.7634 21.9979 42.7716C29.3347 42.7634 35.2789 36.8193 35.2872 29.4825C35.2789 22.1457 29.3347 16.2016 21.9979 16.1934Z" fill="#C2C7CC"/>
<path d="M51 19.1707V11.322H52.7084C54.5641 11.322 55.9942 11.9333 55.9942 13.8327C55.9942 15.4101 55.0117 16.4744 52.894 16.4744H52.3263V19.1707H51ZM52.8667 15.2737C54.0183 15.2737 54.5969 14.6624 54.5969 13.8218C54.5969 12.9813 54.0674 12.5337 53.0741 12.5337H52.3263V15.2737H52.8667ZM62.0963 19.1707L61.3813 17.637H57.7407L57.0367 19.1707H55.5521L59.5747 11L63.5755 19.1707H62.0908H62.0963ZM59.7002 13.9965C59.6456 13.8928 59.5747 13.7181 59.5638 13.6253C59.5419 13.7181 59.46 13.8819 59.4055 13.9965L58.2866 16.4308H60.8246L59.6947 13.9965H59.7002ZM68.4222 19.1707L65.7587 16.267H65.5513V19.1707H64.225V11.322H65.8842C67.3361 11.322 69.2137 11.6932 69.2137 13.7509C69.2137 14.8316 68.3731 15.8577 67.1614 16.076L70.2616 19.1762H68.4277L68.4222 19.1707ZM66.0698 15.1154C67.2433 15.1154 67.8218 14.515 67.8218 13.8164C67.8218 12.9758 67.2924 12.5283 66.1626 12.5283H65.5513V15.1099H66.0698V15.1154ZM75.4195 19.1707L71.9645 15.9996V19.1707H70.6382V11.322H71.9645V14.5259L74.9283 11.322H76.6476L72.8706 15.159L77.3626 19.1707H75.4141H75.4195ZM87.7275 19.1707L87.3345 15.2628C87.3127 15.099 87.3018 14.9626 87.3345 14.8261C87.2854 14.9516 87.209 15.0826 87.1053 15.2518L84.5455 19.4709L81.9856 15.2518C81.8819 15.0881 81.8109 14.9516 81.7564 14.8261C81.7891 14.9626 81.7782 15.0936 81.7564 15.2628L81.3634 19.1707H79.9443L80.9704 11.1146L84.4145 16.7965C84.4854 16.922 84.5291 17.0039 84.54 17.0967H84.5509C84.5618 17.0039 84.6055 16.922 84.6874 16.7965L88.1314 11.1146L89.1575 19.1707H87.7384H87.7275ZM90.4347 19.1598V11.3329H94.9759V12.5337H91.7611V14.4004H94.3536V15.6012H91.7611V17.9536H95.3088V19.1544H90.4347V19.1598ZM96.4932 19.1707V11.322H98.7638C101.105 11.322 103.016 12.6811 103.016 15.2518C103.016 17.8226 101.242 19.1707 98.5673 19.1707H96.4932ZM98.742 17.97C100.308 17.97 101.602 17.1949 101.602 15.2246C101.602 13.598 100.472 12.5283 98.8948 12.5283H97.8141V17.97H98.7365H98.742ZM104.271 19.1707V11.322H105.597V19.1707H104.271ZM113.937 18.3029C113.222 18.9852 112.289 19.3509 111.17 19.3509C108.632 19.3509 106.814 17.4842 106.814 15.2355C106.814 12.9867 108.534 11.1474 111.023 11.1474C112.627 11.1474 113.626 11.9442 113.883 12.2554L113.179 13.1778C112.627 12.6374 111.83 12.3481 111.023 12.3481C109.26 12.3481 108.223 13.7072 108.223 15.1973C108.223 16.8347 109.456 18.1555 111.23 18.1555C112.213 18.1555 113.015 17.7516 113.326 17.4405L113.937 18.3029ZM120.574 19.1707L119.859 17.637H116.219L115.515 19.1707H114.03L118.053 11L122.053 19.1707H120.569H120.574ZM118.178 13.9965C118.129 13.8928 118.053 13.7181 118.042 13.6253C118.02 13.7181 117.938 13.8819 117.884 13.9965L116.765 16.4308H119.303L118.173 13.9965H118.178ZM122.698 19.1598V11.322H124.024V17.959H127.31V19.1598H122.698Z" fill="#C2C7CC"/>
<path d="M55.6885 29.818V28.6882H59.0889C59.0562 31.7447 57.1786 33 55.2409 33C52.8667 33 51 31.1934 51 28.9229C51 26.6523 52.823 24.7856 55.2191 24.7856C57.1185 24.7856 58.1774 25.7681 58.2374 25.8336L57.5661 26.827C57.517 26.756 56.6819 25.9864 55.2409 25.9864C53.5326 25.9864 52.4082 27.2745 52.4082 28.9338C52.4082 30.3201 53.4943 31.7938 55.2519 31.7938C56.5891 31.7938 57.6043 30.9533 57.6971 29.8125H55.683L55.6885 29.818ZM64.356 32.8145L61.6924 29.9108H61.485V32.8145H60.1587V24.9658H61.8179C63.2698 24.9658 65.1474 25.3369 65.1474 27.3946C65.1474 28.4753 64.3068 29.5014 63.0951 29.7197L66.1953 32.8199H64.3614L64.356 32.8145ZM62.0035 28.7591C63.177 28.7591 63.7556 28.1587 63.7556 27.4601C63.7556 26.6196 63.2261 26.172 62.0963 26.172H61.485V28.7537H62.0035V28.7591ZM70.4144 32.9946C68.0293 32.9946 66.1298 31.1388 66.1298 28.901C66.1298 26.6632 68.0293 24.7966 70.4144 24.7966C72.7996 24.7966 74.6663 26.5704 74.6663 28.9338C74.6663 31.1607 72.7178 33 70.4144 33V32.9946ZM70.4144 25.9973C68.8371 25.9973 67.5435 27.2418 67.5435 28.8574C67.5435 30.3911 68.8098 31.8047 70.3435 31.8047C71.9809 31.8047 73.2581 30.5275 73.2581 28.9229C73.2581 27.3182 71.9645 25.9973 70.4144 25.9973ZM80.8449 24.9658H82.1712V31.8702C81.5817 32.4924 80.561 32.9891 78.9891 32.9891C76.9805 32.9891 75.8289 31.9739 75.8289 29.9326V24.9658H77.1552V29.2067C77.1552 31.1552 77.6246 31.8211 79.2293 31.8211C79.8733 31.8211 80.4519 31.6574 80.8449 31.3681V24.9712V24.9658ZM83.8032 32.8145V24.9658H85.5115C87.3673 24.9658 88.7973 25.5771 88.7973 27.4765C88.7973 29.0539 87.8148 30.1182 85.6971 30.1182H85.1295V32.8145H83.8032ZM85.6698 28.9174C86.8215 28.9174 87.4 28.3061 87.4 27.4656C87.4 26.625 86.8706 26.1775 85.8772 26.1775H85.1295V28.9174H85.6698Z" fill="#C2C7CC"/>
</g>
<defs>
<clipPath id="clip0_8986_57905">
<rect width="127.309" height="44" fill="white"/>
</clipPath>
</defs>
</svg>
