<svg width="115" height="46" viewBox="0 0 115 46" fill="none" xmlns="http://www.w3.org/2000/svg">
<path d="M16.4716 19.3461C13.8219 19.3461 11.7451 18.6061 10.2173 17.138C9.59663 16.5293 9.17887 15.7773 8.97597 14.8822L10.2412 13.7363C10.3486 15.7415 10.9692 17.1261 12.1031 17.9138C13.2251 18.7016 14.6932 19.0836 16.4836 19.0358C17.5578 19.0358 18.5843 18.9045 19.5511 18.6181C20.5298 18.3435 21.2579 17.878 21.7592 17.2335C22.2485 16.589 22.5111 16.0041 22.535 15.4551C22.5708 14.727 22.4156 14.1063 22.0814 13.5931C21.7353 13.0679 21.1504 12.6144 20.303 12.2205C19.4556 11.8266 18.5126 11.5163 17.4862 11.2895C16.9968 11.1701 16.5074 11.0627 15.9942 10.9553C15.4452 10.8479 14.8722 10.7285 14.2993 10.5853C13.237 10.3346 12.4015 10.0243 11.8047 9.66623C10.826 9.15299 10.1576 8.37717 9.79953 7.33876C9.6563 6.8852 9.58469 6.4197 9.59663 5.94227C9.6205 4.97548 9.90696 4.12804 10.456 3.37608C11.1721 2.43316 12.1867 1.78863 13.4877 1.41862C14.5142 1.12023 15.5645 0.976996 16.6507 0.976996C17.2475 0.976996 17.8323 1.02474 18.4172 1.10829C19.5272 1.26345 20.5059 1.6454 21.3534 2.26606C22.2127 2.88672 22.714 3.45964 22.8573 4.00868L21.9859 5.73937C21.7234 4.68902 21.0908 3.63867 20.0882 2.60026C19.0856 1.56185 17.6294 1.09635 15.7197 1.22765C14.5738 1.3112 13.5712 1.69314 12.7119 2.39735C11.8405 3.10156 11.4109 4.04449 11.3989 5.22613C11.3989 6.18099 11.7212 6.89714 12.3657 7.3865C13.0222 7.86393 13.8577 8.24588 14.8603 8.5204C15.6361 8.73524 16.7103 8.97396 18.0591 9.24848C20.8759 9.71398 22.6782 10.7166 23.466 12.2444C23.7286 12.7934 23.8599 13.4021 23.8479 14.0586C23.836 14.4883 23.7763 14.918 23.657 15.3357C23.2869 16.6128 22.4992 17.5916 21.2817 18.26C19.933 18.9881 18.3217 19.3461 16.4716 19.3461ZM32.6088 5.72743C33.7665 5.66775 34.9004 5.89453 35.9866 6.39583C37.0728 6.89714 37.8605 7.54167 38.3618 8.32943L37.2757 9.72591C36.2014 8.06684 35.1392 6.99262 34.1007 6.52713C33.0504 6.0497 32.0478 5.95421 31.081 6.24067C30.0903 6.51519 29.2548 7.13585 28.5745 8.10265C27.8942 9.06944 27.6912 10.4421 27.9538 12.2324C28.1806 13.4976 28.6342 14.6315 29.3264 15.6102C30.0187 16.6009 30.902 17.3648 31.9642 17.878C33.3846 18.439 34.7453 18.439 36.0582 17.8661C37.3592 17.2932 38.2663 16.4338 38.7438 15.2999L38.9347 15.3477C38.5767 16.3383 37.8247 17.1738 36.7027 17.878C35.5808 18.5822 34.244 18.9284 32.6923 18.9284C31.6778 18.9045 30.6871 18.6419 29.6965 18.1406C28.7058 17.6393 27.8703 16.9112 27.2019 15.9683C26.5215 15.0254 26.1635 13.8676 26.1038 12.5069C26.068 11.373 26.2828 10.3108 26.7603 9.30816C27.2377 8.31749 27.9658 7.49392 28.9445 6.83746C29.9232 6.19293 31.1407 5.82292 32.6088 5.72743ZM47.0272 18.9881C46.0484 18.9642 45.0936 18.6897 44.1507 18.1764C43.1958 17.6513 42.3961 16.9232 41.7635 15.9564C41.119 14.9776 40.7728 13.8199 40.7132 12.4473C40.7132 11.2537 40.9519 10.1556 41.4532 9.12912C41.9425 8.10265 42.6706 7.27908 43.6613 6.64648C44.6639 6.01389 45.7381 5.70356 46.9198 5.69162C48.2685 5.69162 49.474 6.07357 50.5602 6.83746C51.6463 7.61328 52.4221 8.5204 52.8518 9.53494C53.2935 10.5495 53.4725 11.4566 53.4128 12.2444L42.7542 12.2324C42.8974 13.6886 43.351 14.918 44.1029 15.9564C44.8549 17.0067 45.7381 17.6871 46.7288 18.0571C52.3983 19.9191 56.1222 11.9579 57.28 9.3201L57.471 9.3559C55.5732 13.5812 52.7086 19.2745 47.0272 18.9881ZM42.7184 12.0295L51.3479 12.0534C51.2882 10.7166 51.0137 9.57075 50.5124 8.65169C50.0111 7.7207 49.4024 7.0523 48.6863 6.61068C47.9582 6.19293 47.242 5.99002 46.5259 6.00195C45.5352 6.0497 44.7116 6.34809 44.1149 6.92101C43.4942 7.48199 43.0884 8.19813 42.8616 9.10525C42.6229 10.0004 42.5751 10.9911 42.7184 12.0295ZM62.4363 5.69162C65.7067 5.63194 67.7477 7.36263 67.7596 10.4898V18.9284L65.7067 18.9403L65.7425 10.9792C65.8021 8.54427 65.2053 6.0855 62.1021 6.02582C60.1207 5.99002 57.6023 7.42231 57.4948 10.3227L57.5665 18.9284H55.5254L55.5016 12.8173L57.471 8.91428C57.841 7.84006 59.1659 5.73937 62.4363 5.69162ZM74.6346 18.9881H74.4556C73.7633 18.9881 73.1426 18.8329 72.5697 18.5226C71.6984 18.0451 71.2568 17.15 71.2449 15.8251L71.2329 6.10937L69.2396 6.0855V5.90647C71.2568 5.9184 72.5936 4.90386 73.2501 2.86285L73.262 5.87066H76.3295V6.09744H73.262C73.262 10.4898 73.262 13.2231 73.2739 14.3092C73.2739 15.4073 73.2739 15.9803 73.2739 16.028C73.3097 16.9351 73.5007 17.6393 73.8349 18.1287C74.1572 18.6061 74.5511 18.8568 75.0166 18.8568V18.9642L74.6346 18.9881ZM83.8729 19.0597C82.9061 19.0358 81.9632 18.7613 81.0202 18.248C80.0892 17.7348 79.3015 17.0067 78.657 16.0519C78.0244 15.0851 77.6782 13.9273 77.6185 12.5666C77.6185 11.385 77.8573 10.2988 78.3466 9.28429C78.836 8.26975 79.5641 7.44618 80.5547 6.82552C81.5335 6.19293 82.6077 5.8826 83.7655 5.87066C85.1023 5.87066 86.3078 6.2526 87.382 7.01649C88.4681 7.78038 89.2201 8.67556 89.6498 9.6901C90.0914 10.6927 90.2824 11.5879 90.2108 12.3757L79.6357 12.3637C79.7789 13.796 80.2325 15.0254 80.9844 16.0519C81.7244 17.0903 82.5958 17.7706 83.5984 18.1287C84.8397 18.5822 86.0691 18.5226 87.2746 17.9735C88.4801 17.4125 89.3991 16.3861 90.0437 14.8702L90.2466 14.906C89.7214 16.2428 88.8859 17.2574 87.7639 17.9855C86.642 18.7016 85.341 19.0597 83.8729 19.0597ZM79.6118 12.1608L88.1578 12.1847C88.0981 10.8598 87.8236 9.72591 87.3343 8.80686C86.833 7.8878 86.2362 7.2194 85.52 6.78971C84.8039 6.37196 84.0997 6.16905 83.3955 6.18099C82.3928 6.22873 81.5931 6.52713 80.9844 7.08811C80.3757 7.64909 79.9699 8.36523 79.7431 9.26042C79.5163 10.1437 79.4805 11.1224 79.6118 12.1608ZM104.951 18.9642H104.713L102.898 16.6009C102.648 17.138 102.051 17.6871 101.132 18.248C100.213 18.809 99.1268 19.0477 97.8735 18.9761C96.4532 18.8806 95.3193 18.4987 94.4838 17.8184C93.6363 17.15 93.0515 16.3145 92.7053 15.3118C92.3592 14.3092 92.2279 13.2708 92.2995 12.1966C92.395 10.8479 92.7412 9.70204 93.3618 8.73524C93.9705 7.78038 94.7464 7.0523 95.6654 6.551C96.5964 6.0497 97.5632 5.82292 98.5897 5.87066C99.6162 5.94227 100.452 6.15712 101.096 6.50326C101.741 6.84939 102.338 7.37457 102.887 8.0549C102.898 7.78038 102.91 7.48199 102.922 7.13585C102.922 6.78971 102.922 6.24067 102.934 5.48872C102.934 4.73676 102.934 3.65061 102.934 2.24219L104.951 0.48763V18.9642ZM102.803 16.1593C102.839 15.9325 102.863 15.2402 102.887 14.0944C102.898 12.9366 102.91 12.0534 102.922 11.4208C102.934 10.7882 102.934 10.2391 102.934 9.77365C102.934 9.30816 102.934 9.08138 102.934 9.08138C102.851 8.74718 102.66 8.36523 102.349 7.92361C102.051 7.48199 101.597 7.10004 101.001 6.75391C100.404 6.4197 99.64 6.2526 98.6971 6.22873C97.7184 6.26454 96.9067 6.58681 96.2622 7.19553C95.6296 7.81619 95.1522 8.56814 94.8538 9.46332C94.5554 10.3704 94.4002 11.2537 94.4122 12.125C94.4718 14.0586 94.8777 15.5267 95.6296 16.5174C96.3816 17.4961 97.2648 18.1048 98.2555 18.3316C99.2581 18.5464 100.213 18.4151 101.12 17.9258C102.027 17.4364 102.588 16.8516 102.803 16.1593ZM13.9412 41.0597V32.2272H3.55713L3.56907 40.9761H1.52805V23.168H3.56907L3.55713 31.9408H13.9412V23.1799H15.9823L15.9703 41.0477L13.9412 41.0597ZM28.658 31.2604C28.7416 30.6875 28.6342 30.1146 28.3358 29.5297C28.0374 28.9449 27.548 28.551 26.8796 28.3242C26.2112 28.1094 25.5906 28.0258 25.0415 28.0616C23.8241 28.181 22.6305 29.3746 21.4727 31.6543L20.6372 29.8878C21.4966 28.6226 22.9766 27.9542 25.0773 27.8707C26.7245 27.8468 28.0851 28.2526 29.1355 29.0762C30.1978 29.9117 30.7349 31.153 30.7468 32.824C30.7468 33.8863 30.7349 34.9844 30.7229 36.1183C30.6991 37.7535 30.6991 39.3887 30.711 41H30.5081L28.7416 38.6009C28.109 39.4961 27.2496 40.1526 26.1396 40.5822C25.0415 41.0119 23.7286 41.1552 22.2008 41.0239C21.1982 40.9403 20.3149 40.5942 19.5272 39.9974C18.7514 39.4006 18.3217 38.5293 18.262 37.4073C18.262 36.4167 18.5723 35.6408 19.193 35.0679C19.8136 34.4831 20.5775 34.0534 21.5085 33.7789C22.4276 33.5043 23.3586 33.3134 24.2896 33.2298C25.4235 33.1224 26.3783 32.9314 27.1422 32.6569C27.9061 32.3824 28.4074 31.9169 28.658 31.2604ZM28.67 31.7975C28.288 32.3585 27.7509 32.7405 27.0587 32.9553C26.3783 33.1701 25.5786 33.3253 24.6834 33.4327C24.0389 33.5163 23.3824 33.6834 22.7021 33.946C22.0337 34.2086 21.4727 34.5905 21.0192 35.1037C20.5656 35.6289 20.3269 36.3092 20.3269 37.1567C20.3866 38.2548 20.8282 39.0783 21.6398 39.6393C22.4514 40.1884 23.4063 40.451 24.4925 40.4271C25.5786 40.3913 26.4857 40.1645 27.1899 39.7229C27.8942 39.2932 28.4074 38.7322 28.7058 38.0399C28.6939 34.6024 28.6819 32.5137 28.67 31.7975ZM35.2705 41H33.2175L33.2414 29.4104L35.2585 27.8587L35.2824 31.8572C36.3327 29.1836 37.9918 27.8349 40.2715 27.8349C41.4054 27.8468 42.2051 28.3481 42.6587 29.3507L41.7874 30.8427C41.2264 29.6849 40.4506 28.9329 39.4718 28.6107C38.4931 28.2884 37.586 28.6704 36.7505 29.7326C35.7718 31.0217 35.2824 32.1556 35.2824 33.1463L35.2705 41ZM54.6899 34.5547V33.1105C54.7138 32.2869 54.6422 31.5111 54.4632 30.7711C54.2841 30.043 53.9261 29.4342 53.4009 28.9687C52.8638 28.5033 52.0999 28.2407 51.0853 28.2049C50.4169 28.1929 49.7485 28.3481 49.0682 28.6584C48.3879 28.9687 47.803 29.4342 47.3256 30.0668C46.8481 30.6994 46.5856 31.4991 46.5259 32.4659L46.5975 41H44.5684L44.5326 29.5655L46.5378 27.8945L46.502 31.0694C46.6094 30.6994 46.8481 30.2697 47.2182 29.7804C47.5762 29.291 48.1014 28.8613 48.7817 28.4913C49.4621 28.1213 50.3334 27.9065 51.4195 27.8707C53.0547 27.8468 54.3438 28.2407 55.2748 29.0642C55.8955 29.6133 56.3132 30.3294 56.5281 31.2127C56.6832 30.7591 56.9458 30.2817 57.3158 29.7923C57.6739 29.303 58.1991 28.8733 58.8794 28.5033C59.5597 28.1332 60.431 27.9184 61.5172 27.8826C63.1524 27.8587 64.4415 28.2526 65.3725 29.0762C66.2915 29.8997 66.7689 31.0814 66.7928 32.645V41.0119L64.7637 41.0239L64.7876 33.1224C64.8115 32.2988 64.7399 31.523 64.5608 30.783C64.3818 30.0549 64.0237 29.4462 63.4985 28.9807C62.9614 28.5152 62.1975 28.2526 61.183 28.2168C60.5146 28.2049 59.8462 28.36 59.1659 28.6704C58.4855 28.9807 57.9007 29.4462 57.4232 30.0788C56.91 30.7591 56.6713 31.6185 56.6952 32.633V41.0119H54.6661L54.678 34.5666L54.6899 34.5547ZM75.9953 41.0119H75.7804C74.9449 41.0119 74.1094 40.8806 73.2739 40.6181C72.4504 40.3435 71.6626 39.9258 70.9345 39.3409C70.2064 38.7561 69.6216 38.0399 69.18 37.1686C68.7383 36.2973 68.5116 35.3783 68.5116 34.3876C68.5116 33.3969 68.7383 32.4779 69.18 31.6066C69.6455 30.7472 70.2422 30.031 70.9703 29.4581C72.4504 28.3362 74.0498 27.7752 75.7804 27.7752C77.6066 27.7752 79.2537 28.3362 80.7338 29.4581C81.4738 30.031 82.0706 30.7472 82.5241 31.6066C82.9658 32.4779 83.1925 33.3969 83.2045 34.3876C83.1925 35.3783 82.9777 36.3092 82.548 37.1806C82.1064 38.0519 81.5096 38.768 80.7815 39.3529C79.3612 40.4629 77.7737 41.0119 75.9953 41.0119ZM77.6782 40.4868C78.466 40.2242 79.1583 39.8064 79.7312 39.2096C80.3041 38.6248 80.7099 37.9564 80.9606 37.2164C81.1993 36.4644 81.3067 35.7244 81.2948 34.9963C81.2709 34.2682 81.1635 33.5521 80.9606 32.8717C80.7577 32.1795 80.4712 31.523 80.0892 30.8904C79.7192 30.2578 79.2179 29.6849 78.6092 29.1836C77.9886 28.6823 77.2843 28.3481 76.4727 28.181C75.6611 28.0139 74.8494 28.0497 74.0378 28.2765C73.2381 28.5271 72.5458 28.9449 71.9491 29.5297C71.3642 30.1146 70.9465 30.783 70.7077 31.5349C70.469 32.2988 70.3735 33.0388 70.3974 33.7789C70.4332 34.5069 70.5526 35.2231 70.7555 35.9034C70.9584 36.5957 71.2568 37.2402 71.6387 37.8728C72.0207 38.4935 72.522 39.0545 73.1307 39.5438C73.7394 40.0332 74.4556 40.3793 75.2553 40.5584C76.055 40.7374 76.8666 40.7135 77.6782 40.4868ZM92.2637 27.8707C95.5103 27.811 97.5274 29.5297 97.5274 32.633V41L95.4983 41.0119L95.5222 33.1105C95.5819 30.6994 95.009 28.2645 91.9176 28.2049C89.9721 28.1691 87.4775 29.5894 87.3701 32.4659L87.4417 41H85.4126L85.3768 29.5059L87.3939 27.8349L87.3462 31.0694C87.7043 30.0072 89.0053 27.9184 92.2637 27.8707ZM101.645 45.0343C101.096 45.0343 100.511 44.9388 99.8907 44.7717L100.595 43.1842C102.17 43.4349 103.448 43.3872 104.402 43.041C105.298 42.7307 105.966 42.0384 106.431 40.9523C106.36 40.7016 104.307 36.3451 100.273 27.8707H102.576L107.577 38.5054L112.566 27.8707H112.793L106.587 41.0955C106.431 41.4894 106.181 41.9429 105.847 42.4562C105.512 42.9694 105.154 43.423 104.784 43.793C103.901 44.6165 102.851 45.0343 101.645 45.0343Z" fill="#C2C7CC"/>
<path d="M77.9468 34.4655V34.5822C76.7415 34.5822 75.8084 34.7474 75.8084 36.4096H75.7501C75.7501 34.864 74.8267 34.5822 73.6797 34.5822V34.4655C74.8267 34.4655 75.7306 34.1836 75.7306 32.6381H75.8278C75.8278 34.2906 76.7415 34.4655 77.9468 34.4655Z" fill="#C2C7CC"/>
</svg>
