<svg width="165" height="44" viewBox="0 0 165 44" fill="none" xmlns="http://www.w3.org/2000/svg">
<path d="M1.14519 12.4818C0.944275 12.2708 0.673055 12.1804 0.341548 12.2106L0 11.0251H6.64016L6.87122 12.2106C6.64017 12.2106 6.40911 12.3009 6.16801 12.4717C5.88674 12.6827 5.77625 12.9238 5.83652 13.185L8.43834 25.6014L11.9945 11.0251H13.7826L17.3388 25.6014L20.1918 13.185H20.1817C20.242 12.9138 20.1315 12.6827 19.8402 12.4717C19.6091 12.3009 19.3781 12.2106 19.147 12.2106L19.368 11.0251H25.7872L25.4255 12.2106C25.1041 12.1804 24.8329 12.2708 24.6219 12.4818C24.5315 12.5822 24.4511 12.7028 24.3708 12.8434C24.3406 12.8936 24.3205 12.9439 24.2904 12.9941C24.2703 13.0343 24.2602 13.0745 24.2502 13.1147L20.5032 29.7904V29.8306V29.8809C20.4931 29.9311 20.4931 29.9914 20.5032 30.0416C20.5333 30.1923 20.5936 30.3128 20.694 30.4233C20.8849 30.6443 21.0356 30.7548 21.1461 30.7448V31.9301H13.5918L13.5817 30.7448C13.642 30.7548 13.7826 30.6443 13.9835 30.4233C14.084 30.3128 14.1443 30.1822 14.1644 30.0215C14.1744 29.9712 14.1744 29.921 14.1744 29.8708L14.1644 29.8206V29.7804L12.8785 24.3658L11.5927 29.7804L11.5826 29.8206V29.8708C11.5826 29.921 11.5826 29.9813 11.5927 30.0315C11.6128 30.1822 11.673 30.3028 11.7735 30.4133C11.9644 30.6343 12.1251 30.7448 12.2457 30.7347L12.2356 31.9201H4.61095V30.7347C4.72145 30.7448 4.87215 30.6343 5.06302 30.4133C5.16347 30.3028 5.22375 30.1722 5.25389 30.0115C5.26393 29.9612 5.26393 29.911 5.25389 29.8607V29.8105L5.24383 29.7703L1.52693 13.1649C1.48675 12.9238 1.35615 12.6927 1.14519 12.4818Z" fill="#C2C7CC"/>
<path d="M12.2468 32.111C12.3673 32.111 12.4276 32.0507 12.4276 31.9301L12.4376 30.7447C12.4376 30.6845 12.4175 30.6342 12.3874 30.6041C12.3472 30.5639 12.307 30.5539 12.2668 30.5539H12.2568H12.2468C12.2267 30.5438 12.2066 30.5338 12.1965 30.5237C12.1262 30.4735 12.0358 30.4032 11.9454 30.3027C11.8751 30.2224 11.8248 30.1219 11.8047 30.0114C11.7947 29.9712 11.7947 29.931 11.7947 29.8908L11.8047 29.8507V29.8205L12.9098 25.1594L13.4623 27.5L12.6787 30.8251V30.8653L12.6687 30.9155C12.6687 30.9657 12.6687 31.026 12.6787 31.0763C12.6988 31.2269 12.7591 31.3475 12.8595 31.458C13.0604 31.679 13.2212 31.7794 13.3317 31.7794L13.3217 32.9648H5.71709L5.70703 32.1009H12.2468V32.111ZM6.87233 12.3813C6.9326 12.3813 6.9728 12.3612 7.01298 12.311C7.05317 12.2607 7.06319 12.2105 7.05314 12.1603L7.04312 12.0598H7.68603L7.91709 13.2452C7.68604 13.2452 7.45497 13.3356 7.21388 13.5064C6.9326 13.7173 6.82211 13.9585 6.88239 14.2397L8.80111 23.3511L8.45953 24.7575L6.01844 13.1548V13.1247V13.0945C6.01844 13.0443 6.01845 13.0041 6.0285 12.9539C6.06868 12.8133 6.14905 12.7028 6.27964 12.6123C6.41023 12.5219 6.55088 12.4516 6.69152 12.4014C6.74174 12.3913 6.78192 12.3913 6.81206 12.3913L6.85225 12.3813H6.87233ZM14.2358 12.0699H14.8385L17.6312 23.532L17.3399 24.7977L14.2358 12.0699ZM25.6677 12.0699H26.8431L26.4814 13.2552C26.16 13.2251 25.8888 13.3155 25.6778 13.5265C25.5874 13.627 25.507 13.7475 25.4266 13.8881C25.3965 13.9384 25.3764 13.9886 25.3463 14.0388C25.3262 14.079 25.3162 14.1192 25.3061 14.1594L21.5691 30.8351L21.5591 30.8753V30.9255C21.5591 30.9758 21.5591 31.0361 21.5591 31.0863C21.5892 31.237 21.6495 31.3575 21.7499 31.468C21.9408 31.689 22.0915 31.7895 22.202 31.7895V32.9749H14.6477L14.6376 32.111H21.1572C21.2778 32.111 21.3381 32.0507 21.3381 31.9301L21.3481 30.7447C21.3481 30.6845 21.328 30.6342 21.2878 30.6041C21.2477 30.5639 21.2075 30.5539 21.1472 30.5539H21.1372C21.1171 30.5438 21.097 30.5338 21.0668 30.5237C20.9965 30.4735 20.9161 30.4032 20.8358 30.3027C20.7655 30.2224 20.7152 30.1219 20.6952 30.0114C20.6851 29.9612 20.6851 29.921 20.6851 29.8908V29.8507L20.6952 29.8205L24.4321 13.1648C24.4422 13.1247 24.4522 13.0945 24.4723 13.0544C24.4924 13.0041 24.5125 12.9639 24.5426 12.9137C24.6029 12.7932 24.6833 12.6927 24.7636 12.5922C24.8641 12.4918 25.0047 12.4215 25.1755 12.3813C25.2257 12.3712 25.286 12.3713 25.3362 12.3713H25.4066C25.507 12.3813 25.5673 12.3411 25.5974 12.2507L25.6677 12.0699Z" fill="#C2C7CC"/>
<path d="M36.2925 12.1954C36.0514 12.1753 35.8204 12.2858 35.5893 12.5169C35.4788 12.6274 35.3985 12.7479 35.3382 12.8885C35.3282 12.9388 35.3181 12.999 35.3081 13.0493L35.298 13.1095V13.1598L35.2478 29.7954V29.8356L35.2578 29.9059C35.2679 29.9662 35.2779 30.0164 35.298 30.0566C35.3482 30.2072 35.4186 30.3278 35.5291 30.4383C35.7601 30.6593 35.9912 30.7698 36.2323 30.7598L36.2222 31.9451H29.5921L29.582 30.7598C29.8231 30.7799 30.0542 30.6794 30.2852 30.4584C30.3656 30.378 30.4359 30.2776 30.4761 30.1671C30.5163 30.0867 30.5364 29.9963 30.5565 29.9059L30.5967 13.0493C30.5866 12.9589 30.5665 12.8684 30.5263 12.7881C30.4761 12.6776 30.4158 12.5771 30.3154 12.4867C30.0843 12.2657 29.8533 12.1653 29.6222 12.1954L29.6323 11.01H36.2624L36.2925 12.1954Z" fill="#C2C7CC"/>
<path d="M36.5837 31.4831C36.8148 31.7041 37.0458 31.8046 37.2869 31.8046L37.2769 32.9899H30.6468L30.6367 32.126H36.2322C36.3527 32.126 36.413 32.0657 36.413 31.9452L36.423 31.2721C36.4632 31.3525 36.5134 31.4228 36.5837 31.4831ZM36.2924 30.579L36.2221 30.5689H36.2121H36.1719C36.1317 30.5589 36.0915 30.5488 36.0513 30.5388C35.9107 30.4886 35.7901 30.4182 35.6796 30.3077C35.5892 30.2274 35.5189 30.1269 35.4687 30.0064C35.4586 29.9562 35.4486 29.916 35.4385 29.8858V29.8256V29.7954L35.4787 13.1598L35.4888 13.1196V13.0795C35.4988 13.0292 35.5089 12.989 35.5189 12.9589C35.5691 12.8384 35.6294 12.7379 35.7098 12.6374C35.8303 12.5269 35.9609 12.4566 36.0915 12.4164C36.1417 12.3963 36.1819 12.3863 36.2121 12.3863L36.2522 12.3763H36.2623C36.3125 12.3863 36.3627 12.3763 36.4029 12.3361C36.4431 12.2959 36.4532 12.2557 36.4532 12.1954V12.0548H37.307L37.3171 13.2402C37.076 13.2201 36.8449 13.3306 36.6139 13.5617C36.5034 13.6722 36.423 13.7927 36.3828 13.9333C36.3627 13.9836 36.3527 14.0438 36.3427 14.0941L36.3326 14.1443V14.1945L36.2924 30.579Z" fill="#C2C7CC"/>
<path d="M41.2641 13.1097C41.2641 13.0695 41.2641 13.0293 41.254 12.9891C41.244 12.9389 41.2339 12.8786 41.2138 12.8384C41.1636 12.7078 41.0933 12.5973 40.9928 12.4969C40.7618 12.2758 40.4604 12.1754 40.0787 12.2056L40.0887 11.0201H47.0303L47.0403 12.2056C46.6586 12.1754 46.3572 12.2758 46.1262 12.4969C46.0458 12.5772 45.9755 12.6777 45.9353 12.7882C45.9052 12.8585 45.8851 12.9489 45.865 13.0393L45.7645 28.6603H48.075C48.9088 28.6603 49.6823 28.2585 50.4056 27.4649C50.9581 26.8722 51.2394 26.1891 51.2595 25.4256H54.5143V31.9453H40.0686L40.0586 30.7599C40.4303 30.79 40.7417 30.6895 40.9727 30.4585C41.033 30.3982 41.0933 30.3178 41.1335 30.2375L41.244 13.19V13.1097H41.2641Z" fill="#C2C7CC"/>
<path d="M55.5768 32.9799H41.1311L41.1211 32.116H54.532C54.6626 32.116 54.7229 32.0557 54.7229 31.9352V26.4804H55.5768V32.9799ZM48.0928 12.0649V13.2502C47.711 13.2201 47.4097 13.3206 47.1786 13.5416C47.0983 13.6219 47.0279 13.7224 46.9878 13.8329C46.9576 13.9032 46.9375 13.9936 46.9174 14.0841L46.8371 28.4694H45.9731L46.0736 13.0594C46.0836 12.9891 46.1037 12.9187 46.1238 12.8484C46.164 12.7681 46.2142 12.6877 46.2745 12.6274C46.385 12.5069 46.5457 12.4366 46.7567 12.4064C46.817 12.3863 46.8873 12.3763 46.9476 12.3763H47.0279C47.0782 12.3863 47.1284 12.3763 47.1786 12.3361C47.2188 12.2959 47.2289 12.2557 47.2289 12.1955V12.0548H48.0928V12.0649Z" fill="#C2C7CC"/>
<path d="M59.2406 12.4868C59.0096 12.2658 58.6981 12.1654 58.3164 12.1955L58.3264 11.0101L67.7794 11.0001C68.2716 11.0001 68.8643 11.1809 69.5474 11.5526C70.3511 11.9745 71.0744 12.5672 71.7374 13.3307C73.5054 15.3498 74.3794 18.0622 74.3794 21.4777C74.3794 24.9535 73.626 27.6658 72.1091 29.6348C71.5164 30.4083 70.8433 31.001 70.1 31.4128C69.447 31.7745 68.8342 31.9453 68.2516 31.9453H63.3292H58.3264L58.3164 30.7599C58.6981 30.79 59.0096 30.6896 59.2406 30.4585C59.3009 30.3982 59.3611 30.3179 59.4013 30.2375L59.5118 13.1097C59.5118 13.0594 59.5118 13.0192 59.5018 12.9891C59.4917 12.9288 59.4817 12.8786 59.4616 12.8384C59.4114 12.7078 59.3913 12.6476 59.3913 12.6476C59.3913 12.6476 59.3411 12.5873 59.2406 12.4868ZM69.4671 21.4676C69.4671 19.1471 68.8744 17.2686 67.689 15.8421C67.2771 15.3398 66.8251 14.9279 66.3228 14.6266C65.921 14.3855 65.5995 14.2649 65.3685 14.2649H64.1931L64.0927 28.6201H65.7C65.9913 28.6201 66.3328 28.4996 66.7246 28.2585C67.1767 27.9772 67.5885 27.5754 67.9602 27.0631C68.9748 25.7069 69.4671 23.8384 69.4671 21.4676Z" fill="#C2C7CC"/>
<path d="M59.3811 32.9899L59.3711 32.126H63.3291H63.3391H68.2615C68.8341 32.126 69.4469 31.9552 70.1099 31.6036C70.8834 31.1917 71.5766 30.599 72.1893 29.8255C73.7866 27.8365 74.5903 25.0538 74.5903 21.4776C74.5903 18.6045 73.9574 16.2036 72.7017 14.2748C74.53 16.3041 75.4441 19.0566 75.4441 22.5324C75.4441 26.0082 74.6907 28.7205 73.1738 30.6894C72.5811 31.4629 71.9081 32.0557 71.1647 32.4675C70.5117 32.8292 69.8989 33 69.3163 33H59.3811V32.9899ZM65.3784 14.4557C65.5592 14.4557 65.8104 14.5461 66.1218 14.7269C66.4935 14.9379 66.8652 15.2191 67.2067 15.5808C66.8752 15.41 66.614 15.3196 66.4332 15.3196H65.2478L65.1674 28.4493H64.3035L64.3839 14.4456H65.3784V14.4557Z" fill="#C2C7CC"/>
<path d="M79.3288 12.4818C79.1279 12.2708 78.8566 12.1804 78.5251 12.2106L78.1836 11.0251H84.8238L85.0548 12.2106C84.8238 12.2106 84.5927 12.3009 84.3516 12.4717C84.0703 12.6827 83.9598 12.9238 84.0201 13.185L86.6219 25.6014L90.1781 11.0251H91.9662L95.5224 25.6014L98.3754 13.185H98.3653C98.4256 12.9138 98.3151 12.6827 98.0238 12.4717C97.7927 12.3009 97.5617 12.2106 97.3306 12.2106L97.5516 11.0251H103.971L103.609 12.2106C103.288 12.1804 103.016 12.2708 102.805 12.4818C102.715 12.5822 102.635 12.7028 102.554 12.8434C102.524 12.8936 102.504 12.9439 102.474 12.9941C102.454 13.0343 102.444 13.0745 102.434 13.1147L98.6868 29.7904V29.8306V29.8809C98.6767 29.9311 98.6767 29.9914 98.6868 30.0416C98.7169 30.1923 98.7772 30.3128 98.8776 30.4233C99.0685 30.6443 99.2192 30.7548 99.3297 30.7448V31.9301H91.7754L91.7653 30.7448C91.8256 30.7548 91.9662 30.6443 92.1671 30.4233C92.2676 30.3128 92.3279 30.1822 92.348 30.0215C92.358 29.9712 92.358 29.921 92.358 29.8708L92.348 29.8206V29.7804L91.0621 24.3658L89.7763 29.7804L89.7662 29.8206V29.8708C89.7662 29.921 89.7662 29.9813 89.7763 30.0315C89.7964 30.1822 89.8566 30.3028 89.9571 30.4133C90.148 30.6343 90.3087 30.7448 90.4292 30.7347L90.4192 31.9201H82.7945V30.7347C82.905 30.7448 83.0557 30.6343 83.2466 30.4133C83.3471 30.3028 83.4073 30.1722 83.4375 30.0115C83.4475 29.9612 83.4475 29.911 83.4375 29.8607V29.8105L83.4274 29.7703L79.7105 13.1649C79.6703 12.9238 79.5397 12.6927 79.3288 12.4818Z" fill="#C2C7CC"/>
<path d="M90.4264 32.111C90.547 32.111 90.6073 32.0507 90.6073 31.9301L90.6173 30.7447C90.6173 30.6845 90.5972 30.6342 90.5671 30.6041C90.5269 30.5639 90.4867 30.5539 90.4465 30.5539H90.4365H90.4264C90.4064 30.5438 90.3862 30.5338 90.3762 30.5237C90.3059 30.4735 90.2155 30.4032 90.1251 30.3027C90.0547 30.2224 90.0045 30.1219 89.9844 30.0114C89.9744 29.9712 89.9744 29.931 89.9744 29.8908L89.9844 29.8507V29.8205L91.0895 25.1594L91.642 27.5L90.8584 30.8251V30.8653L90.8483 30.9155C90.8483 30.9657 90.8484 31.026 90.8584 31.0763C90.8785 31.2269 90.9388 31.3475 91.0392 31.458C91.2401 31.679 91.4009 31.7794 91.5114 31.7794L91.5013 32.9648H83.8968L83.8867 32.1009H90.4264V32.111ZM85.052 12.3813C85.1123 12.3813 85.1525 12.3612 85.1927 12.311C85.2329 12.2607 85.2429 12.2105 85.2328 12.1603L85.2228 12.0598H85.8657L86.0968 13.2452C85.8657 13.2452 85.6347 13.3356 85.3936 13.5064C85.1123 13.7173 85.0018 13.9585 85.0621 14.2397L86.9808 23.3511L86.6392 24.7575L84.1981 13.1548V13.1247V13.0945C84.1981 13.0443 84.1981 13.0041 84.2082 12.9539C84.2484 12.8133 84.3287 12.7028 84.4593 12.6123C84.5899 12.5219 84.7306 12.4516 84.8712 12.4014C84.9214 12.3913 84.9616 12.3913 84.9917 12.3913L85.0319 12.3813H85.052ZM92.4155 12.0699H93.0182L95.8109 23.532L95.5196 24.7977L92.4155 12.0699ZM103.847 12.0699H105.023L104.661 13.2552C104.34 13.2251 104.068 13.3155 103.857 13.5265C103.767 13.627 103.687 13.7475 103.606 13.8881C103.576 13.9384 103.556 13.9886 103.526 14.0388C103.506 14.079 103.496 14.1192 103.486 14.1594L99.7488 30.8351L99.7388 30.8753V30.9255C99.7388 30.9758 99.7388 31.0361 99.7388 31.0863C99.7689 31.237 99.8292 31.3575 99.9296 31.468C100.12 31.689 100.271 31.7895 100.382 31.7895V32.9749H92.8273L92.8173 32.111H99.3369C99.4575 32.111 99.5177 32.0507 99.5177 31.9301L99.5278 30.7447C99.5278 30.6845 99.5077 30.6342 99.4675 30.6041C99.4274 30.5639 99.3872 30.5539 99.3269 30.5539H99.3169C99.2968 30.5438 99.2767 30.5338 99.2465 30.5237C99.1762 30.4735 99.0958 30.4032 99.0155 30.3027C98.9451 30.2224 98.8949 30.1219 98.8748 30.0114C98.8648 29.9612 98.8648 29.921 98.8648 29.8908V29.8507L98.8748 29.8205L102.612 13.1648C102.622 13.1247 102.632 13.0945 102.652 13.0544C102.672 13.0041 102.692 12.9639 102.722 12.9137C102.783 12.7932 102.863 12.6927 102.943 12.5922C103.044 12.4918 103.184 12.4215 103.355 12.3813C103.405 12.3712 103.466 12.3713 103.516 12.3713H103.586C103.687 12.3813 103.747 12.3411 103.777 12.2507L103.847 12.0699Z" fill="#C2C7CC"/>
<path d="M108.244 15.3899C108.596 13.8629 109.359 12.7077 110.544 11.9342C111.479 11.3214 112.513 11.0099 113.648 11.0099H117.737C118.872 11.0099 119.917 11.3214 120.851 11.9342C122.037 12.7177 122.8 13.873 123.152 15.3899C123.463 16.7862 123.624 18.6547 123.624 20.9953V21.9497C123.624 24.0693 123.463 25.9378 123.152 27.5451C122.85 29.0821 122.087 30.2373 120.881 31.0209C119.937 31.6337 118.892 31.9451 117.737 31.9451H113.648C112.503 31.9451 111.448 31.6337 110.504 31.0209C109.299 30.2373 108.545 29.0821 108.244 27.5451C107.922 25.9378 107.762 24.0693 107.762 21.9497V20.9953C107.762 18.6547 107.922 16.7862 108.244 15.3899ZM118.048 16.4848C117.827 15.0282 117.044 14.2949 115.688 14.2949C114.332 14.2949 113.538 15.0282 113.317 16.4848C113.227 17.0876 113.156 17.9213 113.106 18.9761C113.076 19.7798 113.066 20.6136 113.066 21.4675C113.066 22.3615 113.076 23.2054 113.106 23.999C113.156 25.0236 113.217 25.8474 113.317 26.4702C113.538 27.9168 114.332 28.63 115.688 28.63C117.034 28.63 117.827 27.9067 118.048 26.4702C118.139 25.8574 118.209 25.0337 118.259 23.999C118.3 23.1953 118.31 22.3515 118.31 21.4675C118.31 20.6236 118.29 19.7898 118.259 18.9761C118.209 17.9213 118.149 17.0876 118.048 16.4848Z" fill="#C2C7CC"/>
<path d="M122.626 13.5718C123.399 14.3051 123.922 15.2595 124.193 16.4348C124.504 17.8311 124.665 19.6996 124.665 22.0403V22.9946C124.665 25.1142 124.504 26.9827 124.193 28.59C123.891 30.127 123.128 31.2823 121.922 32.0658C120.988 32.6786 119.933 32.99 118.778 32.99H114.69C114.016 32.99 113.353 32.8695 112.69 32.6284C111.907 32.3471 111.244 31.9252 110.691 31.3626C111.596 31.8649 112.57 32.1161 113.645 32.1161H117.733C118.989 32.1161 120.114 31.7846 121.099 31.1115C122.284 30.2978 123.027 29.1225 123.329 27.5855C123.65 25.9681 123.811 24.0896 123.811 21.9499V20.7745C123.811 18.5745 123.65 16.7563 123.329 15.3499C123.178 14.707 122.947 14.1142 122.626 13.5718ZM113.504 16.5051C113.625 15.7216 113.936 15.159 114.438 14.8275C114.629 14.6969 114.85 14.6065 115.081 14.5563C115.272 14.506 115.473 14.4859 115.684 14.4859C116.026 14.4859 116.327 14.5462 116.608 14.6668C116.99 14.8275 117.291 15.0887 117.502 15.4503C117.261 15.3901 117.01 15.3499 116.729 15.3499C115.373 15.3499 114.579 16.0731 114.358 17.5298C114.268 18.1325 114.197 18.9663 114.147 20.0211C114.117 20.8248 114.107 21.6586 114.107 22.5124C114.107 23.4065 114.117 24.2503 114.147 25.0439C114.197 26.0686 114.258 26.8923 114.358 27.5151C114.398 27.7462 114.448 27.9572 114.519 28.1581C113.956 27.8467 113.615 27.2741 113.484 26.4403C113.384 25.7672 113.313 24.843 113.273 23.6576C113.253 23.2457 113.243 22.8038 113.243 22.3517C113.233 22.191 113.233 22.0202 113.233 21.8394C113.233 21.7088 113.233 21.5882 113.233 21.4677C113.233 20.5636 113.253 19.6996 113.293 18.8659C113.354 17.8613 113.424 17.0777 113.504 16.5051Z" fill="#C2C7CC"/>
<path d="M127.888 15.3899C128.24 13.863 129.004 12.7077 130.189 11.9342C131.123 11.3214 132.158 11.01 133.293 11.01H137.382C138.517 11.01 139.561 11.3214 140.496 11.9342C141.681 12.7178 142.445 13.873 142.796 15.3899C143.108 16.7863 143.268 18.6548 143.268 20.9954V21.9497C143.268 24.0694 143.108 25.9378 142.796 27.5451C142.495 29.0821 141.731 30.2374 140.526 31.021C139.582 31.6337 138.537 31.9451 137.382 31.9451H133.293C132.148 31.9451 131.093 31.6337 130.149 31.021C128.943 30.2374 128.19 29.0821 127.888 27.5451C127.567 25.9378 127.406 24.0694 127.406 21.9497V20.9954C127.406 18.6548 127.567 16.7863 127.888 15.3899ZM137.693 16.4849C137.472 15.0283 136.688 14.2949 135.332 14.2949C133.976 14.2949 133.182 15.0283 132.961 16.4849C132.871 17.0876 132.801 17.9214 132.751 18.9762C132.72 19.7799 132.71 20.6137 132.71 21.4675C132.71 22.3616 132.72 23.2054 132.751 23.999C132.801 25.0237 132.861 25.8475 132.961 26.4703C133.182 27.9169 133.976 28.6301 135.332 28.6301C136.678 28.6301 137.472 27.9068 137.693 26.4703C137.783 25.8575 137.854 25.0337 137.904 23.999C137.944 23.1954 137.954 22.3516 137.954 21.4675C137.954 20.6237 137.934 19.7899 137.904 18.9762C137.854 17.9214 137.793 17.0876 137.693 16.4849Z" fill="#C2C7CC"/>
<path d="M142.274 13.5718C143.048 14.3051 143.57 15.2595 143.841 16.4348C144.153 17.8311 144.313 19.6996 144.313 22.0403V22.9946C144.313 25.1142 144.153 26.9827 143.841 28.59C143.54 30.127 142.776 31.2823 141.571 32.0658C140.637 32.6786 139.582 32.99 138.427 32.99H134.338C133.665 32.99 133.002 32.8695 132.339 32.6284C131.555 32.3471 130.892 31.9252 130.34 31.3626C131.244 31.8649 132.218 32.1161 133.293 32.1161H137.382C138.638 32.1161 139.763 31.7846 140.747 31.1115C141.933 30.2978 142.676 29.1225 142.977 27.5855C143.299 25.9681 143.459 24.0896 143.459 21.9499V20.7745C143.459 18.5745 143.299 16.7563 142.977 15.3499C142.827 14.707 142.596 14.1142 142.274 13.5718ZM133.153 16.5051C133.273 15.7216 133.585 15.159 134.087 14.8275C134.278 14.6969 134.499 14.6065 134.73 14.5563C134.921 14.506 135.122 14.4859 135.333 14.4859C135.674 14.4859 135.975 14.5462 136.257 14.6668C136.638 14.8275 136.94 15.0887 137.151 15.4503C136.91 15.3901 136.659 15.3499 136.377 15.3499C135.021 15.3499 134.228 16.0731 134.007 17.5298C133.916 18.1325 133.846 18.9663 133.796 20.0211C133.765 20.8248 133.755 21.6586 133.755 22.5124C133.755 23.4065 133.765 24.2503 133.796 25.0439C133.846 26.0686 133.906 26.8923 134.007 27.5151C134.047 27.7462 134.097 27.9572 134.167 28.1581C133.605 27.8467 133.263 27.2741 133.133 26.4403C133.032 25.7672 132.962 24.843 132.922 23.6576C132.901 23.2457 132.891 22.8038 132.891 22.3517C132.881 22.191 132.881 22.0202 132.881 21.8394C132.881 21.7088 132.881 21.5882 132.881 21.4677C132.881 20.5636 132.901 19.6996 132.942 18.8659C133.002 17.8613 133.072 17.0777 133.153 16.5051Z" fill="#C2C7CC"/>
<path d="M147.975 12.4868C147.744 12.2658 147.433 12.1654 147.051 12.1955L147.061 11.0101L156.514 11.0001C157.006 11.0001 157.599 11.1809 158.282 11.5526C159.085 11.9745 159.809 12.5672 160.472 13.3307C162.24 15.3498 163.114 18.0622 163.114 21.4777C163.114 24.9535 162.36 27.6658 160.843 29.6348C160.251 30.4083 159.578 31.001 158.834 31.4128C158.181 31.7745 157.569 31.9453 156.986 31.9453H152.064H147.061L147.051 30.7599C147.433 30.79 147.744 30.6896 147.975 30.4585C148.035 30.3982 148.096 30.3179 148.136 30.2375L148.246 13.1097C148.246 13.0594 148.246 13.0192 148.236 12.9891C148.226 12.9288 148.216 12.8786 148.196 12.8384C148.146 12.7078 148.126 12.6476 148.126 12.6476C148.126 12.6476 148.075 12.5873 147.975 12.4868ZM158.201 21.4676C158.201 19.1471 157.609 17.2686 156.423 15.8421C156.011 15.3398 155.559 14.9279 155.057 14.6266C154.655 14.3855 154.334 14.2649 154.103 14.2649H152.927L152.827 28.6201H154.434C154.726 28.6201 155.067 28.4996 155.459 28.2585C155.911 27.9772 156.323 27.5754 156.695 27.0631C157.709 25.7069 158.201 23.8384 158.201 21.4676Z" fill="#C2C7CC"/>
<path d="M148.116 32.9899L148.105 32.126H152.063H152.074H156.996C157.568 32.126 158.181 31.9552 158.844 31.6036C159.618 31.1917 160.311 30.599 160.924 29.8255C162.521 27.8365 163.325 25.0538 163.325 21.4776C163.325 18.6045 162.692 16.2036 161.436 14.2748C163.264 16.3041 164.179 19.0566 164.179 22.5324C164.179 26.0082 163.425 28.7205 161.908 30.6894C161.316 31.4629 160.642 32.0557 159.899 32.4675C159.246 32.8292 158.633 33 158.051 33H148.116V32.9899ZM154.113 14.4557C154.294 14.4557 154.545 14.5461 154.856 14.7269C155.228 14.9379 155.6 15.2191 155.941 15.5808C155.61 15.41 155.348 15.3196 155.168 15.3196H153.982L153.902 28.4493H153.038L153.118 14.4456H154.113V14.4557Z" fill="#C2C7CC"/>
</svg>
