<svg width="78" height="44" viewBox="0 0 78 44" fill="none" xmlns="http://www.w3.org/2000/svg">
<path d="M21.1685 30.924L19.3364 23.5567H19.3034L17.5073 30.924H15.0914L12.2266 20.1021H14.6214L16.3188 27.4693H16.3488L18.2287 20.1021H20.456L22.306 27.5592H22.336L24.1082 20.1021H26.4432L23.5334 30.924H21.1685ZM29.7781 20.1021V30.924H27.3982V20.1021H29.7781ZM37.5674 20.1021C38.0157 20.0949 38.4611 20.1752 38.8786 20.3386C39.2514 20.4845 39.5913 20.7033 39.8785 20.9822C40.1541 21.2501 40.3712 21.5722 40.5161 21.9282C40.664 22.2964 40.7382 22.69 40.7347 23.0867C40.7493 23.6633 40.6109 24.2335 40.3335 24.7392C40.0325 25.2344 39.5691 25.61 39.0223 25.8019V25.8318C39.2898 25.8988 39.5386 26.0257 39.7498 26.2031C39.9425 26.3714 40.1019 26.5745 40.2198 26.8018C40.3444 27.038 40.4342 27.2911 40.4862 27.5532C40.5402 27.8231 40.5782 28.096 40.5999 28.3704C40.5999 28.544 40.6179 28.7446 40.6299 28.9691C40.6419 29.1937 40.6568 29.4391 40.6808 29.6816C40.7048 29.9138 40.7458 30.1439 40.8035 30.3701C40.8495 30.5692 40.9339 30.7573 41.052 30.924H38.6751C38.5333 30.5293 38.4515 30.1155 38.4326 29.6966C38.3996 29.2206 38.3547 28.7656 38.2949 28.3315C38.2607 27.8729 38.0803 27.4374 37.78 27.0892C37.4199 26.7926 36.9571 26.6506 36.4927 26.694H34.0978V30.924H31.703V20.1021H37.5674ZM36.7202 24.9966C37.16 25.0307 37.5968 24.9017 37.9476 24.6344C38.0979 24.476 38.2121 24.287 38.2824 24.0803C38.3527 23.8736 38.3774 23.6541 38.3547 23.437C38.374 23.2282 38.3476 23.0178 38.2773 22.8203C38.207 22.6228 38.0945 22.443 37.9476 22.2934C37.595 22.0302 37.159 21.9036 36.7202 21.9372H34.1128V24.9966H36.7202ZM44.6084 20.1021V24.5925L48.8383 20.1021H51.808L47.584 24.377L52.2241 30.924H49.2305L45.9795 26.0594L44.6084 27.4364V30.924H42.2135V20.1021H44.6084ZM60.8307 20.1021V22.1018H55.1189V24.4219H60.3607V26.2719H55.1189V28.9242H60.9535V30.924H52.739V20.1021H60.8307ZM64.7883 20.1021L69.3026 27.3616H69.3326V20.1021H71.5508V30.924H69.1709L64.6805 23.6794H64.6655V30.924H62.4383V20.1021H64.7883ZM21.1685 15.7254L19.3364 8.36117H19.3034L17.5073 15.7254H15.0914L12.2266 4.90355H14.6214L16.3188 12.2738H16.3488L18.2287 4.90655H20.456L22.306 12.3606H22.336L24.1082 4.90355H26.4432L23.5334 15.7254H21.1685ZM29.7781 4.90355V15.7254H27.3982V4.90355H29.7781ZM37.5674 4.90355C38.0156 4.89776 38.4607 4.97805 38.8786 5.14005C39.2514 5.28593 39.5913 5.50475 39.8785 5.78367C40.1542 6.05264 40.3713 6.37574 40.5161 6.73264C40.6643 7.10074 40.7385 7.4944 40.7347 7.89117C40.7489 8.46772 40.6105 9.03779 40.3335 9.54364C40.0314 10.0372 39.5683 10.4115 39.0223 10.6034V10.6333C39.2894 10.7015 39.5378 10.8283 39.7498 11.0045C39.9423 11.1731 40.1017 11.3762 40.2198 11.6032C40.3444 11.8385 40.4342 12.0906 40.4862 12.3516C40.5402 12.6226 40.5782 12.8965 40.5999 13.1719C40.5999 13.3425 40.6179 13.5461 40.6299 13.7706C40.6419 13.9951 40.6568 14.2406 40.6808 14.4831C40.7051 14.7162 40.7461 14.9473 40.8035 15.1746C40.8495 15.3727 40.9339 15.5599 41.052 15.7254H38.6751C38.5326 15.3309 38.4509 14.9171 38.4326 14.4981C38.3996 14.0251 38.3547 13.57 38.2949 13.136C38.2608 12.6765 38.0803 12.24 37.78 11.8906C37.4179 11.598 36.9564 11.4574 36.4927 11.4985H34.0978V15.7254H31.703V4.90355H37.5674ZM36.7202 9.80109C37.1603 9.83428 37.5973 9.70427 37.9476 9.43587C38.0967 9.27979 38.2103 9.0933 38.2806 8.88919C38.3509 8.68508 38.3762 8.46819 38.3547 8.2534C38.3738 8.04467 38.3473 7.83428 38.277 7.63682C38.2067 7.43937 38.0943 7.25955 37.9476 7.10984C37.5944 6.84786 37.1588 6.72144 36.7202 6.7536H34.1128V9.80109H36.7202Z" fill="#C2C7CC"/>
<path d="M5.46094 15.7255V39.827H25.7815V38.411H6.87991V15.7255H5.46094Z" fill="#C2C7CC"/>
</svg>
