<svg width="168" height="44" viewBox="0 0 168 44" fill="none" xmlns="http://www.w3.org/2000/svg">
<path d="M0.562645 27.8611C0.412606 27.8611 0.281322 27.8334 0.168793 27.7778C0.0562645 27.7037 0 27.6019 0 27.4722C0 27.176 0.196926 26.9815 0.590777 26.8889C1.30346 26.7408 1.80046 26.5556 2.08179 26.3334C2.36311 26.0926 2.50377 25.676 2.50377 25.0834V12.4722C2.50377 11.8797 2.38186 11.463 2.13805 11.2222C1.89424 10.963 1.39723 10.75 0.647041 10.5834C0.25319 10.4908 0.0562645 10.2963 0.0562645 10C0.0562645 9.8704 0.112529 9.76854 0.225058 9.69447C0.337587 9.6204 0.468871 9.58336 0.618909 9.58336C1.05027 9.58336 1.50039 9.59262 1.96926 9.61114C2.45688 9.62966 2.92575 9.65743 3.37587 9.69447C3.84474 9.71299 4.2761 9.72225 4.66995 9.72225C5.04505 9.72225 5.46703 9.71299 5.9359 9.69447C6.42353 9.67595 6.91115 9.65743 7.39878 9.63891C7.90516 9.6204 8.36465 9.61114 8.77726 9.61114C8.94605 9.61114 9.07733 9.64817 9.17111 9.72225C9.26488 9.7778 9.31177 9.8704 9.31177 10C9.31177 10.1852 9.2555 10.3148 9.14298 10.3889C9.0492 10.463 8.89916 10.5278 8.69286 10.5834C7.94267 10.7871 7.44566 11.0185 7.20185 11.2778C6.95804 11.5185 6.83613 11.926 6.83613 12.5V25.0556C6.83613 25.5926 6.96742 25.9908 7.22998 26.25C7.51131 26.4908 8.01769 26.7037 8.74912 26.8889C8.93667 26.9445 9.07733 27.0093 9.17111 27.0834C9.28364 27.1574 9.3399 27.2778 9.3399 27.4445C9.3399 27.5741 9.29301 27.676 9.19924 27.75C9.12422 27.8241 9.00231 27.8611 8.83352 27.8611C8.42091 27.8611 7.96142 27.8426 7.45504 27.8056C6.94866 27.7871 6.45166 27.7685 5.96403 27.75C5.47641 27.7315 5.04505 27.7222 4.66995 27.7222C4.2761 27.7222 3.84474 27.7315 3.37587 27.75C2.907 27.7685 2.42875 27.7871 1.94112 27.8056C1.4535 27.8426 0.994006 27.8611 0.562645 27.8611Z" fill="#D2DBDE"/>
<path d="M30.3057 34.6667C29.1991 34.6667 28.0457 34.4722 26.8454 34.0834C25.6638 33.713 24.5854 33.1945 23.6102 32.5278C22.9163 32.0278 22.2786 31.5648 21.6972 31.1389C21.1346 30.7315 20.525 30.2315 19.8686 29.6389C19.4748 29.3056 19.0153 28.9259 18.4901 28.5C17.9837 28.0741 17.3742 27.7315 16.6615 27.4722C16.0426 27.25 15.3768 26.9259 14.6641 26.5C13.9702 26.0741 13.3138 25.5278 12.6949 24.8611C12.0947 24.1945 11.5977 23.3797 11.2039 22.4167C10.81 21.4537 10.6131 20.3241 10.6131 19.0278C10.6131 17.7685 10.8194 16.5648 11.232 15.4167C11.6634 14.25 12.301 13.213 13.145 12.3056C13.989 11.3982 15.0299 10.676 16.2677 10.1389C17.5243 9.60188 18.9684 9.33336 20.6 9.33336C21.9129 9.33336 23.1507 9.55558 24.3135 10C25.4951 10.426 26.5359 11.0463 27.4362 11.8611C28.3364 12.6574 29.0491 13.6204 29.5742 14.75C30.0994 15.8611 30.3619 17.1019 30.3619 18.4722C30.3619 19.75 30.1369 20.9815 29.6868 22.1667C29.2554 23.3334 28.599 24.3797 27.7175 25.3056C26.836 26.213 25.7482 26.9167 24.4542 27.4167C24.2479 27.4722 24.1447 27.5741 24.1447 27.7222C24.1447 27.8148 24.1916 27.8982 24.2854 27.9722C24.7355 28.3982 25.1762 28.8056 25.6076 29.1945C26.0577 29.5834 26.6297 30.0648 27.3236 30.6389C28.2614 31.3611 29.1241 31.8797 29.9118 32.1945C30.6995 32.5093 31.4872 32.6667 32.2749 32.6667C32.4812 32.6667 32.6688 32.6574 32.8376 32.6389C33.0064 32.6389 33.147 32.6297 33.2596 32.6111C33.3721 32.5741 33.4752 32.5463 33.569 32.5278C33.6815 32.5278 33.7941 32.5278 33.9066 32.5278C34.413 32.5278 34.6662 32.713 34.6662 33.0834C34.6662 33.25 34.6193 33.3889 34.5255 33.5C34.4505 33.6297 34.3098 33.7593 34.1035 33.8889C33.7097 34.1482 33.1845 34.3426 32.5281 34.4722C31.8717 34.6019 31.1309 34.6667 30.3057 34.6667ZM20.8532 26.8334C22.4662 26.8334 23.6758 26.213 24.4823 24.9722C25.2888 23.7315 25.692 22.0371 25.692 19.8889C25.692 18.7222 25.5795 17.5926 25.3544 16.5C25.1481 15.3889 24.8105 14.4074 24.3416 13.5556C23.8915 12.6852 23.3101 12 22.5974 11.5C21.8848 10.9815 21.0408 10.7222 20.0655 10.7222C18.4714 10.7222 17.2711 11.3426 16.4646 12.5834C15.6582 13.8056 15.2549 15.4722 15.2549 17.5834C15.2549 18.7685 15.3675 19.9167 15.5925 21.0278C15.8176 22.1204 16.1552 23.1019 16.6053 23.9722C17.0554 24.8426 17.6274 25.5371 18.3213 26.0556C19.034 26.5741 19.878 26.8334 20.8532 26.8334Z" fill="#D2DBDE"/>
<path d="M46.5604 10.8254C47.0634 10.8254 47.5105 10.3169 47.5105 9.69526C47.5105 8.22603 45.806 8 44.4368 8C42.0058 8 38.2895 10.0626 38.2895 16.5893C37.7307 16.8718 37.4792 17.0979 36.6409 17.3239C36.585 17.3522 36.4453 17.4087 36.4453 17.4934C36.4453 17.6912 36.7247 17.9738 36.8365 18.002C37.4233 18.0585 37.9263 18.0585 38.2895 18.0585V26.0262C38.2895 26.7891 37.6468 27.0999 37.088 27.2694C36.7806 27.3824 36.4453 27.4955 36.4453 27.778C36.4453 28.004 36.7806 28.0323 37.0042 28.0323C38.1219 28.0323 38.3454 27.891 39.3234 27.891C40.3014 27.891 40.4131 28.0323 41.5308 28.0323C41.7544 28.0323 42.0897 28.004 42.0897 27.778C42.0897 27.4955 41.7544 27.3824 41.447 27.2694C40.8881 27.0999 40.2455 26.7608 40.2455 26.0262V18.4823C40.2455 18.1998 40.3572 18.002 41.3632 18.002H44.0456C44.2412 18.002 44.4089 17.3522 44.4089 16.9566C44.4089 16.7871 44.3809 16.6458 44.2971 16.6458H40.944C40.5808 16.6458 40.2455 16.5328 40.2455 16.0242V14.5267C40.2455 10.7124 41.5308 9.15843 43.2632 9.15843C45.4148 9.15843 45.806 10.8254 46.5604 10.8254Z" fill="#C2C7CC"/>
<path d="M53.5172 27.0434C52.7069 27.0434 52.5113 25.9697 52.5113 24.8678L52.651 18.7649C52.6789 17.3804 51.673 16.2503 50.3597 16.2503C48.8788 16.2503 47.0625 17.4652 46.1963 18.2563C45.4977 18.8779 45.0786 19.6125 45.0786 20.2059C45.0786 20.2906 45.1345 20.4601 45.3021 20.4601C45.6654 20.4601 47.2302 19.8668 47.2302 19.4712C47.2302 19.33 47.2022 19.217 47.2022 19.0757C47.2022 18.8779 47.2302 18.6801 47.314 18.5388C47.5375 18.1433 48.3479 17.6347 49.0185 17.6347C50.0244 17.6347 50.695 18.4823 50.6671 19.443L50.6112 21.2513C50.5832 22.0141 50.5553 22.0706 49.8288 22.3814L46.9787 23.5681C45.6095 24.1332 44.9389 24.9243 44.9389 26.111C44.9389 27.2129 46.1963 28.3431 47.3419 28.3431C49.6332 28.3148 50.4156 26.8739 50.7788 26.8739C51.0024 26.8739 51.2539 28.3431 52.8466 28.3431C53.9084 28.3431 55.082 27.1282 55.082 26.9021C55.082 26.6761 54.8025 26.4783 54.6349 26.6478C54.3275 26.9304 54.0201 27.0434 53.5172 27.0434ZM47.1743 25.4894C47.1743 24.8396 47.817 23.9919 49.9685 23.2573C50.1082 23.2008 50.2759 23.1726 50.3597 23.1726C50.5832 23.1726 50.6391 23.3421 50.6112 23.7659L50.5553 25.1504C50.5274 25.8567 50.4156 26.111 50.22 26.2805C49.7729 26.6761 49.27 27.0434 48.5435 27.0434C48.0126 27.0434 47.1743 26.5631 47.1743 25.4894Z" fill="#C2C7CC"/>
<path d="M56.9657 11.9839C56.9657 12.775 57.5804 13.3966 58.3628 13.3966C59.1731 13.3966 59.7878 12.775 59.7878 11.9839C59.7878 11.1645 59.1731 10.5429 58.3628 10.5429C57.5804 10.5429 56.9657 11.1645 56.9657 11.9839ZM59.6481 15.6852C59.4246 15.6852 58.1672 16.8436 56.295 17.2957C56.1833 17.3239 56.0994 17.4934 56.0994 17.6347C56.0994 17.8042 56.1833 17.9738 56.323 18.002C57.273 18.1998 57.6363 19.0474 57.6363 20.0646V26.1958C57.6363 26.9586 56.9936 27.0999 56.4348 27.2694C56.1274 27.3824 55.7921 27.4955 55.7921 27.778C55.7921 28.004 56.1274 28.0323 56.3509 28.0323C57.4407 28.0323 57.6363 27.891 58.6143 27.891C59.5922 27.891 59.8158 28.0323 60.8776 28.0323C61.1291 28.0323 61.4364 28.004 61.4364 27.778C61.4364 27.4955 61.1011 27.3824 60.7938 27.2694C60.2349 27.0999 59.5922 26.9586 59.5922 26.1958V19.6408C59.5922 18.3693 59.7319 16.9849 59.8437 15.8264C59.8437 15.7417 59.7599 15.6852 59.6481 15.6852Z" fill="#C2C7CC"/>
<path d="M66.4414 20.4884C66.4414 18.5954 67.5032 18.115 68.3973 18.115C68.9562 18.115 69.5989 18.6236 70.0739 18.6236C70.6327 18.6236 71.1636 17.7195 71.1636 17.1544C71.1636 16.6458 70.6048 16.2503 69.8224 16.2503C69.1518 16.2503 68.1179 16.6741 67.2517 17.4652C67.0561 17.6347 66.6929 18.1715 66.5811 18.1715C66.5531 18.1715 66.5531 18.1715 66.5531 18.115C66.609 17.2109 66.637 16.1937 66.637 15.996C66.609 15.9112 66.5531 15.7982 66.4693 15.7982C66.4414 15.7982 66.4414 15.8264 66.4134 15.8264C65.659 16.2785 64.7369 17.0414 63.3118 17.3804C63.2001 17.4087 63.0604 17.5499 63.0604 17.7195C63.0604 17.889 63.2001 18.0585 63.3398 18.0868C64.2619 18.2846 64.4854 19.1039 64.4854 20.1211V26.1958C64.4575 26.9586 63.9825 27.0999 63.4236 27.2694C63.1162 27.3824 62.7809 27.4955 62.7809 27.778C62.7809 28.004 63.1442 28.0323 63.3398 28.0323C64.4575 28.0323 64.6251 27.891 65.6031 27.891C66.5811 27.891 66.9164 28.0323 68.0341 28.0323C68.2297 28.0323 68.5929 28.004 68.5929 27.778C68.5929 27.4955 68.2576 27.3824 67.9503 27.2694C67.3914 27.0999 66.4693 26.8174 66.4414 26.0545V20.4884Z" fill="#C2C7CC"/>
<path d="M78.9591 27.4672C77.7296 27.4672 76.7796 27.1564 76.3605 26.7608C75.8296 26.2523 75.7178 25.2069 75.6898 24.6983C75.6619 24.1049 75.634 23.116 75.634 22.1554C75.634 21.4773 75.6619 20.8274 75.6619 20.3471C75.7178 19.1887 75.9693 18.6519 76.3884 18.3411C77.087 17.8042 77.8414 17.5217 78.7914 17.5217C79.993 17.5217 82.5916 18.1433 82.5916 22.4944C82.5916 26.2805 80.0488 27.4672 78.9591 27.4672ZM73.678 34.1635C73.678 34.9263 73.0353 35.0676 72.4765 35.2371C72.1691 35.3501 71.8338 35.4632 71.8338 35.7457C71.8338 35.9717 72.225 36 72.4206 36C73.5103 36 73.678 35.8587 74.656 35.8587C75.634 35.8587 76.1928 36 77.2826 36C77.5061 36 77.8973 35.9717 77.8973 35.7457C77.8973 35.4632 77.562 35.3501 77.2546 35.2371C76.6958 35.0676 75.634 34.9263 75.634 34.1635V28.8799C75.634 28.7104 75.6619 27.4389 75.7457 27.4389C76.3046 27.9475 77.7576 28.3431 78.54 28.3431C82.0607 28.3431 84.827 24.9526 84.827 21.5903C84.827 18.9344 83.1225 16.2503 80.2444 16.2503C78.4841 16.2503 76.2487 17.5782 75.7178 18.115C75.6898 18.0868 75.6898 17.9738 75.6898 17.8607C75.6898 17.4087 75.8296 16.5045 75.8296 16.1655C75.8296 16.0525 75.7457 15.9112 75.6619 15.9112C75.634 15.9112 75.634 15.9395 75.606 15.9395C74.7119 16.3068 73.7898 16.7306 72.3647 17.0696C72.2529 17.0979 72.1691 17.2392 72.1691 17.4087C72.1691 17.5782 72.2529 17.7477 72.3927 17.776C73.3147 17.9738 73.678 19.4147 73.678 19.8385V34.1635Z" fill="#C2C7CC"/>
<path d="M90.2633 20.4884C90.2633 18.5954 91.3251 18.115 92.2192 18.115C92.7781 18.115 93.4208 18.6236 93.8958 18.6236C94.4546 18.6236 94.9855 17.7195 94.9855 17.1544C94.9855 16.6458 94.4267 16.2503 93.6443 16.2503C92.9737 16.2503 91.9398 16.6741 91.0736 17.4652C90.878 17.6347 90.5148 18.1715 90.403 18.1715C90.3751 18.1715 90.375 18.1715 90.375 18.115C90.4309 17.2109 90.4589 16.1937 90.4589 15.996C90.4309 15.9112 90.3751 15.7982 90.2912 15.7982C90.2633 15.7982 90.2633 15.8264 90.2353 15.8264C89.4809 16.2785 88.5588 17.0414 87.1337 17.3804C87.022 17.4087 86.8823 17.5499 86.8823 17.7195C86.8823 17.889 87.022 18.0585 87.1617 18.0868C88.0838 18.2846 88.3073 19.1039 88.3073 20.1211V26.1958C88.2794 26.9586 87.8044 27.0999 87.2455 27.2694C86.9381 27.3824 86.6028 27.4955 86.6028 27.778C86.6028 28.004 86.9661 28.0323 87.1617 28.0323C88.2794 28.0323 88.447 27.891 89.425 27.891C90.403 27.891 90.7383 28.0323 91.856 28.0323C92.0516 28.0323 92.4148 28.004 92.4148 27.778C92.4148 27.4955 92.0795 27.3824 91.7722 27.2694C91.2133 27.0999 90.2912 26.8174 90.2633 26.0545V20.4884Z" fill="#C2C7CC"/>
<path d="M102.222 16.2503C98.7852 16.2503 96.1028 19.5277 96.1028 22.664C96.1028 25.9697 98.5338 28.3431 101.663 28.3431C105.855 28.3431 107.978 25.2351 107.978 21.9294C107.978 18.8779 105.463 16.2503 102.222 16.2503ZM101.747 17.1261C104.122 17.1261 105.687 19.9233 105.687 22.6075C105.687 23.7094 105.575 25.0656 105.128 25.9415C104.569 27.0434 103.507 27.4955 102.25 27.4955C100.015 27.4955 98.3941 24.8113 98.3941 22.0141C98.3941 20.6579 98.5338 19.217 99.2882 18.2563C99.9588 17.3804 100.741 17.1261 101.747 17.1261Z" fill="#C2C7CC"/>
<path d="M116.252 17.9738C117.035 17.9738 119.466 18.0868 119.466 18.0868V16.6458C119.242 16.7588 118.404 16.8436 117.398 16.8436C116.364 16.8436 115.163 16.7588 114.129 16.6458C113.766 16.5893 113.43 16.5328 113.43 16.0807V14.5267C113.43 10.7124 115.219 9.13017 117.007 9.13017C118.711 9.13017 119.27 10.3169 119.55 10.9384C119.606 11.0797 119.801 11.1362 120.053 11.1362C120.667 11.1362 121.645 10.7407 121.757 10.4299C121.813 10.2038 121.869 10.0061 121.869 9.83653C121.869 8.42381 119.885 8 118.236 8C115.805 8 111.474 9.80827 111.474 16.5893C110.915 16.8436 110.664 17.0979 109.826 17.3239C109.602 17.3804 109.854 17.9738 110.021 18.002C110.608 18.0585 111.083 18.0585 111.474 18.0585V26.0262C111.474 26.8456 110.832 27.0999 110.273 27.2694C109.965 27.3824 109.63 27.4955 109.63 27.778C109.63 28.004 109.993 28.0323 110.189 28.0323C111.307 28.0323 111.474 27.891 112.452 27.891C113.43 27.891 113.598 28.0323 114.716 28.0323C114.911 28.0323 115.274 28.004 115.274 27.778C115.274 27.4955 114.939 27.3824 114.632 27.2694C114.073 27.0999 113.43 26.8456 113.43 26.0262V18.5671C113.43 18.2281 113.458 18.0585 114.548 18.002C115.051 17.9738 115.694 17.9738 116.252 17.9738Z" fill="#C2C7CC"/>
<path d="M121.127 15.6852C120.903 15.6852 119.646 16.8436 117.774 17.2957C117.662 17.3239 117.578 17.4934 117.578 17.6347C117.578 17.8042 117.662 17.9738 117.802 18.002C118.752 18.1998 119.115 19.0474 119.115 20.0646V26.1958C119.115 26.9586 118.472 27.0999 117.913 27.2694C117.606 27.3824 117.271 27.4955 117.271 27.778C117.271 28.004 117.606 28.0323 117.829 28.0323C118.919 28.0323 119.115 27.891 120.093 27.891C121.071 27.891 121.294 28.0323 122.356 28.0323C122.608 28.0323 122.915 28.004 122.915 27.778C122.915 27.4955 122.58 27.3824 122.272 27.2694C121.713 27.0999 121.071 26.9586 121.071 26.1958V19.6408C121.071 18.3693 121.21 16.9849 121.322 15.8264C121.322 15.7417 121.238 15.6852 121.127 15.6852Z" fill="#C2C7CC"/>
<path d="M128.73 28.3431C130.435 28.3431 131.999 26.9304 131.999 26.6196C131.999 26.3935 131.888 26.1393 131.72 26.2523C131.273 26.5913 130.714 26.7891 129.624 26.7891C128.758 26.7891 127.78 26.224 127.78 24.1332V18.7931C127.78 18.0303 127.948 18.002 128.898 18.002H131.664C131.804 18.002 131.944 17.663 131.944 17.3239C131.944 16.9849 131.804 16.6458 131.664 16.6458H128.479C128.116 16.6458 127.724 16.5045 127.78 16.2503L128.004 15.0071C128.032 14.7528 127.696 14.7245 127.529 14.7245C127.249 14.7245 126.048 16.8153 124.567 17.2392C124.511 17.2674 124.427 17.3522 124.427 17.4369C124.427 17.6347 124.651 18.002 124.762 18.002C125.629 18.002 125.824 18.0868 125.824 18.4258V24.9808C125.824 27.3259 126.998 28.3431 128.73 28.3431Z" fill="#C2C7CC"/>
<path d="M143.897 17.7779C148.351 17.7779 151.995 20.6497 151.995 24.1952C151.995 27.7408 148.351 30.6126 143.897 30.6126C142.893 30.6126 141.929 30.4682 141.038 30.2115C138.673 32.2169 133.773 34.2223 133.773 34.2223C135.66 32.3533 137.985 29.0885 138.025 28.6072C136.648 27.4601 135.798 25.9039 135.798 24.1952C135.798 20.6497 139.442 17.7779 143.897 17.7779Z" fill="#C2C7CC"/>
<path fill-rule="evenodd" clip-rule="evenodd" d="M144 16.2612C145.271 12.5218 149.484 9.77777 154.449 9.77777C160.411 9.77777 165.289 13.7361 165.289 18.6233C165.289 20.9784 164.151 23.1235 162.308 24.7046C162.362 25.368 165.474 29.8682 168 32.4444C168 32.4444 161.441 29.6802 158.275 26.916C157.083 27.2698 155.793 27.4689 154.449 27.4689C154.011 27.4689 153.58 27.4476 153.156 27.4062C153.592 26.4814 153.837 25.4549 153.837 24.3492C153.837 19.5562 149.243 16.254 144.395 16.254C144.263 16.254 144.131 16.2564 144 16.2612Z" fill="#D2DBDE"/>
</svg>
