<svg width="123" height="42" viewBox="0 0 123 42" fill="none" xmlns="http://www.w3.org/2000/svg">
<path d="M6.02452 28.4458C6.02452 29.0067 6.0746 29.4174 6.17476 29.6778C6.29496 29.9382 6.50531 30.1185 6.8058 30.2187C7.12633 30.2988 7.62716 30.3389 8.30828 30.3389H11.193C12.395 30.3389 13.3766 29.9783 14.1379 29.2571C14.9192 28.5159 15.43 27.5143 15.6704 26.2522C15.6704 26.1921 15.7205 26.172 15.8207 26.1921C15.9409 26.1921 16.001 26.2221 16.001 26.2822C15.8207 27.985 15.7305 29.4074 15.7305 30.5493C15.7305 30.7095 15.7005 30.8297 15.6404 30.9099C15.5803 30.97 15.4601 31 15.2798 31H1.33678C1.29672 31 1.27668 30.9399 1.27668 30.8197C1.27668 30.6995 1.29672 30.6394 1.33678 30.6394C2.07801 30.6394 2.6189 30.5893 2.95946 30.4892C3.30002 30.389 3.5304 30.1987 3.6506 29.9182C3.7708 29.6177 3.8309 29.167 3.8309 28.566V14.653C3.8309 14.052 3.7708 13.6113 3.6506 13.3309C3.5304 13.0504 3.30002 12.8601 2.95946 12.7599C2.6189 12.6397 2.07801 12.5796 1.33678 12.5796C1.29672 12.5796 1.27668 12.5195 1.27668 12.3993C1.27668 12.2791 1.29672 12.219 1.33678 12.219L2.83926 12.2491C3.68065 12.2891 4.37179 12.3092 4.91268 12.3092C5.49364 12.3092 6.20481 12.2891 7.0462 12.2491L8.51863 12.219C8.55869 12.219 8.57873 12.2791 8.57873 12.3993C8.57873 12.5195 8.55869 12.5796 8.51863 12.5796C7.79744 12.5796 7.25655 12.6397 6.89595 12.7599C6.55539 12.8601 6.32501 13.0604 6.20481 13.3609C6.08461 13.6414 6.02452 14.0821 6.02452 14.6831V28.4458ZM35.0871 15.6146C35.0871 14.613 34.8568 13.8617 34.396 13.3609C33.9553 12.84 33.3042 12.5796 32.4428 12.5796C32.3827 12.5796 32.3526 12.5195 32.3526 12.3993C32.3526 12.2791 32.3827 12.219 32.4428 12.219L33.765 12.2491C34.4461 12.2891 35.017 12.3092 35.4778 12.3092C35.8584 12.3092 36.3693 12.2891 37.0103 12.2491L38.2724 12.219C38.3125 12.219 38.3325 12.2791 38.3325 12.3993C38.3325 12.5195 38.3125 12.5796 38.2724 12.5796C37.4711 12.5796 36.8701 12.84 36.4694 13.3609C36.0688 13.8617 35.8684 14.613 35.8684 15.6146V24.1186C35.8684 26.3824 35.2174 28.1653 33.9152 29.4675C32.6131 30.7496 30.8702 31.3906 28.6866 31.3906C27.2041 31.3906 25.902 31.1002 24.7801 30.5192C23.6783 29.9382 22.8169 29.1169 22.1959 28.0551C21.5748 26.9734 21.2643 25.7113 21.2643 24.2689V14.653C21.2643 14.052 21.2042 13.6113 21.084 13.3309C20.9638 13.0504 20.7335 12.8601 20.3929 12.7599C20.0523 12.6397 19.5114 12.5796 18.7702 12.5796C18.7302 12.5796 18.7101 12.5195 18.7101 12.3993C18.7101 12.2791 18.7302 12.219 18.7702 12.219L20.2727 12.2491C21.1542 12.2891 21.8453 12.3092 22.3461 12.3092C22.907 12.3092 23.6282 12.2891 24.5097 12.2491L25.922 12.219C25.9821 12.219 26.0122 12.2791 26.0122 12.3993C26.0122 12.5195 25.9821 12.5796 25.922 12.5796C25.2008 12.5796 24.67 12.6397 24.3294 12.7599C23.9888 12.8801 23.7585 13.0905 23.6383 13.391C23.5181 13.6714 23.458 14.1121 23.458 14.7131V23.2172C23.458 25.5811 23.9788 27.384 25.0205 28.6261C26.0623 29.8481 27.5347 30.4591 29.4378 30.4591C31.2208 30.4591 32.603 29.9082 33.5847 28.8064C34.5863 27.6845 35.0871 26.132 35.0871 24.1487V15.6146ZM52.853 11.8885C54.055 11.8885 55.0867 11.9786 55.9481 12.1589C56.8296 12.3192 57.691 12.5997 58.5324 13.0003C58.6726 13.0804 58.7527 13.1606 58.7728 13.2407C58.8128 13.3008 58.8429 13.4511 58.8629 13.6915L59.2536 17.3575C59.2536 17.4176 59.1935 17.4577 59.0733 17.4777C58.9731 17.4977 58.913 17.4677 58.893 17.3875C57.9113 14.042 55.8379 12.3693 52.6727 12.3693C51.05 12.3693 49.6177 12.7399 48.3756 13.4811C47.1336 14.2223 46.162 15.2841 45.4608 16.6664C44.7797 18.0286 44.4391 19.6212 44.4391 21.4442C44.4391 23.2071 44.8097 24.8098 45.551 26.2522C46.3122 27.6945 47.3339 28.8264 48.616 29.6478C49.8981 30.4691 51.3004 30.8798 52.823 30.8798C54.4056 30.8798 55.6977 30.4892 56.6993 29.7079C57.721 28.9065 58.5324 27.6745 59.1334 26.0118C59.1534 25.9517 59.2135 25.9316 59.3137 25.9517C59.4138 25.9717 59.4639 26.0018 59.4639 26.0418L59.1634 29.4074C59.1233 29.6478 59.0833 29.808 59.0432 29.8882C59.0232 29.9483 58.943 30.0184 58.8028 30.0985C57.7811 30.5793 56.8095 30.9099 55.888 31.0901C54.9665 31.2905 53.9348 31.3906 52.7929 31.3906C50.6894 31.3906 48.8063 30.98 47.1436 30.1586C45.5009 29.3172 44.2087 28.1553 43.2672 26.6729C42.3457 25.1704 41.8849 23.4576 41.8849 21.5344C41.8849 19.6513 42.3557 17.9785 43.2972 16.5161C44.2388 15.0537 45.5409 13.9218 47.2037 13.1205C48.8865 12.2992 50.7696 11.8885 52.853 11.8885ZM76.8797 26.4926C76.8797 26.4325 76.9398 26.4124 77.06 26.4325C77.1802 26.4325 77.2403 26.4625 77.2403 26.5226C77.06 27.8248 76.9699 29.167 76.9699 30.5493C76.9699 30.7095 76.9298 30.8297 76.8497 30.9099C76.7896 30.97 76.6694 31 76.4891 31H63.7781C63.7381 31 63.718 30.9399 63.718 30.8197C63.718 30.6995 63.7381 30.6394 63.7781 30.6394C64.5194 30.6394 65.0602 30.5893 65.4008 30.4892C65.7414 30.389 65.9717 30.1987 66.0919 29.9182C66.2121 29.6177 66.2722 29.167 66.2722 28.566V14.653C66.2722 14.052 66.2121 13.6113 66.0919 13.3309C65.9717 13.0504 65.7414 12.8601 65.4008 12.7599C65.0602 12.6397 64.5194 12.5796 63.7781 12.5796C63.7381 12.5796 63.718 12.5195 63.718 12.3993C63.718 12.2791 63.7381 12.219 63.7781 12.219H75.9783C76.1586 12.219 76.2487 12.3092 76.2487 12.4895L76.3088 16.2457C76.3088 16.3058 76.2487 16.3358 76.1285 16.3358C76.0283 16.3358 75.9783 16.3058 75.9783 16.2457C75.8581 15.1639 75.4874 14.3325 74.8664 13.7516C74.2454 13.1706 73.4341 12.8801 72.4324 12.8801H70.7797C69.8381 12.8801 69.2171 13.0103 68.9166 13.2708C68.6161 13.5312 68.4659 14.032 68.4659 14.7732V20.9033H71.9216C72.9232 20.9033 73.6444 20.7331 74.0851 20.3925C74.5459 20.0519 74.7763 19.501 74.7763 18.7398C74.7763 18.6997 74.8364 18.6797 74.9566 18.6797C75.0768 18.6797 75.1369 18.6997 75.1369 18.7398L75.1068 21.2339C75.1068 21.8149 75.1168 22.2556 75.1369 22.5561L75.1669 24.0586C75.1669 24.0986 75.1068 24.1186 74.9866 24.1186C74.8664 24.1186 74.8063 24.0986 74.8063 24.0586C74.8063 23.1771 74.5759 22.5461 74.1152 22.1654C73.6544 21.7648 72.9032 21.5644 71.8615 21.5644H68.4659V28.4458C68.4659 28.9666 68.526 29.3573 68.6462 29.6177C68.7664 29.8781 68.9767 30.0685 69.2772 30.1887C69.5777 30.2888 70.0385 30.3389 70.6595 30.3389H72.793C73.8548 30.3389 74.7362 30.0084 75.4374 29.3473C76.1385 28.6662 76.6193 27.7146 76.8797 26.4926ZM101.461 12.219C101.522 12.219 101.552 12.2791 101.552 12.3993C101.552 12.5195 101.522 12.5796 101.461 12.5796C100.64 12.5796 100.029 12.83 99.6284 13.3309C99.2478 13.8117 99.0575 14.5729 99.0575 15.6146V31.3606C99.0575 31.4207 99.0074 31.4608 98.9072 31.4808C98.8071 31.5008 98.737 31.4908 98.6969 31.4507L84.6938 14.6831L84.6037 14.5629V27.6344C84.6037 28.6762 84.794 29.4374 85.1746 29.9182C85.5552 30.399 86.1462 30.6394 86.9475 30.6394C87.0076 30.6394 87.0377 30.6995 87.0377 30.8197C87.0377 30.9399 87.0076 31 86.9475 31C86.4667 31 86.0861 30.99 85.8056 30.97L84.2731 30.9399L82.6805 30.97C82.38 30.99 81.9493 31 81.3883 31C81.3483 31 81.3282 30.9399 81.3282 30.8197C81.3282 30.6995 81.3483 30.6394 81.3883 30.6394C82.2498 30.6394 82.8708 30.399 83.2514 29.9182C83.6521 29.4374 83.8524 28.6762 83.8524 27.6344V13.7816C83.0311 12.9803 82.1997 12.5796 81.3583 12.5796C81.2982 12.5796 81.2682 12.5195 81.2682 12.3993C81.2682 12.2791 81.2982 12.219 81.3583 12.219L82.4701 12.2491C82.7105 12.2691 83.0511 12.2791 83.4918 12.2791L84.9041 12.2491C85.0644 12.229 85.2748 12.219 85.5352 12.219C85.6955 12.219 85.8056 12.2591 85.8657 12.3392C85.9459 12.3993 86.0661 12.5496 86.2263 12.79C86.4667 13.1506 86.7071 13.4811 86.9475 13.7816L98.3063 27.5443V15.6146C98.3063 14.5729 98.126 13.8117 97.7654 13.3309C97.4048 12.83 96.8138 12.5796 95.9924 12.5796C95.9524 12.5796 95.9323 12.5195 95.9323 12.3993C95.9323 12.2791 95.9524 12.219 95.9924 12.219L97.1644 12.2491C97.8054 12.2891 98.3163 12.3092 98.6969 12.3092C99.0775 12.3092 99.5884 12.2891 100.229 12.2491L101.461 12.219ZM109.411 12.79C108.169 12.79 107.207 13.1305 106.526 13.8116C105.865 14.4727 105.384 15.5645 105.084 17.0871C105.064 17.1472 104.993 17.1772 104.873 17.1772C104.773 17.1572 104.723 17.1271 104.723 17.0871C104.803 16.5261 104.893 15.6246 104.993 14.3826C105.094 13.1405 105.144 12.199 105.144 11.5579C105.144 11.4578 105.204 11.4077 105.324 11.4077C105.444 11.4077 105.504 11.4578 105.504 11.5579C105.504 11.9987 106.045 12.219 107.127 12.219C108.85 12.2791 110.863 12.3092 113.167 12.3092C114.349 12.3092 115.601 12.2891 116.923 12.2491L118.967 12.219C119.688 12.219 120.219 12.1689 120.559 12.0688C120.92 11.9686 121.15 11.7683 121.25 11.4678C121.27 11.3877 121.33 11.3476 121.431 11.3476C121.531 11.3476 121.581 11.3877 121.581 11.4678C121.521 12.0487 121.461 12.9502 121.401 14.1722C121.34 15.3742 121.31 16.3458 121.31 17.0871C121.31 17.1271 121.25 17.1472 121.13 17.1472C121.03 17.1472 120.97 17.1271 120.95 17.0871C120.87 15.5445 120.509 14.4427 119.868 13.7816C119.247 13.1205 118.275 12.79 116.953 12.79C116.152 12.79 115.571 12.83 115.21 12.9102C114.87 12.9903 114.629 13.1606 114.489 13.421C114.369 13.6814 114.309 14.1121 114.309 14.7131V28.566C114.309 29.187 114.369 29.6378 114.489 29.9182C114.629 30.1987 114.89 30.389 115.27 30.4892C115.671 30.5893 116.302 30.6394 117.164 30.6394C117.204 30.6394 117.224 30.6995 117.224 30.8197C117.224 30.9399 117.204 31 117.164 31C116.482 31 115.942 30.99 115.541 30.97L113.167 30.9399L110.883 30.97C110.483 30.99 109.922 31 109.2 31C109.16 31 109.14 30.9399 109.14 30.8197C109.14 30.6995 109.16 30.6394 109.2 30.6394C110.042 30.6394 110.663 30.5893 111.063 30.4892C111.464 30.389 111.735 30.1987 111.875 29.9182C112.015 29.6177 112.085 29.167 112.085 28.566V14.653C112.085 14.0721 112.015 13.6614 111.875 13.421C111.755 13.1606 111.514 12.9903 111.154 12.9102C110.813 12.83 110.232 12.79 109.411 12.79Z" fill="#C2C7CC"/>
</svg>
