<svg width="129" height="44" viewBox="0 0 129 44" fill="none" xmlns="http://www.w3.org/2000/svg">
<path d="M10.6667 34.3911C5.36889 34.3911 1.42222 30.5511 1.42222 25.1822C1.42222 20.1689 5.01333 16.08 10.24 16.08C15.5022 16.08 18.7733 19.8844 18.7733 24.7556V26.1778H4.83556C5.22667 29.1644 7.50222 31.2622 10.6311 31.2622C12.7644 31.2622 14.6844 30.3378 15.7156 28.4178L18.4178 29.8044C16.8889 32.7911 14.08 34.3911 10.6667 34.3911ZM4.97778 23.9022H15.2533C15.1111 21.1289 13.0844 19.2444 10.2044 19.2444C7.25333 19.2444 5.33333 21.3067 4.97778 23.9022ZM29.2336 34.3911C25.9981 34.3911 23.5092 33.1111 22.1581 30.5156L24.8603 29.0222C25.7492 30.7644 27.1714 31.4044 29.0914 31.4044C31.0825 31.4044 32.6114 30.5867 32.6114 29.0578C32.6114 25.3956 22.6203 28.1689 22.6203 21.52C22.6203 18.4622 25.3225 16.2222 29.1269 16.2222C32.3625 16.2222 34.5669 17.7156 35.6692 19.7422L32.9669 21.2711C32.2203 19.7422 30.7981 19.2089 29.1981 19.2089C27.5625 19.2089 26.1403 20.0622 26.1403 21.4489C26.1403 25.0044 36.1314 22.4089 36.1314 28.9867C36.1314 32.2933 32.9314 34.3911 29.2336 34.3911ZM48.3006 34.4622C43.9628 34.4622 41.6517 31.7244 41.6517 27.7422V19.6356H38.2028V16.5778H41.6517V12.0622H45.1717V16.5778H51.8561V19.6356H45.1717V27.6356C45.1717 29.9111 46.5228 31.2622 48.6206 31.2622C49.7583 31.2622 51.0028 30.8356 51.8561 30.2311V33.4667C50.9672 34.0711 49.5806 34.4622 48.3006 34.4622ZM64.1736 34.3911C58.8758 34.3911 54.9292 30.5511 54.9292 25.1822C54.9292 20.1689 58.5203 16.08 63.7469 16.08C69.0092 16.08 72.2803 19.8844 72.2803 24.7556V26.1778H58.3425C58.7336 29.1644 61.0092 31.2622 64.1381 31.2622C66.2714 31.2622 68.1914 30.3378 69.2225 28.4178L71.9247 29.8044C70.3958 32.7911 67.5869 34.3911 64.1736 34.3911ZM58.4847 23.9022H68.7603C68.6181 21.1289 66.5914 19.2444 63.7114 19.2444C60.7603 19.2444 58.8403 21.3067 58.4847 23.9022ZM80.0028 34H76.4828V23.6178C76.4828 19.3867 78.9006 16.2222 83.4517 16.2222C84.5539 16.2222 85.6917 16.4356 86.5806 16.8622V20.3467C85.7272 19.8489 84.7317 19.6 83.7717 19.6C81.425 19.6 80.0028 21.2 80.0028 23.76V34ZM91.0889 13.1289C89.8089 13.1289 88.7778 12.0978 88.7778 10.8178C88.7778 9.53778 89.8089 8.47111 91.0889 8.47111C92.3689 8.47111 93.3644 9.53778 93.3644 10.8178C93.3644 12.0978 92.3689 13.1289 91.0889 13.1289ZM89.3467 16.5778H92.8667V34H89.3467V16.5778ZM106.245 34.4267C101.196 34.4267 97.4986 30.3022 97.4986 25.2533C97.4986 20.2756 101.481 16.1511 106.779 16.1511C112.041 16.1511 116.059 20.0622 116.059 25.2533V34H112.716V30.9422C111.401 33.0756 109.09 34.4267 106.245 34.4267ZM106.779 31.0844C110.05 31.0844 112.539 28.4533 112.539 25.2889C112.539 22.0889 110.05 19.4578 106.779 19.4578C103.543 19.4578 101.019 22.0889 101.019 25.2889C101.019 28.4533 103.543 31.0844 106.779 31.0844ZM123.732 34.32C122.452 34.32 121.421 33.2889 121.421 32.0089C121.421 30.7289 122.452 29.7333 123.732 29.7333C125.012 29.7333 126.043 30.7289 126.043 32.0089C126.043 33.2889 125.012 34.32 123.732 34.32Z" fill="#C2C7CC"/>
</svg>
