<svg width="28" height="29" viewBox="0 0 28 29" fill="none" xmlns="http://www.w3.org/2000/svg">
    <g clip-path="url(#clip0_6110_36565)">
        <path d="M26.5962 13.6709L16.6652 3.73987C16.198 3.27271 15.4382 3.27271 14.9711 3.73987C14.5039 4.20703 14.5039 4.96681 14.9711 5.43397L22.8538 13.3167L2.85565 13.3193C2.19341 13.3193 1.65694 13.8557 1.65694 14.518C1.65694 15.1802 2.19341 15.7167 2.85565 15.7167L22.8538 15.7141L14.9711 23.5968C14.5039 24.064 14.5039 24.8238 14.9711 25.2909C15.4382 25.7581 16.198 25.7581 16.6652 25.2909L26.5936 15.3624C27.0634 14.8978 27.0634 14.1381 26.5962 13.6709Z" fill="#120A00"/>
    </g>
    <defs>
        <clipPath id="clip0_6110_36565">
            <rect width="18.5858" height="18.5858" fill="white" transform="translate(14.3008 1.37573) rotate(45)"/>
        </clipPath>
    </defs>
</svg>