<svg width="56" height="56" viewBox="0 0 56 56" fill="none" xmlns="http://www.w3.org/2000/svg">
<ellipse cx="28" cy="27.9393" rx="27.3438" ry="14.3768" fill="url(#paint0_radial_8241_86679)"/>
<ellipse cx="28" cy="27.9393" rx="26.2756" ry="13.3087" fill="#6181B6"/>
<path fill-rule="evenodd" clip-rule="evenodd" d="M33.3192 32.2545L34.6223 25.5468C34.9214 24.03 34.6651 22.8978 33.896 22.1929C33.1483 21.5093 31.8666 21.1675 29.9867 21.1675H27.7223L28.3632 17.835C28.3845 17.7068 28.3632 17.5786 28.2777 17.4718C28.1923 17.365 28.0855 17.3223 27.9573 17.3223H24.8384C24.6248 17.3223 24.4539 17.4718 24.4111 17.6641L23.0226 24.7777C22.8944 23.9659 22.5954 23.2823 22.0827 22.7269C21.1641 21.6802 19.7328 21.1461 17.7888 21.1461H11.786C11.5724 21.1461 11.4015 21.2957 11.3588 21.4879L8.56032 35.9288C8.53895 36.057 8.56032 36.1852 8.64577 36.292C8.73122 36.3988 8.83803 36.4415 8.9662 36.4415H12.1065C12.3201 36.4415 12.491 36.292 12.5337 36.0997L13.2173 32.6177H15.5458C16.7634 32.6177 17.8102 32.4895 18.6006 32.2332C19.4337 31.9554 20.1814 31.5068 20.8436 30.8873C21.3777 30.396 21.8263 29.8406 22.1681 29.2424L21.6127 32.1263C21.5913 32.2545 21.6127 32.3827 21.6981 32.4895C21.7836 32.5963 21.8904 32.639 22.0186 32.639H25.1375C25.3511 32.639 25.522 32.4895 25.5647 32.2972L27.1028 24.3932H29.239C30.1576 24.3932 30.414 24.5641 30.4994 24.6495C30.5635 24.7136 30.6917 24.97 30.5421 25.7604L29.3031 32.1477C29.2818 32.2759 29.3031 32.4041 29.3886 32.5109C29.474 32.6177 29.5808 32.6604 29.709 32.6604H32.9133C33.1056 32.5963 33.2765 32.4468 33.3192 32.2545ZM18.8783 26.7003C18.6861 27.7043 18.3229 28.4307 17.7888 28.8365C17.2548 29.2424 16.3789 29.4561 15.2254 29.4561H13.8368L14.8408 24.2864H16.6353C17.9597 24.2864 18.4938 24.5641 18.7074 24.7991C18.9851 25.1409 19.0492 25.8031 18.8783 26.7003Z" fill="white"/>
<path fill-rule="evenodd" clip-rule="evenodd" d="M46.6493 22.7268C45.7307 21.6801 44.2995 21.146 42.3555 21.146H36.31C36.0963 21.146 35.9254 21.2955 35.8827 21.4878L33.0842 35.9073C33.0629 36.0355 33.0842 36.1637 33.1697 36.2705C33.2551 36.3773 33.362 36.42 33.4901 36.42H36.6304C36.844 36.42 37.0149 36.2705 37.0576 36.0782L37.7412 32.5962H40.0697C41.2874 32.5962 42.3341 32.468 43.1245 32.2117C43.9577 31.934 44.7053 31.4854 45.3676 30.8658C45.923 30.3531 46.393 29.7764 46.7348 29.1569C47.0766 28.5374 47.3329 27.8538 47.4824 27.1061C47.8456 25.2476 47.5679 23.7949 46.6493 22.7268ZM43.3809 26.7002C43.1886 27.7042 42.8254 28.4305 42.2914 28.8364C41.7573 29.2423 40.8815 29.4559 39.7279 29.4559H38.3394L39.3434 24.2863H41.1378C42.4623 24.2863 42.9963 24.564 43.21 24.799C43.509 25.1407 43.5731 25.803 43.3809 26.7002Z" fill="white"/>
<path fill-rule="evenodd" clip-rule="evenodd" d="M16.6353 23.859C17.8315 23.859 18.6219 24.0726 19.0278 24.5212C19.4337 24.9698 19.5192 25.7175 19.3055 26.7856C19.0919 27.8965 18.6647 28.7083 18.0452 29.1782C17.4257 29.6482 16.4857 29.8832 15.2253 29.8832H13.3241L14.499 23.859H16.6353ZM8.98755 35.9928H12.1278L12.8755 32.1689H15.5671C16.7634 32.1689 17.7247 32.0408 18.4938 31.7844C19.2628 31.5281 19.9464 31.1222 20.5873 30.524C21.1213 30.0327 21.5486 29.4987 21.869 28.9219C22.1895 28.3451 22.4244 27.7042 22.5526 26.9993C22.8944 25.2903 22.6381 23.9658 21.8049 23.0045C20.9718 22.0432 19.6473 21.5732 17.8315 21.5732H11.786L8.98755 35.9928Z" fill="#000004"/>
<path fill-rule="evenodd" clip-rule="evenodd" d="M24.8597 17.7495H27.9786L27.231 21.5734H30.0081C31.7598 21.5734 32.9561 21.8724 33.6183 22.4919C34.2805 23.1115 34.4728 24.0941 34.2164 25.4613L32.9133 32.1691H29.7517L30.9907 25.7817C31.1403 25.0554 31.0762 24.5641 30.8412 24.3077C30.6062 24.0514 30.0721 23.9019 29.2817 23.9019H26.7823L25.1802 32.1691H22.0613L24.8597 17.7495Z" fill="#000004"/>
<path fill-rule="evenodd" clip-rule="evenodd" d="M41.1378 23.859C42.3341 23.859 43.1245 24.0726 43.5304 24.5212C43.9363 24.9698 44.0217 25.7175 43.8081 26.7856C43.5945 27.8965 43.1672 28.7083 42.5477 29.1782C41.9282 29.6482 40.9883 29.8832 39.7279 29.8832H37.8267L39.0016 23.859H41.1378ZM33.4901 35.9928H36.6304L37.3781 32.1689H40.0697C41.266 32.1689 42.2273 32.0408 42.9963 31.7844C43.7654 31.5281 44.449 31.1222 45.0898 30.524C45.6239 30.0327 46.0511 29.4987 46.3716 28.9219C46.692 28.3451 46.927 27.7042 47.0552 26.9993C47.397 25.2903 47.1406 23.9658 46.3075 23.0045C45.4744 22.0432 44.1499 21.5732 42.3341 21.5732H36.2886L33.4901 35.9928Z" fill="#000004"/>
<defs>
<radialGradient id="paint0_radial_8241_86679" cx="0" cy="0" r="1" gradientUnits="userSpaceOnUse" gradientTransform="translate(17.0736 18.6185) scale(77.5572 40.7781)">
<stop stop-color="white"/>
<stop offset="0.5" stop-color="#4C6B97"/>
<stop offset="1" stop-color="#231F20"/>
</radialGradient>
</defs>
</svg>
