<svg width="56" height="56" viewBox="0 0 56 56" fill="none" xmlns="http://www.w3.org/2000/svg">
<g clip-path="url(#clip0_8241_86587)">
<path d="M3.97974 27.9992C3.97974 37.5075 9.5051 45.7235 17.5174 49.6176L6.05935 18.2237C4.68579 21.2995 3.97714 24.6307 3.97974 27.9992ZM44.2154 26.7871C44.2154 23.8185 43.1491 21.7626 42.2345 20.1626C41.0169 18.184 39.8761 16.5083 39.8761 14.5298C39.8761 12.3217 41.5503 10.2663 43.9092 10.2663C44.0156 10.2663 44.1167 10.2796 44.2208 10.2855C39.9469 6.37038 34.2534 3.97998 27.9999 3.97998C19.6083 3.97998 12.2255 8.28546 7.93054 14.8067C8.49409 14.8237 9.02565 14.835 9.47631 14.835C11.9888 14.835 15.8778 14.5302 15.8778 14.5302C17.1727 14.4539 17.3253 16.3557 16.0324 16.5089C16.0324 16.5089 14.7307 16.6619 13.2827 16.7378L22.0299 42.7558L27.2869 26.9905L23.5441 16.7373C22.2506 16.6615 21.0252 16.5083 21.0252 16.5083C19.7308 16.4326 19.8825 14.4534 21.177 14.5298C21.177 14.5298 25.1437 14.8346 27.504 14.8346C30.016 14.8346 33.9055 14.5298 33.9055 14.5298C35.2013 14.4534 35.3535 16.3553 34.0596 16.5083C34.0596 16.5083 32.7555 16.6615 31.3103 16.7373L39.9907 42.5584L42.3863 34.5521C43.4251 31.2297 44.2154 28.8434 44.2154 26.7871Z" fill="#00749A"/>
<path d="M28.4215 30.1002L21.2146 51.0417C23.4179 51.691 25.7031 52.0207 28.0001 52.0207C30.7973 52.0207 33.4797 51.5366 35.9766 50.6591C35.9097 50.5542 35.8524 50.4435 35.8057 50.3283L28.4215 30.1002ZM49.0768 16.4749C49.1802 17.24 49.2387 18.0618 49.2387 18.9449C49.2387 21.3823 48.7834 24.1224 47.4122 27.5484L40.0751 48.7619C47.2161 44.5976 52.0194 36.861 52.0194 27.9991C52.0258 23.971 51.0136 20.0068 49.0768 16.4749Z" fill="#00749A"/>
<path d="M28.0005 0C12.5615 0 0.000244141 12.5604 0.000244141 27.9993C0.000244141 43.44 12.5611 56.0004 28.0005 56.0004C43.439 56.0004 56.0021 43.4406 56.0021 27.9993C56.0016 12.5604 43.439 0 28.0005 0ZM28.0005 54.7166C13.2695 54.7166 1.28412 42.7312 1.28412 27.9993C1.28412 13.2688 13.2691 1.28433 28.0005 1.28433C42.731 1.28433 54.7154 13.2688 54.7154 27.9993C54.7154 42.7312 42.7306 54.7166 28.0005 54.7166Z" fill="#00749A"/>
</g>
<defs>
<clipPath id="clip0_8241_86587">
<rect width="56" height="56" fill="white"/>
</clipPath>
</defs>
</svg>
