<svg width="56" height="56" viewBox="0 0 56 56" fill="none" xmlns="http://www.w3.org/2000/svg">
<g clip-path="url(#clip0_8241_86594)">
<path d="M0 0H56V56H0V0Z" fill="#F0DB4F"/>
<path d="M51.4168 42.644C51.007 40.0888 49.3408 37.9435 44.4062 35.942C42.6922 35.1543 40.7812 34.5899 40.2115 33.2911C40.0092 32.5351 39.9826 32.1093 40.1104 31.6515C40.4776 30.1663 42.2503 29.7032 43.6556 30.1291C44.5606 30.4325 45.4177 31.13 45.934 32.2424C48.3507 30.6775 48.3453 30.688 50.0328 29.6128C49.4154 28.6546 49.0853 28.2128 48.6808 27.8029C47.2275 26.1793 45.2473 25.3436 42.0799 25.4075C41.5317 25.4766 40.9781 25.5511 40.4298 25.6204C38.8489 26.0197 37.3423 26.85 36.4587 27.9626C33.8078 30.9702 34.5636 36.2348 37.7895 38.4014C40.9675 40.7862 45.6358 41.3291 46.2321 43.5596C46.8124 46.2904 44.2253 47.174 41.6541 46.8599C39.759 46.466 38.7051 45.5025 37.5659 43.7512C35.4686 44.9649 35.4686 44.9649 33.3127 46.2052C33.8237 47.3231 34.3613 47.8287 35.2184 48.7975C39.2747 52.9124 49.426 52.7101 51.2466 46.4819C51.3211 46.269 51.8108 44.8424 51.4168 42.644ZM30.4434 25.7374H25.2055C25.2055 30.2622 25.1842 34.755 25.1842 39.2796C25.1842 42.1596 25.3333 44.7998 24.8648 45.6089C24.0983 47.2006 22.1127 47.0036 21.2078 46.6949C20.2868 46.2424 19.8184 45.5983 19.2755 44.688C19.1264 44.4272 19.0147 44.2249 18.9773 44.2089C17.5561 45.0766 16.14 45.9495 14.7188 46.8174C15.4267 48.2706 16.4702 49.5321 17.8062 50.3518C19.8024 51.5495 22.4852 51.9169 25.2907 51.2727C27.1166 50.7405 28.6922 49.6387 29.5172 47.9617C30.7097 45.7633 30.4541 43.1018 30.4434 40.158C30.4701 35.3564 30.4434 30.555 30.4434 25.7374Z" fill="#3E3E3E"/>
</g>
<defs>
<clipPath id="clip0_8241_86594">
<rect width="56" height="56" fill="white"/>
</clipPath>
</defs>
</svg>
