<svg width="18" height="18" viewBox="0 0 18 18" fill="none" xmlns="http://www.w3.org/2000/svg">
<path d="M8.15039 4.12113C8.14814 4.12113 8.14664 4.12263 8.14664 4.12488C8.14664 4.12713 8.14814 4.12863 8.15039 4.12863C8.15264 4.12863 8.15414 4.12713 8.15414 4.12488C8.15414 4.12263 8.15264 4.12113 8.15039 4.12113" stroke="#6A747E" stroke-width="1.1" stroke-linecap="round" stroke-linejoin="round"/>
<path d="M6.24512 4.12113C6.24287 4.12113 6.24137 4.12263 6.24137 4.12488C6.24137 4.12713 6.24287 4.12863 6.24512 4.12863C6.24737 4.12863 6.24887 4.12713 6.24887 4.12488C6.24887 4.12263 6.24737 4.12113 6.24512 4.12113" stroke="#6A747E" stroke-width="1.1" stroke-linecap="round" stroke-linejoin="round"/>
<path d="M4.33496 4.11747C4.33271 4.11747 4.33121 4.11897 4.33121 4.12122C4.33121 4.12347 4.33271 4.12497 4.33496 4.12497C4.33721 4.12497 4.33871 4.12347 4.33871 4.12122C4.33871 4.11897 4.33721 4.11747 4.33496 4.11747" stroke="#6A747E" stroke-width="1.1" stroke-linecap="round" stroke-linejoin="round"/>
<path d="M2.25 6H15.75" stroke="#6A747E" stroke-width="1.1" stroke-linecap="round" stroke-linejoin="round"/>
<path d="M15.75 7.5V3.75C15.75 2.92125 15.0787 2.25 14.25 2.25H3.75C2.92125 2.25 2.25 2.92125 2.25 3.75V13.5C2.25 14.3287 2.92125 15 3.75 15H7.65" stroke="#6A747E" stroke-width="1.1" stroke-linecap="round" stroke-linejoin="round"/>
<path fill-rule="evenodd" clip-rule="evenodd" d="M13.9912 10.1154C14.4952 9.61139 15.3127 9.61064 15.8167 10.1154C16.3207 10.6194 16.3207 11.4369 15.816 11.9409L12.0954 15.6574C11.9552 15.7976 11.7647 15.8764 11.5659 15.8764L10.0547 15.8764L10.0547 14.3651C10.0547 14.1664 10.1334 13.9759 10.2744 13.8349L13.9912 10.1154Z" fill="#6A747E"/>
</svg>
