<svg width="52" height="56" viewBox="0 0 52 56" fill="none" xmlns="http://www.w3.org/2000/svg">
<path d="M50.8082 28.0051C50.8082 24.7494 46.6921 21.664 40.3813 19.7507C41.8376 13.3796 41.1903 8.31076 38.3384 6.68794C37.681 6.30727 36.9124 6.12695 36.0729 6.12695V8.36085C36.5382 8.36085 36.9124 8.451 37.2259 8.6213C38.6013 9.40266 39.198 12.3778 38.7328 16.2046C38.6216 17.1461 38.4395 18.1379 38.217 19.1497C36.2348 18.6688 34.0705 18.2981 31.795 18.0577C30.4296 16.2046 29.0138 14.5215 27.5878 13.049C30.8848 10.0137 33.9795 8.35083 36.0831 8.35083V6.11694C33.3019 6.11694 29.6611 8.08036 25.9797 11.4863C22.2985 8.10039 18.6576 6.15701 15.8764 6.15701V8.3909C17.9699 8.3909 21.0747 10.0438 24.3717 13.0591C22.9558 14.5316 21.54 16.2046 20.1948 18.0577C17.9092 18.2981 15.7449 18.6688 13.7627 19.1597C13.5301 18.1579 13.3581 17.1863 13.2368 16.2546C12.7615 12.428 13.348 9.45275 14.7133 8.66136C15.0168 8.48106 15.4112 8.40092 15.8764 8.40092V6.16703C15.0269 6.16703 14.2582 6.34733 13.5907 6.728C10.7489 8.35083 10.1117 13.4097 11.5782 19.7607C5.2876 21.684 1.19165 24.7594 1.19165 28.0051C1.19165 31.2608 5.30783 34.3461 11.6186 36.2594C10.1623 42.6305 10.8096 47.6993 13.6616 49.3222C14.3189 49.7028 15.0875 49.8832 15.9371 49.8832C18.7182 49.8832 22.3591 47.9198 26.0405 44.5138C29.7217 47.8997 33.3626 49.843 36.1438 49.843C36.9933 49.843 37.7619 49.6627 38.4294 49.2821C41.2713 47.6593 41.9085 42.6005 40.442 36.2494C46.7123 34.336 50.8082 31.2507 50.8082 28.0051ZM37.6406 21.3235C37.2664 22.6157 36.8011 23.948 36.2753 25.2803C35.8606 24.4789 35.4257 23.6775 34.9503 22.8761C34.4852 22.0747 33.9896 21.2934 33.494 20.532C34.9301 20.7424 36.3157 21.0029 37.6406 21.3235ZM33.0086 31.9921C32.2197 33.3443 31.4107 34.6266 30.5712 35.8187C29.0643 35.9489 27.5373 36.0191 26 36.0191C24.4728 36.0191 22.9457 35.9489 21.4489 35.8287C20.6095 34.6366 19.7903 33.3644 19.0015 32.022C18.2328 30.7098 17.535 29.3775 16.8979 28.0351C17.5249 26.6928 18.2328 25.3505 18.9913 24.0381C19.7802 22.6858 20.5892 21.4036 21.4287 20.2115C22.9355 20.0812 24.4627 20.0111 26 20.0111C27.5271 20.0111 29.0542 20.0812 30.5511 20.2015C31.3905 21.3936 32.2096 22.6657 32.9985 24.008C33.7671 25.3204 34.4649 26.6527 35.1021 27.995C34.4649 29.3374 33.7671 30.6797 33.0086 31.9921ZM36.2753 30.6897C36.8213 32.0321 37.2866 33.3744 37.671 34.6767C36.346 34.9972 34.9503 35.2677 33.5042 35.4781C33.9997 34.7067 34.4953 33.9153 34.9605 33.1039C35.4258 32.3025 35.8606 31.4911 36.2753 30.6897ZM26.0202 41.3784C25.0796 40.4167 24.1391 39.3449 23.2086 38.1728C24.1189 38.2128 25.0494 38.2429 25.9899 38.2429C26.9405 38.2429 27.8811 38.2229 28.8015 38.1728C27.8912 39.3449 26.9506 40.4167 26.0202 41.3784ZM18.4958 35.4781C17.0597 35.2677 15.6742 35.0073 14.3492 34.6868C14.7234 33.3945 15.1887 32.0622 15.7145 30.7297C16.1292 31.5312 16.5642 32.3326 17.0395 33.134C17.5148 33.9354 18.0002 34.7167 18.4958 35.4781ZM25.9696 14.6318C26.9102 15.5934 27.8507 16.6653 28.7812 17.8373C27.871 17.7973 26.9405 17.7672 26 17.7672C25.0494 17.7672 24.1087 17.7873 23.1884 17.8373C24.0986 16.6653 25.0392 15.5934 25.9696 14.6318ZM18.4857 20.532C17.9901 21.3034 17.4945 22.0948 17.0294 22.9062C16.564 23.7076 16.1292 24.509 15.7145 25.3104C15.1685 23.968 14.7032 22.6257 14.3189 21.3235C15.6438 21.0129 17.0395 20.7424 18.4857 20.532ZM9.33299 33.0738C5.75283 31.5612 3.43684 29.5779 3.43684 28.0051C3.43684 26.4324 5.75283 24.4389 9.33299 22.9363C10.2028 22.5656 11.1534 22.235 12.1344 21.9245C12.7108 23.8879 13.4694 25.9314 14.41 28.0251C13.4795 30.1088 12.7311 32.1423 12.1648 34.0957C11.1635 33.7852 10.2129 33.4445 9.33299 33.0738ZM14.774 47.3888C13.3986 46.6075 12.8019 43.6323 13.2671 39.8056C13.3784 38.864 13.5605 37.8722 13.7829 36.8605C15.7652 37.3413 17.9295 37.712 20.2049 37.9524C21.5702 39.8056 22.9861 41.4886 24.4122 42.9611C21.1152 45.9964 18.0205 47.6593 15.9169 47.6593C15.4617 47.6493 15.0774 47.5591 14.774 47.3888ZM38.7632 39.7555C39.2385 43.5822 38.652 46.5574 37.2866 47.3487C36.9832 47.529 36.5887 47.6092 36.1236 47.6092C34.0301 47.6092 30.9253 45.9563 27.6282 42.941C29.0442 41.4685 30.46 39.7955 31.805 37.9424C34.0907 37.702 36.255 37.3313 38.2373 36.8404C38.4699 37.8522 38.6519 38.8239 38.7632 39.7555ZM42.6569 33.0738C41.7871 33.4445 40.8364 33.7751 39.8554 34.0856C39.279 32.1222 38.5205 30.0787 37.5798 27.985C38.5103 25.9015 39.2587 23.8678 39.825 21.9145C40.8263 22.2251 41.777 22.5656 42.667 22.9363C46.2471 24.4489 48.5631 26.4324 48.5631 28.0051C48.5529 29.5779 46.237 31.5713 42.6569 33.0738Z" fill="#61DAFB"/>
<path d="M25.9895 32.5831C28.5421 32.5831 30.6114 30.5335 30.6114 28.0051C30.6114 25.4768 28.5421 23.4272 25.9895 23.4272C23.4369 23.4272 21.3677 25.4768 21.3677 28.0051C21.3677 30.5335 23.4369 32.5831 25.9895 32.5831Z" fill="#61DAFB"/>
</svg>
