<svg width="50" height="56" viewBox="0 0 50 56" fill="none" xmlns="http://www.w3.org/2000/svg">
<path d="M25.0559 56C24.2729 56 23.4899 55.8888 22.8188 55.4439L15.8837 51.4399C14.877 50.8838 15.4362 50.6614 15.7718 50.5501C17.1141 49.994 17.4497 49.994 18.9038 49.1043C19.0157 48.993 19.2394 49.1043 19.3512 49.1043L24.7204 52.3297C24.8322 52.4409 25.1678 52.4409 25.2796 52.3297L45.9732 40.429C46.1969 40.3178 46.3087 40.0953 46.3087 39.8729V16.1827C46.3087 15.9603 46.1969 15.7378 45.9732 15.6266L25.2796 3.72592C25.1678 3.6147 24.8322 3.6147 24.7204 3.72592L4.02685 15.6266C3.80313 15.7378 3.69127 15.9603 3.69127 16.1827V39.8729C3.69127 40.0953 3.80313 40.3178 4.02685 40.429L9.73154 43.6544C12.7517 45.2115 14.6532 43.432 14.6532 41.5412V18.1847C14.6532 17.851 14.877 17.6286 15.2125 17.6286H17.8971C18.2327 17.6286 18.4564 17.851 18.4564 18.1847V41.5412C18.4564 45.6564 16.2192 47.9921 12.4161 47.9921C11.1857 47.9921 10.179 47.9921 7.60626 46.6574L2.23714 43.6544C0.894855 42.8759 0 41.43 0 39.8729V16.1827C0 14.6256 0.894855 13.1797 2.23714 12.4012L22.8188 0.500497C24.1611 -0.166832 25.8389 -0.166832 27.1812 0.500497L47.8747 12.4012C49.217 13.1797 50 14.6256 50 16.1827V39.8729C50 41.43 49.217 42.8759 47.8747 43.6544L27.1812 55.4439C26.5101 55.8888 25.7271 56 25.0559 56ZM41.7226 32.6435C41.7226 28.1946 38.7025 27.0824 32.3266 26.1926C25.9508 25.4141 25.2796 24.9692 25.2796 23.4121C25.2796 22.1887 25.8389 20.6316 30.5369 20.6316C34.7875 20.6316 36.3535 21.5214 37.0246 24.3019C37.0246 24.6355 37.3602 24.858 37.5839 24.858H40.2685C40.4922 24.858 40.604 24.7468 40.7159 24.6355C40.8277 24.5243 40.8277 24.3019 40.8277 24.1907C40.4922 19.2969 37.1365 16.9613 30.5369 16.9613C24.6085 16.9613 21.1409 19.4081 21.1409 23.6346C21.1409 28.0834 24.6085 29.3068 30.3132 29.863C37.0246 30.5303 37.5839 31.5313 37.5839 32.8659C37.5839 35.2016 35.6823 36.0914 31.4318 36.0914C25.9508 36.0914 24.7204 34.7567 24.2729 32.0874C24.2729 31.7537 24.0492 31.5313 23.7136 31.5313H21.0291C20.6935 31.5313 20.4698 31.8649 20.4698 32.1986C20.4698 35.6465 22.3714 39.7617 31.4318 39.7617C37.9195 39.7617 41.7226 37.2036 41.7226 32.6435Z" fill="#539E43"/>
</svg>
