<svg width="18" height="18" viewBox="0 0 18 18" fill="none" xmlns="http://www.w3.org/2000/svg">
<path d="M6.72754 11.25L9.00079 6.75L11.274 11.25" stroke="#6A747E" stroke-width="1.1" stroke-linecap="round" stroke-linejoin="round"/>
<path d="M7.29785 10.14H10.7104" stroke="#6A747E" stroke-width="1.1" stroke-linecap="round" stroke-linejoin="round"/>
<path d="M3.75 5.25V12.75" stroke="#6A747E" stroke-width="1.1" stroke-linecap="round" stroke-linejoin="round"/>
<path d="M14.25 12.75V5.25" stroke="#6A747E" stroke-width="1.1" stroke-linecap="round" stroke-linejoin="round"/>
<path fill-rule="evenodd" clip-rule="evenodd" d="M15 15.75H13.5C13.086 15.75 12.75 15.414 12.75 15V13.5C12.75 13.086 13.086 12.75 13.5 12.75H15C15.414 12.75 15.75 13.086 15.75 13.5V15C15.75 15.414 15.414 15.75 15 15.75Z" stroke="#6A747E" stroke-width="1.1" stroke-linecap="round" stroke-linejoin="round"/>
<path fill-rule="evenodd" clip-rule="evenodd" d="M4.5 15.75H3C2.586 15.75 2.25 15.414 2.25 15V13.5C2.25 13.086 2.586 12.75 3 12.75H4.5C4.914 12.75 5.25 13.086 5.25 13.5V15C5.25 15.414 4.914 15.75 4.5 15.75Z" stroke="#6A747E" stroke-width="1.1" stroke-linecap="round" stroke-linejoin="round"/>
<path fill-rule="evenodd" clip-rule="evenodd" d="M15 5.25H13.5C13.086 5.25 12.75 4.914 12.75 4.5V3C12.75 2.586 13.086 2.25 13.5 2.25H15C15.414 2.25 15.75 2.586 15.75 3V4.5C15.75 4.914 15.414 5.25 15 5.25Z" stroke="#6A747E" stroke-width="1.1" stroke-linecap="round" stroke-linejoin="round"/>
<path fill-rule="evenodd" clip-rule="evenodd" d="M4.5 5.25H3C2.586 5.25 2.25 4.914 2.25 4.5V3C2.25 2.586 2.586 2.25 3 2.25H4.5C4.914 2.25 5.25 2.586 5.25 3V4.5C5.25 4.914 4.914 5.25 4.5 5.25Z" stroke="#6A747E" stroke-width="1.1" stroke-linecap="round" stroke-linejoin="round"/>
<path d="M5.25 14.25H12.75" stroke="#6A747E" stroke-width="1.1" stroke-linecap="round" stroke-linejoin="round"/>
<path d="M12.75 3.75H5.25" stroke="#6A747E" stroke-width="1.1" stroke-linecap="round" stroke-linejoin="round"/>
</svg>
