<svg width="18" height="19" viewBox="0 0 18 19" fill="none" xmlns="http://www.w3.org/2000/svg">
<path fill-rule="evenodd" clip-rule="evenodd" d="M6.02344 12.0432L7.20994 14.75V17H10.7904V14.75L11.9769 12.0432L9.00019 8L6.02344 12.0432Z" stroke="#6A747E" stroke-width="1.1" stroke-linecap="round" stroke-linejoin="round"/>
<path fill-rule="evenodd" clip-rule="evenodd" d="M8.46979 4.82604L7.67404 4.03029C7.38079 3.73704 7.38079 3.26229 7.67404 2.96979L8.46979 2.17404C8.76304 1.88079 9.23779 1.88079 9.53029 2.17404L10.326 2.96979C10.6193 3.26304 10.6193 3.73779 10.326 4.03029L9.53029 4.82604C9.23779 5.11854 8.76229 5.11854 8.46979 4.82604Z" stroke="#6A747E" stroke-width="1.1" stroke-linecap="round" stroke-linejoin="round"/>
<path fill-rule="evenodd" clip-rule="evenodd" d="M14.4375 8.1875H15.5625C15.9765 8.1875 16.3125 8.5235 16.3125 8.9375V10.0625C16.3125 10.4765 15.9765 10.8125 15.5625 10.8125H14.4375C14.0235 10.8125 13.6875 10.4765 13.6875 10.0625V8.9375C13.6875 8.5235 14.0235 8.1875 14.4375 8.1875Z" stroke="#6A747E" stroke-width="1.1" stroke-linecap="round" stroke-linejoin="round"/>
<path d="M7.20801 14.75H10.793" stroke="#6A747E" stroke-width="1.1" stroke-linecap="round" stroke-linejoin="round"/>
<path d="M9 11.9825V8" stroke="#6A747E" stroke-width="1.1" stroke-linecap="round" stroke-linejoin="round"/>
<path fill-rule="evenodd" clip-rule="evenodd" d="M3.5625 8.1875H2.4375C2.0235 8.1875 1.6875 8.5235 1.6875 8.9375V10.0625C1.6875 10.4765 2.0235 10.8125 2.4375 10.8125H3.5625C3.9765 10.8125 4.3125 10.4765 4.3125 10.0625V8.9375C4.3125 8.5235 3.9765 8.1875 3.5625 8.1875Z" stroke="#6A747E" stroke-width="1.1" stroke-linecap="round" stroke-linejoin="round"/>
<path d="M13.9047 8.40493L9.92969 4.42993" stroke="#6A747E" stroke-width="1.1" stroke-linecap="round" stroke-linejoin="round"/>
<path d="M4.09473 8.40493L8.06973 4.42993" stroke="#6A747E" stroke-width="1.1" stroke-linecap="round" stroke-linejoin="round"/>
</svg>
