<svg width="36" height="37" viewBox="0 0 36 37" fill="none" xmlns="http://www.w3.org/2000/svg">
<path d="M15.4552 16.1844H18.4736V17.7114H18.5172C18.9372 16.9673 19.9647 16.1844 21.4974 16.1844C24.6837 16.1844 25.2727 18.1421 25.2727 20.6888V25.876H22.1257V21.2779C22.1257 20.1816 22.1028 18.7699 20.4894 18.7699C18.851 18.7699 18.6001 19.9641 18.6001 21.1982V25.876H15.4552V16.1844ZM10.0011 16.1844H13.2736V25.876H10.0011V16.1844ZM13.2736 13.4923C13.2734 13.9209 13.1009 14.3318 12.7938 14.6347C12.4867 14.9376 12.0704 15.1077 11.6362 15.1076C11.2021 15.1074 10.7859 14.9371 10.479 14.6339C10.1722 14.3308 9.99986 13.9198 10 13.4912C10.0001 13.0627 10.1727 12.6518 10.4798 12.3489C10.6318 12.1989 10.8123 12.0799 11.0109 11.9988C11.2095 11.9176 11.4224 11.8759 11.6373 11.876C11.8523 11.876 12.0651 11.9179 12.2637 11.9992C12.4622 12.0804 12.6426 12.1995 12.7946 12.3496C12.9465 12.4997 13.067 12.6779 13.1492 12.8739C13.2314 13.07 13.2737 13.2801 13.2736 13.4923Z" fill="#120A00"/>
</svg>
