<svg width="42" height="56" viewBox="0 0 42 56" fill="none" xmlns="http://www.w3.org/2000/svg">
<g clip-path="url(#clip0_8201_53395)">
<path d="M13.7014 43.2903C13.7014 43.2903 11.5825 44.5325 15.2094 44.9529C19.6034 45.4582 21.849 45.3858 26.6913 44.4618C26.6913 44.4618 27.9644 45.2665 29.7421 45.9636C18.8874 50.6535 5.17543 45.6919 13.7014 43.2903ZM12.375 37.1702C12.375 37.1702 9.99841 38.9437 13.628 39.3221C18.3218 39.8103 22.0285 39.8502 28.4427 38.6051C28.4427 38.6051 29.3298 39.5118 30.7248 40.0077C17.6006 43.8766 2.98268 40.3128 12.375 37.1702Z" fill="#5BB0E9"/>
<path d="M23.5567 26.7887C26.2315 29.893 22.854 32.6865 22.854 32.6865C22.854 32.6865 29.6453 29.1522 26.5264 24.7262C23.6134 20.5991 21.3794 18.5481 33.4729 11.4775C33.4729 11.4775 14.4902 16.257 23.5567 26.7885" fill="#E76F00"/>
<path d="M37.9135 47.817C37.9135 47.817 39.4816 49.1194 36.1865 50.127C29.921 52.0406 10.1086 52.6184 4.60471 50.2033C2.62629 49.3358 6.33652 48.1316 7.50354 47.8788C8.72064 47.6127 9.41629 47.6624 9.41629 47.6624C7.216 46.0997 -4.80542 50.7306 3.31006 52.0566C25.4419 55.6749 43.6542 50.4274 37.9135 47.817ZM14.7203 30.8289C14.7203 30.8289 4.6426 33.242 11.1516 34.1181C13.8999 34.4891 19.3785 34.4053 24.4818 33.9741C28.6525 33.6196 32.8404 32.8654 32.8404 32.8654C32.8404 32.8654 31.3698 33.5004 30.3058 34.2327C20.0719 36.9461 0.301893 35.6839 5.99343 32.9083C10.8068 30.5628 14.7204 30.8289 14.7204 30.8289H14.7203ZM32.7988 41.016C43.2022 35.5662 38.3921 30.3291 35.0347 31.0347C34.2118 31.2073 33.8449 31.3568 33.8449 31.3568C33.8449 31.3568 34.1504 30.8745 34.7339 30.6657C41.3757 28.3116 46.4838 37.6086 32.5898 41.2907C32.5898 41.2908 32.7508 41.1458 32.7988 41.016Z" fill="#5BB0E9"/>
<path d="M26.5263 0.0599763C26.5263 0.0599763 32.2879 5.87038 21.0618 14.8046C12.0598 21.9717 19.0091 26.0581 21.0581 30.7269C15.8034 25.9475 11.9471 21.7401 14.5343 17.8243C18.3314 12.0759 28.8509 9.28897 26.5263 0.0598145" fill="#E76F00"/>
<path d="M15.7424 55.784C25.7283 56.4285 41.0626 55.4265 41.4257 50.6631C41.4257 50.6631 40.7277 52.469 33.173 53.903C24.6499 55.5199 14.1379 55.3311 7.90308 54.2948C7.90324 54.2948 9.17942 55.3598 15.7426 55.784" fill="#5BB0E9"/>
</g>
<defs>
<clipPath id="clip0_8201_53395">
<rect width="42" height="56" fill="white"/>
</clipPath>
</defs>
</svg>
