<svg width="18" height="19" viewBox="0 0 18 19" fill="none" xmlns="http://www.w3.org/2000/svg">
<path fill-rule="evenodd" clip-rule="evenodd" d="M16.5 4.25305V14.7501C16.5 15.5788 15.8288 16.2501 15 16.2501H3C2.17125 16.2501 1.5 15.5788 1.5 14.7501V4.27855C1.5 3.4513 2.16975 2.78005 2.997 2.77855L14.997 2.75305C15.8265 2.75155 16.5 3.42355 16.5 4.25305Z" stroke="#6A747E" stroke-width="1.1" stroke-linecap="round" stroke-linejoin="round"/>
<path d="M7.1625 8.125H11.9625L11.4375 10.75H7.6875L6.9375 7H6" stroke="#6A747E" stroke-width="1.1" stroke-linecap="round" stroke-linejoin="round"/>
<path d="M11.088 12.5985C11.1027 12.6131 11.1027 12.6369 11.088 12.6515C11.0734 12.6662 11.0497 12.6662 11.035 12.6515C11.0204 12.6369 11.0204 12.6131 11.035 12.5985C11.0497 12.5838 11.0734 12.5838 11.088 12.5985" stroke="#6A747E" stroke-width="1.1" stroke-linecap="round" stroke-linejoin="round"/>
<path d="M8.08902 12.5985C8.10366 12.6131 8.10366 12.6369 8.08902 12.6515C8.07437 12.6662 8.05063 12.6662 8.03598 12.6515C8.02134 12.6369 8.02134 12.6131 8.03598 12.5985C8.05063 12.5838 8.07437 12.5838 8.08902 12.5985" stroke="#6A747E" stroke-width="1.1" stroke-linecap="round" stroke-linejoin="round"/>
</svg>
