<svg width="18" height="18" viewBox="0 0 18 18" fill="none" xmlns="http://www.w3.org/2000/svg">
<path d="M9 1.5C4.86593 1.5 1.5 4.8629 1.5 9C1.5 13.1341 4.86593 16.5 9 16.5C13.1341 16.5 16.5 13.1341 16.5 9C16.5 4.8629 13.1341 1.5 9 1.5ZM2.25605 9C2.25605 8.02319 2.46472 7.09476 2.83972 6.25706L6.05746 15.0696C3.80746 13.9748 2.25605 11.6673 2.25605 9ZM9 15.744C8.3377 15.744 7.6996 15.6472 7.09476 15.4687L9.11794 9.58972L11.1895 15.2692C11.2046 15.3024 11.2198 15.3327 11.2379 15.3629C10.5393 15.6079 9.78629 15.744 9 15.744ZM9.92843 5.83972C10.3337 5.81855 10.6996 5.77621 10.6996 5.77621C11.0625 5.73387 11.0202 5.19859 10.6573 5.21976C10.6573 5.21976 9.56552 5.30444 8.86089 5.30444C8.19859 5.30444 7.08569 5.21976 7.08569 5.21976C6.72278 5.19859 6.68044 5.75504 7.04335 5.77621C7.04335 5.77621 7.3881 5.81855 7.75101 5.83972L8.8004 8.71875L7.3246 13.1431L4.86895 5.83972C5.27419 5.81855 5.64012 5.77621 5.64012 5.77621C6.00302 5.73387 5.96069 5.19859 5.59778 5.21976C5.59778 5.21976 4.50605 5.30444 3.80141 5.30444C3.6744 5.30444 3.52621 5.30141 3.36593 5.29536C4.57258 3.46573 6.64415 2.25605 9 2.25605C10.754 2.25605 12.3538 2.92742 13.5544 4.0252C13.5242 4.02218 13.497 4.01915 13.4667 4.01915C12.8044 4.01915 12.3357 4.59677 12.3357 5.21673C12.3357 5.77319 12.6562 6.24194 12.998 6.79839C13.255 7.24597 13.5544 7.82359 13.5544 8.65827C13.5544 9.23589 13.3337 9.90423 13.0403 10.8387L12.369 13.0857L9.92843 5.83972ZM12.3901 14.8276L14.4496 8.87298C14.8337 7.91129 14.9637 7.14314 14.9637 6.45665C14.9637 6.20867 14.9486 5.97883 14.9183 5.76411C15.4446 6.72581 15.744 7.82661 15.744 9C15.744 11.4889 14.3952 13.6603 12.3901 14.8276Z" fill="#6A747E"/>
</svg>
