<svg width="18" height="19" viewBox="0 0 18 19" fill="none" xmlns="http://www.w3.org/2000/svg">
<path d="M10.4062 14.75H2.25C1.836 14.75 1.5 14.414 1.5 14V13.25C1.5 12.836 1.836 12.5 2.25 12.5H10.4062" stroke="#6A747E" stroke-width="1.125" stroke-linecap="round" stroke-linejoin="round"/>
<path d="M15 4.25C15 3.42125 14.3288 2.75 13.5 2.75H3.75C2.92125 2.75 2.25 3.42125 2.25 4.25V12.5" stroke="#6A747E" stroke-width="1.125" stroke-linecap="round" stroke-linejoin="round"/>
<path fill-rule="evenodd" clip-rule="evenodd" d="M11.9062 6.5H15C15.8288 6.5 16.5 7.17125 16.5 8V14.75C16.5 15.5788 15.8288 16.25 15 16.25H11.9062C11.0775 16.25 10.4062 15.5788 10.4062 14.75V8C10.4062 7.17125 11.0775 6.5 11.9062 6.5Z" stroke="#6A747E" stroke-width="1.125" stroke-linecap="round" stroke-linejoin="round"/>
<path d="M15 6.5V4.25" stroke="#6A747E" stroke-width="1.125" stroke-linecap="round" stroke-linejoin="round"/>
<path d="M12.7949 14.5625H14.1074" stroke="#6A747E" stroke-width="1.125" stroke-linecap="round" stroke-linejoin="round"/>
</svg>
