<svg width="125" height="44" viewBox="0 0 125 44" fill="none" xmlns="http://www.w3.org/2000/svg">
<path d="M18.9054 31.7481V21.607C18.9054 20.854 18.8337 20.2187 18.7141 19.7482C18.5946 19.2776 18.3795 18.8776 18.0688 18.5952C17.7581 18.3129 17.3518 18.1246 16.8021 18.007C16.2763 17.8893 15.5832 17.8423 14.7706 17.8423H9.24952C8.4608 17.8423 7.79159 17.8893 7.24187 18.007C6.71606 18.1246 6.28585 18.3129 5.95124 18.5952C5.64054 18.8776 5.40153 19.254 5.28203 19.7482C5.16252 20.2187 5.09082 20.854 5.09082 21.607V31.7481H0V21.4187C0 19.9599 0.143404 18.7364 0.43021 17.7246C0.717017 16.7129 1.19503 15.9129 1.88815 15.2776C2.58126 14.6658 3.48948 14.2187 4.61281 13.9364C5.76004 13.654 7.17017 13.5129 8.89101 13.5129H15.0813C16.8021 13.5129 18.2361 13.654 19.3834 13.9364C20.5306 14.2187 21.4388 14.6658 22.108 15.2776C22.8011 15.8893 23.2792 16.7129 23.566 17.7246C23.8528 18.7364 23.9962 19.9599 23.9962 21.4187V31.7481H18.9054Z" fill="#C9CFD4"/>
<path d="M46.7475 18.901C46.7475 18.2893 46.6041 17.8893 46.2934 17.701C45.9827 17.4893 45.4569 17.3952 44.6682 17.3952H36.2074C35.562 17.3952 35.0362 17.4187 34.606 17.4893C34.1758 17.5363 33.8173 17.6775 33.5544 17.8658C33.2915 18.0775 33.1003 18.3599 32.9808 18.7363C32.8613 19.1128 32.8135 19.6304 32.8135 20.2893V21.254H46.7475V18.901ZM32.8135 24.4775V25.3246C32.8135 25.8893 32.8613 26.3363 32.9569 26.6657C33.0525 26.9951 33.2198 27.254 33.4588 27.4657C33.6978 27.6775 34.0085 27.7951 34.4148 27.8422C34.8211 27.9128 35.2991 27.9363 35.8967 27.9363H41.8957V31.7245H35.8967C32.9569 31.7245 30.8775 31.1833 29.6108 30.0774C28.368 28.9716 27.7227 27.2305 27.7227 24.8069V20.5952C27.7227 19.2775 27.8422 18.1481 28.1051 17.254C28.368 16.3363 28.8221 15.6069 29.4674 15.0658C30.1127 14.5246 30.9731 14.1246 32.0487 13.8658C33.1242 13.6305 34.4626 13.4893 36.1118 13.4893H45.0506C46.3651 13.4893 47.4645 13.6069 48.3489 13.8658C49.2332 14.101 49.9263 14.454 50.4282 14.901C50.9301 15.3481 51.2886 15.8658 51.5037 16.4775C51.7188 17.0893 51.8144 17.7716 51.8144 18.4775V24.454H32.8135V24.4775Z" fill="#C9CFD4"/>
<path d="M71.2238 31.7483L64.9858 25.16L58.6282 31.7483H52.4141L62.0221 22.2659L53.0594 13.5365H59.1779L65.2009 19.6776L71.3433 13.5365H77.4858L68.2362 22.4306L77.5814 31.7483H71.2238Z" fill="#C9CFD4"/>
<path d="M80.9294 31.748V17.5834H78.3242V13.5363H80.9294V8.38339H86.1158V13.5363H91.9475V17.5834H86.1158V31.748H80.9294Z" fill="#C9CFD4"/>
<path fill-rule="evenodd" clip-rule="evenodd" d="M124.259 22.454C126.721 26.5011 123.638 39.4657 104.23 32.6892C122.299 31.5598 122.61 19.7246 124.259 22.454Z" fill="#C9CFD4"/>
<path fill-rule="evenodd" clip-rule="evenodd" d="M108.029 12.6893C111.805 12.7599 113.382 14.854 113.741 15.6305C114.099 16.3834 113.956 17.5599 113.956 17.5599C113.956 17.5599 117.111 14.0305 116.92 11.3717C116.155 0.430476 94.5488 7.58342 95.3375 20.454C95.4331 22.1952 97.1539 26.0305 99.9264 25.254C99.9264 25.254 98.5163 24.3834 98.2056 23.8422C95.8872 19.7481 103.631 12.5952 108.029 12.6893Z" fill="#C9CFD4"/>
<path d="M97.3015 10.854C84.8971 35.8892 117.88 22.9246 118.143 10.0069C118.215 7.23049 115.084 6.10107 115.084 6.10107C115.084 6.10107 118.047 7.23049 118.932 9.53636C119.816 11.8422 121.632 17.3952 118.238 23.1599C114.845 28.9246 108.726 27.7481 108.774 30.4304C108.822 33.1127 111.092 34.5716 114.367 34.3363C117.641 34.101 121.632 31.748 122.588 30.9716C123.544 30.1716 124.07 29.5598 124.07 29.5598C124.07 29.5598 122.636 32.2186 117.808 35.2069C112.98 38.1951 105.834 39.2539 99.7633 34.9245C92.6887 29.9598 90.8006 17.8187 97.3015 10.854Z" fill="#C9CFD4"/>
</svg>
