<svg width="183" height="44" viewBox="0 0 183 44" fill="none" xmlns="http://www.w3.org/2000/svg">
<path d="M53.8215 26.8784V16.7552L53.8086 6.00035H55.5828H57.3569V15.8842C57.3569 22.0906 57.3827 25.9422 57.4215 26.2261C57.5118 26.8261 57.7118 27.2261 58.015 27.3745C58.144 27.439 58.5311 27.5229 58.8666 27.5616C59.2666 27.6068 59.4153 27.5938 59.4153 27.5938L59.0409 30.4971C59.0409 30.4971 58.9763 30.5293 58.0537 30.4971C56.7828 30.4584 56.3182 30.3616 55.6731 30.0261C54.9247 29.6326 54.3634 28.9358 54.0086 27.981C53.8847 27.6266 53.8215 27.2538 53.8215 26.8784Z" fill="#C2C7CC"/>
<path d="M104 18.0967V30.1935H105.806H107.613V24.3612V18.529L108.058 18.1096C108.303 17.8774 108.645 17.6064 108.813 17.5096C109.724 16.9839 110.69 16.8387 111.593 16.9548C113.122 17.1612 113.871 17.9161 114.303 19.6709C114.393 20.0387 114.413 20.7741 114.432 25.1483L114.458 30.1935H116.264H118.071L118.045 25.0451C118.019 19.4645 118.019 19.4709 117.645 18.1677C117.155 16.4774 116.181 15.2064 114.89 14.5548C113.91 14.0645 112.96 13.9797 112 13.9742C110.877 13.9677 110.24 14.1033 110.193 14.1161C109.51 14.3032 108.735 14.6645 108.103 15.0903L107.613 15.4193V10.7097V5.99998H105.806H104V18.0967Z" fill="#C2C7CC"/>
<path d="M0 9.45158V11.2903H1.77417H3.54835V9.45158V7.61287H1.77417H0V9.45158Z" fill="#C2C7CC"/>
<path d="M64.675 10.3292C63.7911 10.426 63.0105 10.5098 62.9524 10.5098C62.8427 10.5163 62.8363 10.6453 62.8363 12.355V14.1937H61.804C60.7912 14.1937 60.7718 14.1937 60.746 14.3356C60.7137 14.4969 60.4492 16.8776 60.4492 17.013C60.4492 17.0776 60.7331 17.0969 61.6428 17.0969H62.8298L62.8556 22.1743C62.875 26.7098 62.8879 27.2969 62.9847 27.613C63.4169 29.0388 64.3976 30.013 65.7459 30.3614C66.2556 30.4904 69.8685 30.5808 69.8685 30.4582C69.8685 30.3808 70.1072 28.1485 70.1523 27.8324L70.1781 27.6324L69.0104 27.5937C67.5717 27.542 67.1395 27.4517 66.8556 27.142C66.4814 26.7291 66.4879 26.8259 66.4685 21.755L66.4427 17.0969H68.3201H70.191V15.6453V14.1937H68.3201H66.4492V12.1614C66.4492 10.5743 66.4298 10.1292 66.3717 10.1356C66.3266 10.1421 65.5653 10.226 64.675 10.3292Z" fill="#C2C7CC"/>
<path d="M95.8993 13.9162C93.7058 14.1033 91.9897 14.8387 90.6671 16.1549C89.5704 17.2452 88.8607 18.6968 88.5381 20.4839C88.3769 21.3742 88.3769 23.1484 88.5446 24C89.1188 27.0452 90.9833 29.2129 93.7703 30.0839C94.6994 30.3742 95.4735 30.4774 96.738 30.4774C97.9832 30.4774 98.6154 30.3935 99.6541 30.0903C100.203 29.9355 101.222 29.5032 101.222 29.4258C101.235 29.2387 100.854 26.5161 100.815 26.5161C100.79 26.5161 100.57 26.6129 100.332 26.7355C98.3574 27.729 95.7639 27.729 94.2155 26.7419C92.7445 25.8 91.9962 24.1032 92.08 21.9032C92.1316 20.5161 92.4349 19.5678 93.1187 18.6645C94.4865 16.8581 97.3445 16.4129 100.183 17.5549C100.519 17.6903 100.803 17.7936 100.815 17.7871C100.822 17.7742 100.899 17.2065 100.99 16.5162C101.08 15.8258 101.17 15.1678 101.19 15.0581C101.222 14.8581 101.222 14.8581 100.583 14.5871C99.2283 14.0258 97.4929 13.7807 95.8993 13.9162Z" fill="#C2C7CC"/>
<path d="M14.076 14.0322C13.005 14.2258 12.0373 14.6258 11.1212 15.258L10.6115 15.6064L10.5405 15.2064C10.4954 14.9871 10.4437 14.6709 10.4244 14.4967L10.3792 14.1935H8.89537H7.41797V22.1935V30.1935H9.19214H10.9663V24.3806V18.5677L11.1728 18.329C11.7082 17.7225 12.3857 17.3096 13.2179 17.0838C13.9082 16.8967 15.0953 16.8967 15.6566 17.0838C16.9921 17.5161 17.6308 18.5354 17.8049 20.5483C17.8372 20.9354 17.8695 23.2709 17.8695 25.7225V30.1935H19.6436H21.4114L21.4307 25.0774C21.4565 19.9935 21.4565 19.9677 21.5985 19.4967C22.1533 17.6903 23.1404 16.9483 24.9984 16.9419C26.7339 16.9419 27.6306 17.6322 28.0758 19.3032C28.2177 19.8322 28.2177 19.929 28.2371 25.0128L28.2629 30.1935H30.0693H31.8758L31.85 24.9161C31.8177 19.2967 31.8241 19.3354 31.4887 18.0903C31.4112 17.8129 31.1854 17.2451 30.9854 16.8387C30.6564 16.1806 30.5532 16.0322 30.0371 15.5161C29.3726 14.858 28.9468 14.5806 28.179 14.3161C27.4113 14.0516 26.6242 13.9354 25.6436 13.9354C23.321 13.9354 21.5726 14.7032 20.3791 16.2451L20.2178 16.458L19.9727 16.0967C19.4694 15.3419 18.6695 14.6967 17.792 14.3419C16.8501 13.9613 15.2243 13.8258 14.076 14.0322Z" fill="#C2C7CC"/>
<path d="M42.3622 14.0323C41.201 14.2517 40.13 14.7742 39.13 15.6C38.9558 15.7484 38.7881 15.8517 38.7623 15.8388C38.7365 15.8194 38.6978 15.6968 38.672 15.5678C38.6462 15.4323 38.5687 15.071 38.4978 14.7549L38.3687 14.1936H36.9559H35.543V26.0968V38H37.3171H39.0913L39.1042 33.4581L39.1236 28.9097L39.5429 29.2387C40.0719 29.6516 40.9687 30.0903 41.6397 30.2581C43.3364 30.6903 45.4332 30.5355 46.8138 29.8774C48.8848 28.8839 50.1686 27.071 50.717 24.3678C50.846 23.7355 50.8654 23.4581 50.8654 22.1613C50.8589 20.8645 50.8396 20.5936 50.717 20C50.0331 16.8517 48.2783 14.8258 45.6203 14.1226C44.9558 13.942 43.1042 13.8968 42.3622 14.0323ZM44.2848 17.0646C45.3041 17.3291 46.0719 18.0129 46.6009 19.1291C47.0977 20.1613 47.259 21.0904 47.2009 22.6129C47.1493 24.0645 46.8525 25.0839 46.2267 25.9613C45.5106 26.9613 44.6783 27.4065 43.3816 27.4645C40.7107 27.5871 39.1558 25.9097 38.93 22.6774C38.8784 21.9742 38.9816 20.8452 39.1558 20.1549C39.5171 18.7097 40.4655 17.5936 41.6848 17.1613C42.4332 16.8968 43.4913 16.8581 44.2848 17.0646Z" fill="#C2C7CC"/>
<path d="M78.1311 14.0323C76.4989 14.3097 75.1698 14.9742 74.0795 16.0516C72.6021 17.5161 71.8086 19.6193 71.8086 22.0645C71.8086 24.5419 72.5957 26.6064 74.1247 28.1355C75.2924 29.3032 76.7634 30.0387 78.5505 30.3613C79.0343 30.4451 79.5182 30.4774 80.4859 30.4709C81.8924 30.4709 82.7698 30.3548 83.9052 30.0258C84.4601 29.858 85.6665 29.3871 85.7568 29.3032C85.7891 29.2645 85.5697 26.3871 85.531 26.3419C85.5246 26.3355 85.3117 26.4322 85.0665 26.5548C84.4923 26.8322 83.4278 27.1806 82.6794 27.3355C81.8472 27.5032 79.8988 27.4968 79.2601 27.329C77.1827 26.7806 75.9698 25.4322 75.5892 23.271C75.544 23 75.5182 22.7613 75.5376 22.7419C75.5569 22.7226 77.9892 22.7097 80.9375 22.7097H86.3117L86.3955 22.1742C86.5052 21.5097 86.5052 19.9935 86.3955 19.3548C86.131 17.8387 85.5052 16.6387 84.4665 15.671C83.5569 14.8194 82.4085 14.2645 81.073 14.0323C80.3827 13.9161 78.8214 13.9161 78.1311 14.0323ZM80.2085 16.9677C80.7891 17.0516 81.2988 17.2516 81.6665 17.5419C82.2859 18.0387 82.744 18.9419 82.8214 19.8452L82.8601 20.3226H79.2666C76.6411 20.3226 75.7664 20.3226 75.7664 20.3226C75.7664 20.3226 75.7509 19.8673 75.8666 19.5484C76.1182 18.8774 76.4279 18.3677 76.8537 17.9613C77.3053 17.5226 77.5247 17.3806 78.0279 17.1935C78.7117 16.9355 79.4537 16.8581 80.2085 16.9677Z" fill="#C2C7CC"/>
<path d="M0 22.1935V30.1935H1.77417H3.54835V22.1935V14.1935H1.77417H0V22.1935Z" fill="#C2C7CC"/>
<path d="M140.887 16.7211V19.1894C140.887 19.3559 140.935 19.5188 141.026 19.6584C141.201 19.9351 141.51 20.0923 141.867 20.0923C142.152 20.0923 142.152 20.0923 142.188 19.8533C142.267 19.325 142.273 19.3376 142.121 19.3376C142.043 19.3376 141.922 19.281 141.855 19.2118C141.74 19.0923 141.734 19.0042 141.734 16.5387V13.9914H141.31H140.887V16.7211Z" fill="#C2C7CC"/>
<path d="M122.074 22.2106V30.091H122.583H123.091V22.2106V14.3302H122.583H122.074V22.2106Z" fill="#C2C7CC"/>
<path d="M127.328 14.9235V15.3472H127.752H128.175V14.9235V14.4999H127.752H127.328V14.9235Z" fill="#C2C7CC"/>
<path d="M172.234 14.9235V15.3472H172.658H173.082V14.9235V14.4999H172.658H172.234V14.9235Z" fill="#C2C7CC"/>
<path d="M163.331 15.0529L163.05 15.0785V15.5578V16.0308H162.755H162.46V16.2673C162.46 16.4015 162.441 16.574 162.421 16.6507C162.382 16.7913 162.402 16.7977 162.709 16.7977H163.043L163.063 18.1974C163.082 19.5012 163.096 19.6163 163.22 19.776C163.495 20.1403 163.672 20.217 164.287 20.2362L164.863 20.2618L164.909 20.0573C164.929 19.9422 164.948 19.7697 164.948 19.6738C164.948 19.5012 164.935 19.4948 164.555 19.4693C164.339 19.4565 164.123 19.4054 164.078 19.3606C164.025 19.3095 163.992 18.9196 163.979 18.044L163.953 16.7977H164.451H164.948V16.4143V16.0308H164.457H163.966V15.5195V15.0082L163.789 15.021C163.685 15.0274 163.482 15.0402 163.331 15.0529Z" fill="#C2C7CC"/>
<path d="M169.941 15.0529L169.659 15.0785V15.5578V16.0308H169.364H169.07V16.2673C169.07 16.4015 169.05 16.574 169.031 16.6507C168.991 16.7913 169.011 16.7977 169.319 16.7977H169.653L169.672 18.1974C169.692 19.5012 169.705 19.6163 169.829 19.776C170.104 20.1403 170.281 20.217 170.896 20.2362L171.473 20.2618L171.518 20.0572C171.538 19.9422 171.558 19.7696 171.558 19.6738C171.558 19.5012 171.545 19.4948 171.165 19.4693C170.949 19.4565 170.733 19.4053 170.687 19.3606C170.635 19.3095 170.602 18.9196 170.589 18.044L170.563 16.7977H171.06H171.558V16.4142V16.0308H171.067H170.576V15.5195V15.0082L170.399 15.021C170.294 15.0274 170.091 15.0401 169.941 15.0529Z" fill="#C2C7CC"/>
<path d="M130.727 16.0844C130.637 16.1157 130.445 16.197 130.298 16.2657C129.959 16.4346 129.959 16.4346 129.959 16.247C129.959 16.0969 129.94 16.0907 129.575 16.0907H129.191V18.0915V20.0923H129.639H130.087V18.6355C130.087 17.0035 130.068 17.0723 130.554 16.8722C131.021 16.6847 131.412 16.7784 131.668 17.1474C131.808 17.3537 131.815 17.41 131.815 18.723V20.0923H132.295H132.774V18.7918C132.774 17.6476 132.794 17.4662 132.902 17.2286C132.992 17.0286 133.088 16.9348 133.267 16.866C133.561 16.7409 134.009 16.7784 134.195 16.941C134.47 17.1786 134.502 17.3912 134.502 18.7793V20.0923H134.982H135.462V18.9168C135.462 17.5975 135.404 17.1223 135.187 16.7159C134.79 15.9656 133.523 15.7968 132.73 16.3845L132.448 16.5971L132.199 16.3783C131.84 16.0656 131.22 15.9406 130.727 16.0844Z" fill="#C2C7CC"/>
<path d="M137.785 16.1104C137.662 16.1549 137.465 16.2503 137.348 16.3266C137.225 16.4029 137.114 16.4665 137.101 16.4665C137.083 16.4665 137.052 16.3775 137.034 16.2757C136.997 16.0913 136.984 16.085 136.651 16.085H136.312V19.1057V22.1263H136.744H137.175V20.988V19.8433L137.459 20.0087C138.106 20.3839 139.079 20.2376 139.548 19.6971C139.955 19.2392 140.041 18.953 140.041 18.12C140.041 17.4459 140.028 17.3568 139.868 17.0261C139.77 16.8226 139.579 16.5619 139.437 16.4347C139.018 16.0595 138.297 15.9196 137.785 16.1104ZM138.704 16.9562C139.314 17.4077 139.307 18.8322 138.697 19.2901C138.451 19.4745 137.865 19.4745 137.631 19.2901C137.354 19.0802 137.237 18.8767 137.169 18.4697C137.04 17.7575 137.286 17.0897 137.761 16.8735C138.007 16.7527 138.494 16.7972 138.704 16.9562Z" fill="#C2C7CC"/>
<path d="M143.877 16.1321C143.041 16.4165 142.578 17.0905 142.578 18.0305C142.578 19.3538 143.554 20.1886 144.985 20.0834C145.447 20.0525 146.03 19.8979 146.094 19.7928C146.113 19.7619 146.106 19.5887 146.087 19.4032L146.049 19.0631L145.771 19.1806C145.416 19.3352 144.776 19.397 144.434 19.3043C144.092 19.2115 143.794 18.9642 143.649 18.6488C143.421 18.1603 143.357 18.185 144.89 18.185H146.246L146.29 17.9686C146.341 17.6904 146.271 17.2328 146.132 16.9174C145.802 16.1939 144.77 15.8291 143.877 16.1321ZM144.953 16.8617C145.074 16.9174 145.207 17.0473 145.264 17.1647C145.46 17.5667 145.466 17.5667 144.447 17.5667H143.528L143.598 17.3935C143.801 16.8741 144.44 16.6206 144.953 16.8617Z" fill="#C2C7CC"/>
<path d="M148.65 16.0844C148.563 16.1157 148.376 16.197 148.233 16.2657C147.903 16.4346 147.903 16.4346 147.903 16.247C147.903 16.0969 147.885 16.0907 147.53 16.0907H147.156V18.0915V20.0923H147.592H148.028V18.6355C148.028 17.0035 148.009 17.0723 148.482 16.8722C148.937 16.6847 149.316 16.7784 149.565 17.1474C149.702 17.3537 149.709 17.41 149.709 18.723V20.0923H150.176H150.642V18.7918C150.642 17.6476 150.661 17.4662 150.767 17.2286C150.854 17.0286 150.948 16.9348 151.122 16.866C151.408 16.7409 151.844 16.7784 152.025 16.941C152.292 17.1786 152.323 17.3912 152.323 18.7793V20.0923H152.79H153.257V18.9168C153.257 17.5975 153.201 17.1223 152.989 16.7159C152.603 15.9656 151.371 15.7968 150.599 16.3845L150.325 16.5971L150.082 16.3783C149.734 16.0656 149.13 15.9406 148.65 16.0844Z" fill="#C2C7CC"/>
<path d="M155.236 16.1321C154.4 16.4165 153.938 17.0906 153.938 18.0305C153.938 19.3538 154.913 20.1886 156.344 20.0834C156.807 20.0525 157.39 19.8979 157.453 19.7928C157.472 19.7619 157.466 19.5888 157.447 19.4032L157.409 19.0631L157.13 19.1806C156.775 19.3352 156.135 19.3971 155.793 19.3043C155.451 19.2116 155.154 18.9642 155.008 18.6488C154.78 18.1603 154.717 18.1851 156.249 18.1851H157.605L157.649 17.9686C157.7 17.6904 157.63 17.2328 157.491 16.9174C157.162 16.1939 156.129 15.8291 155.236 16.1321ZM156.313 16.8618C156.433 16.9174 156.566 17.0473 156.623 17.1648C156.82 17.5667 156.826 17.5667 155.806 17.5667H154.888L154.957 17.3936C155.16 16.8741 155.8 16.6206 156.313 16.8618Z" fill="#C2C7CC"/>
<path d="M159.744 16.1078C159.607 16.1516 159.42 16.2331 159.327 16.2957C159.165 16.4022 159.159 16.4022 159.14 16.2581C159.121 16.1266 159.084 16.114 158.736 16.0952L158.344 16.0764V18.0875V20.0923H158.779H159.215V18.6263V17.154L159.377 17.0287C159.731 16.7468 160.285 16.7029 160.621 16.9285C160.92 17.1227 160.957 17.342 160.957 18.7767V20.0923H161.43H161.903L161.878 18.6952C161.847 17.129 161.772 16.7969 161.374 16.4085C161.007 16.0514 160.328 15.9261 159.744 16.1078Z" fill="#C2C7CC"/>
<path d="M166.315 16.1193C165.833 16.2426 165.612 16.366 165.637 16.4956C165.65 16.5573 165.682 16.7115 165.701 16.8349L165.738 17.0632L166.036 16.9336C166.245 16.8411 166.466 16.7979 166.789 16.7979C167.201 16.7917 167.264 16.8102 167.403 16.946C167.486 17.0323 167.568 17.1866 167.587 17.2914L167.625 17.4827L167.22 17.5259C166.011 17.6431 165.289 18.1675 165.289 18.9202C165.289 19.1978 165.422 19.5556 165.593 19.7469C165.751 19.9196 166.175 20.0923 166.46 20.0923C166.815 20.0923 167.112 19.9998 167.454 19.79L167.751 19.605L167.853 19.7654C167.986 19.9628 168.308 20.0923 168.676 20.0923C168.929 20.0923 168.96 20.08 168.96 19.9505C168.96 19.8764 168.979 19.7098 168.998 19.5865C169.036 19.3767 169.03 19.3582 168.859 19.3397C168.568 19.3088 168.517 19.1238 168.517 18.112C168.517 17.0447 168.422 16.6498 168.106 16.3537C167.751 16.0267 167.017 15.9342 166.315 16.1193ZM167.631 18.5747V19.0312L167.403 19.1731C166.846 19.5063 166.239 19.3397 166.239 18.8646C166.239 18.4575 166.739 18.1367 167.397 18.1243L167.631 18.1181V18.5747Z" fill="#C2C7CC"/>
<path d="M175.344 16.0877C174.93 16.2246 174.723 16.3553 174.454 16.6478C173.538 17.6373 173.87 19.3983 175.081 19.9335C175.532 20.1389 176.398 20.1451 176.825 19.9522C177.214 19.7717 177.577 19.4357 177.747 19.0934C178.311 17.9795 177.885 16.6416 176.825 16.1749C176.467 16.0193 175.702 15.9757 175.344 16.0877ZM176.398 16.8407C176.812 17.0087 177.069 17.4755 177.069 18.0604C177.069 19.0872 176.266 19.6597 175.438 19.2241C175.006 19.0001 174.861 18.664 174.886 17.992C174.899 17.5439 174.93 17.4195 175.062 17.2328C175.344 16.8158 175.928 16.6416 176.398 16.8407Z" fill="#C2C7CC"/>
<path d="M180.076 16.1078C179.939 16.1516 179.752 16.2331 179.659 16.2957C179.497 16.4022 179.491 16.4022 179.472 16.2581C179.454 16.1266 179.416 16.114 179.068 16.0952L178.676 16.0764V18.0875V20.0923H179.111H179.547V18.6263V17.154L179.709 17.0287C180.063 16.7468 180.617 16.7029 180.953 16.9285C181.252 17.1227 181.289 17.342 181.289 18.7767V20.0923H181.762H182.235L182.21 18.6952C182.179 17.129 182.104 16.7969 181.706 16.4085C181.339 16.0514 180.661 15.9261 180.076 16.1078Z" fill="#C2C7CC"/>
<path d="M127.328 18.0587V20.0923H127.752H128.175V18.0587V16.025H127.752H127.328V18.0587Z" fill="#C2C7CC"/>
<path d="M172.234 18.0587V20.0923H172.658H173.082V18.0587V16.025H172.658H172.234V18.0587Z" fill="#C2C7CC"/>
<path d="M137.832 26.8715V29.9219H138.321H138.81V28.4412C138.81 26.7825 138.79 26.8524 139.286 26.649C139.611 26.5156 139.911 26.5283 140.165 26.6808C140.53 26.8969 140.57 27.0875 140.57 28.5874V29.9219H141.065H141.56L141.534 28.473C141.515 27.1257 141.502 27.0113 141.358 26.6999C141.169 26.2868 140.798 25.95 140.426 25.8483C140.029 25.7466 139.455 25.8102 139.103 26.0008L138.81 26.166V24.9903V23.821H138.321H137.832V26.8715Z" fill="#C2C7CC"/>
<path d="M151.562 26.5507V29.0189C151.562 29.1855 151.611 29.3484 151.702 29.488C151.877 29.7647 152.186 29.9219 152.543 29.9219C152.827 29.9219 152.827 29.9219 152.864 29.6829C152.942 29.1546 152.949 29.1672 152.797 29.1672C152.719 29.1672 152.597 29.1106 152.531 29.0414C152.416 28.9219 152.41 28.8338 152.41 26.3683V23.821H151.986H151.562V26.5507Z" fill="#C2C7CC"/>
<path d="M127.852 24.8811L127.589 24.9059V25.3697V25.8274H127.314H127.039V26.0563C127.039 26.1862 127.021 26.3532 127.002 26.4274C126.966 26.5635 126.984 26.5696 127.271 26.5696H127.583L127.601 27.9242C127.619 29.1859 127.632 29.2972 127.748 29.4519C128.004 29.8044 128.169 29.8786 128.744 29.8972L129.281 29.9219L129.324 29.724C129.343 29.6127 129.361 29.4457 129.361 29.3529C129.361 29.1859 129.349 29.1797 128.994 29.155C128.793 29.1426 128.591 29.0931 128.548 29.0498C128.499 29.0004 128.469 28.6231 128.457 27.7757L128.432 26.5696H128.896H129.361V26.1985V25.8274H128.903H128.444V25.3326V24.8378L128.279 24.8502C128.182 24.8564 127.992 24.8687 127.852 24.8811Z" fill="#C2C7CC"/>
<path d="M131.166 25.7967C130.33 26.093 129.867 26.7951 129.867 27.7741C129.867 29.1526 130.843 30.0222 132.274 29.9127C132.737 29.8805 133.319 29.7194 133.383 29.6099C133.402 29.5777 133.395 29.3974 133.376 29.2041L133.338 28.8498L133.06 28.9722C132.705 29.1333 132.065 29.1977 131.723 29.1011C131.381 29.0044 131.083 28.7468 130.938 28.4183C130.803 28.1136 130.809 27.9352 130.809 27.9352C130.809 27.9352 131.249 27.9352 132.179 27.9352H133.535L133.579 27.7097C133.63 27.4199 133.56 26.9432 133.421 26.6147C133.091 25.8611 132.059 25.481 131.166 25.7967ZM132.242 26.5567C132.363 26.6147 132.496 26.75 132.553 26.8724C132.664 27.1107 132.681 27.2911 132.681 27.2911C132.681 27.2911 132.334 27.2911 131.736 27.2911H130.832L130.887 27.1107C131.09 26.5696 131.729 26.3055 132.242 26.5567Z" fill="#C2C7CC"/>
<path d="M135.511 25.7407C134.948 25.8826 134.511 26.2567 134.263 26.8308C134.13 27.1339 134.105 27.2758 134.105 27.7983C134.105 28.5207 134.233 28.8948 134.633 29.327C135.081 29.8172 135.881 30.03 136.626 29.8688C137.141 29.7527 137.19 29.6946 137.141 29.2689L137.099 28.9142L136.753 29.0432C136.051 29.2947 135.378 29.069 135.111 28.4949C134.869 27.9531 134.978 27.0823 135.336 26.7469C135.657 26.4437 136.238 26.3663 136.766 26.5663L137.093 26.6889L137.135 26.3405C137.153 26.1535 137.159 25.9664 137.135 25.9277C137.02 25.7213 136.032 25.6117 135.511 25.7407Z" fill="#C2C7CC"/>
<path d="M143.81 25.7713C143.673 25.817 143.487 25.9019 143.393 25.9671C143.231 26.0781 143.225 26.0781 143.207 25.928C143.188 25.7909 143.151 25.7779 142.802 25.7583L142.41 25.7387V27.8336V29.9219H142.846H143.281V28.3948V26.8612L143.443 26.7307C143.798 26.437 144.351 26.3913 144.687 26.6263C144.986 26.8286 145.023 27.057 145.023 28.5515V29.9219H145.496H145.969L145.944 28.4666C145.913 26.8351 145.838 26.4892 145.44 26.0846C145.073 25.7126 144.395 25.5821 143.81 25.7713Z" fill="#C2C7CC"/>
<path d="M148.059 25.9173C147.645 26.0542 147.438 26.1849 147.168 26.4774C146.253 27.4668 146.585 29.2279 147.796 29.7631C148.247 29.9685 149.113 29.9747 149.54 29.7818C149.928 29.6013 150.292 29.2653 150.462 28.923C151.026 27.8091 150.6 26.4712 149.54 26.0045C149.182 25.8489 148.417 25.8053 148.059 25.9173ZM149.113 26.6703C149.527 26.8383 149.784 27.305 149.784 27.89C149.784 28.9168 148.981 29.4893 148.153 29.0537C147.72 28.8297 147.576 28.4936 147.601 27.8216C147.614 27.3735 147.645 27.249 147.777 27.0624C148.059 26.6454 148.643 26.4712 149.113 26.6703Z" fill="#C2C7CC"/>
<path d="M154.672 25.9173C154.258 26.0542 154.051 26.1849 153.782 26.4774C152.866 27.4668 153.198 29.2279 154.409 29.7631C154.861 29.9685 155.726 29.9747 156.153 29.7818C156.542 29.6013 156.906 29.2653 157.075 28.923C157.639 27.8091 157.213 26.4712 156.153 26.0045C155.795 25.8489 155.03 25.8053 154.672 25.9173ZM155.726 26.6703C156.14 26.8383 156.397 27.305 156.397 27.89C156.397 28.9168 155.595 29.4893 154.767 29.0537C154.334 28.8297 154.189 28.4936 154.215 27.8216C154.227 27.3735 154.258 27.249 154.39 27.0624C154.672 26.6454 155.256 26.4712 155.726 26.6703Z" fill="#C2C7CC"/>
<path d="M158.915 25.7708C158.555 25.892 158.225 26.1853 158.066 26.5232C157.797 27.0971 157.944 28.0217 158.353 28.3596L158.518 28.4871L158.384 28.5955C158.091 28.8442 158.042 29.2076 158.268 29.4818L158.414 29.654L158.152 29.9154C157.858 30.2151 157.773 30.5084 157.871 30.891C158.005 31.3947 158.579 31.7199 159.435 31.7773C160.711 31.8602 161.56 31.3564 161.56 30.5084C161.56 30.0876 161.426 29.8006 161.127 29.603C160.852 29.4181 160.607 29.3415 159.783 29.214C159.08 29.1056 158.897 29.0355 158.927 28.8761C158.946 28.7868 159.037 28.7741 159.496 28.7677C159.935 28.7677 160.094 28.7422 160.29 28.6274C160.577 28.468 160.815 28.2193 160.968 27.9069C161.114 27.6136 161.121 26.9377 160.98 26.638C160.846 26.3702 160.876 26.3128 161.169 26.3128C161.383 26.3128 161.408 26.2937 161.444 26.1152C161.463 26.0068 161.481 25.8729 161.481 25.8282C161.481 25.7135 161.102 25.7135 160.73 25.8282C160.485 25.9047 160.418 25.9047 160.125 25.7963C159.74 25.6561 159.294 25.6497 158.915 25.7708ZM159.893 26.4085C160.131 26.536 160.271 26.8357 160.271 27.2055C160.271 27.8941 159.789 28.2576 159.172 28.028C158.598 27.8176 158.579 26.5998 159.147 26.383C159.392 26.2937 159.691 26.3001 159.893 26.4085ZM159.96 30.011C160.522 30.1131 160.748 30.2661 160.748 30.5403C160.748 30.6678 160.705 30.7953 160.644 30.8527C160.4 31.0759 159.624 31.1651 159.129 31.0249C158.592 30.8718 158.439 30.4319 158.799 30.0621C159.001 29.8453 159.05 29.8453 159.96 30.011Z" fill="#C2C7CC"/>
<path d="M161.727 25.8984C161.727 25.9296 162.092 26.7725 162.537 27.7715L163.342 29.6009L162.939 30.5811C162.723 31.1243 162.519 31.6176 162.5 31.6737C162.463 31.7736 162.5 31.7861 162.915 31.7861H163.366L164.555 28.9265C165.211 27.3594 165.761 26.0232 165.786 25.9608C165.817 25.8672 165.774 25.8547 165.328 25.8547H164.839L164.326 27.1658C164.041 27.8839 163.793 28.477 163.769 28.477C163.75 28.477 163.496 27.8901 163.212 27.1658L162.686 25.8547H162.209C161.943 25.8547 161.727 25.8734 161.727 25.8984Z" fill="#C2C7CC"/>
</svg>
