<svg width="36" height="36" viewBox="0 0 36 36" fill="none" xmlns="http://www.w3.org/2000/svg">
<path d="M12 25.5V10.5H18.15C19.1786 10.5 20.05 10.6643 20.7643 10.9929C21.4786 11.3214 22.0214 11.7786 22.3929 12.3643C22.7643 12.9357 22.95 13.6 22.95 14.3571C22.95 15.1143 22.7857 15.75 22.4571 16.2643C22.1286 16.7786 21.6929 17.1786 21.15 17.4643C20.6214 17.7357 20.0357 17.8929 19.3929 17.9357L19.7357 17.7C20.4214 17.7286 21.0286 17.9143 21.5571 18.2571C22.1 18.5857 22.5214 19.0286 22.8214 19.5857C23.1357 20.1429 23.2929 20.75 23.2929 21.4071C23.2929 22.2071 23.1 22.9143 22.7143 23.5286C22.3286 24.1429 21.7643 24.6286 21.0214 24.9857C20.2929 25.3286 19.4 25.5 18.3429 25.5H12ZM14.8929 23.1429H17.8929C18.6786 23.1429 19.2857 22.9643 19.7143 22.6071C20.1429 22.25 20.3571 21.7357 20.3571 21.0643C20.3571 20.3929 20.1357 19.8714 19.6929 19.5C19.25 19.1143 18.6357 18.9214 17.85 18.9214H14.8929V23.1429ZM14.8929 16.7571H17.6786C18.4357 16.7571 19.0071 16.5857 19.3929 16.2429C19.7929 15.9 19.9929 15.4143 19.9929 14.7857C19.9929 14.1714 19.7929 13.6929 19.3929 13.35C19.0071 12.9929 18.4286 12.8143 17.6571 12.8143H14.8929V16.7571Z" fill="#120A00"/>
</svg>
